<?xml version="1.0" encoding="UTF-8"?>
<!DOCTYPE svg PUBLIC "-//W3C//DTD SVG 1.1//EN" "http://www.w3.org/Graphics/SVG/1.1/DTD/svg11.dtd">
<!-- Creator: CorelDRAW 2021 (64-Bit) -->
<svg xmlns="http://www.w3.org/2000/svg" xml:space="preserve" width="3.6in" height="3.6in" version="1.1" style="shape-rendering:geometricPrecision; text-rendering:geometricPrecision; image-rendering:optimizeQuality; fill-rule:evenodd; clip-rule:evenodd"
viewBox="0 0 3600 3600"
 xmlns:xlink="http://www.w3.org/1999/xlink"
 xmlns:xodm="http://www.corel.com/coreldraw/odm/2003">
 <defs>
  <style type="text/css">
   <![CDATA[
    .fil0 {fill:#523970}
   ]]>
  </style>
 </defs>
 <g id="Layer_x0020_1">
  <metadata id="CorelCorpID_0Corel-Layer"/>
  <g id="_1530984447536">
   <path class="fil0" d="M1606.67 2543.33l-60.9 -55.76 -51.78 -68.22c-69.09,-103.23 19,-215.24 80.14,-271.89 14.02,-12.99 30.3,-23.72 45.87,-34.13 33.77,-22.56 45.75,-25.73 78.91,-41.09l134.45 -65.54c74.03,-36.65 79.57,-83.22 83.44,-156.79l-5.75 -70.95c-15.26,-102.06 -47.06,-135.76 -113.58,-206.42 -46.31,-49.2 -63.16,-117.09 6.88,-151.52 50.12,-24.63 117.23,-49.74 56.17,-138.19 -37.09,-53.74 -108.07,-72.91 -165.86,-38.17 -26.02,15.64 -51.35,45.71 -66.81,73.19l-7.84 12.16c-0.7,-31.49 -34.44,-124.11 -101.45,-104.79 -44.9,12.95 -63.43,109.09 -57.15,150.04l15.27 128.08 -66.67 46.67c-0.54,-24.48 -16.72,-73.98 -16.67,-166.67 0.04,-62.08 2.09,-121.13 9.01,-174.32 7.82,-60.11 3.86,-109.86 62.74,-120.64 57.51,-10.53 123.59,33.19 144.92,34.96 4.46,-16.7 11.12,-11.05 18.23,-55.11 9.77,-60.56 -8.83,-31.43 -45,-101.46 -6.96,-13.47 -16.41,-41.52 -19.02,-57.65 -7.32,-45.28 -5.24,-96 3.8,-137.76 5.3,-24.47 11.25,-37.75 35.67,-41.16 24.18,-3.37 47.12,7.53 56.94,19.18 20.26,24.04 12.93,86.09 51.54,98.46 15.68,5.02 76.47,0.63 93.96,56.05 25.41,80.52 -74.11,115.36 -81.11,137.88 -5.16,16.6 3.78,54.27 7.79,65.43 14.15,39.33 21.24,20.04 102.61,47.39 115.14,38.7 138.06,72.15 193.52,183.15l71.54 155.12c21.5,52.09 38.14,65.08 8.25,109.2 -29.03,42.85 -73.3,80.64 -114.91,111.76l-43.81 32.85c28.42,-6.62 119.11,-67.52 142.57,-90.77 18.21,-18.05 62.82,-60.59 72.05,-84.98 5.73,-15.15 -11.18,-44.31 -17.95,-57.58 -44.67,-87.63 -106.61,-237.91 -164.62,-312.04 -17.57,-22.46 -72.41,-44.21 -102.43,-54.24 -25.08,-8.37 -102.59,-33.19 -126.28,-33.72 0,-17.16 -5.86,-34.52 9.99,-60.01 32.05,-51.52 101.75,-42.26 103.35,-129.98 0.61,-33.62 6.5,-37.57 16.66,-60.01 35.37,-78.09 -4.95,-137.8 -14.72,-195.27 -7.49,-44.04 -58.79,-119.7 -113.34,-112.8 -55.42,7 -40.74,-32.06 -127.24,2.76 -11.1,4.46 -16.26,7.89 -27.56,12.44 -60.32,24.32 -79.8,69.1 -104.5,92.17 -37.96,35.44 -76.3,-4.66 -100.33,53 -17.27,41.43 -8.95,90.37 -66.93,85.89 -52.23,-4.04 -88.65,36.17 -72.25,75.35 6.28,14.98 22.27,30.22 32.65,44.04 52.45,69.82 -12.15,132.47 -74.86,84.86 -17.56,-13.33 -23.34,-23.08 -54.26,-22.72 -24.41,0.28 -46.69,9.08 -57.32,22.95 -30.07,39.25 -23.68,75.98 2.1,115.91 40.12,62.16 -71.99,61.21 -48.1,11.43 -43.96,11.74 -11.65,102.4 65.26,75.26 21.59,-7.62 44.16,-25.22 41.27,-54.79 -3.54,-36.28 -23.19,-20.41 -23.19,-73.8 18.16,-12.16 38.48,-23.93 62.06,7.94 25.64,34.65 33.29,85.36 92.63,100.7 41.05,10.61 49.34,2.3 81.98,-5.31 0,12.02 -3.3,37.81 -5.27,51.4 -8.68,59.91 -6.69,220.65 0.91,276.29 2.63,19.31 4.55,33.29 7.19,49.48 3,18.41 9.16,33.32 10.5,49.5 11.58,-3.09 52.63,-41.78 65.97,-50.7 62.96,-42.11 177.85,-97.68 250.7,-99.3l-15.63 7.7c-52.39,21.39 -68.5,28.59 -118.22,65.11 -28.07,20.63 -94.09,75.63 -108.2,98.46 -4.31,6.98 -9.15,27.42 -12.53,37.47 -5,14.9 -8.36,25.06 -13.34,40 -28.39,85.13 -51.49,150.94 -62.09,247.91 -21.31,195.07 1.35,355.11 115.65,491.04 22.36,26.6 85.49,87.93 114.36,95.63z"/>
   <path class="fil0" d="M2073.33 2320c0,-17.01 -0.05,-5.53 3.33,-10 0,17.62 -0.02,4.97 -3.33,10zm3.33 -16.67c-1.19,-6.31 4.2,-11.85 2.11,-2.11 -0.05,0.22 0.09,13.74 -2.11,2.11zm3.33 -16.67c0,-8.53 5.28,-0.54 1.98,0 -0.04,0.01 -1.98,9.3 -1.98,0zm-516.67 210c9.16,12.5 47.19,31.86 63.32,40.01 106.36,53.75 227.89,37.29 317.18,-32.85 52.64,-41.35 96.36,-103.6 120.89,-165.77 1.13,-2.86 2.57,-6.63 3.9,-9.43 0.44,-0.92 1.86,-3.64 2.26,-4.41l2.44 -4.22c-0.81,36.46 -37.5,103.89 -59.48,133.85 -27.58,37.61 -61.43,66.5 -101.14,92.2 -78.31,50.67 -216.25,53.11 -289.2,7.1 -9.77,-6.16 -4.83,-6.61 -16.85,-9.82 13.46,20.11 73.7,48.06 97.78,58.89 147.63,66.38 354.95,19.99 368.89,-32.22l-26.67 0c3.51,-3.05 0.41,-0.65 5.77,-4.23 21.38,-14.28 26.68,-16.42 46.74,-36.6 46.08,-46.35 85.68,-117.48 100.83,-182.51l-80 70c3.36,-12.57 37.92,-50.09 53.38,-79.95 23.03,-44.46 18.07,-54.53 13.2,-113.3 -9.53,-114.96 -69.89,-184.16 -73.25,-196.75l-6.67 0c-1.73,20.81 -32.24,58.51 -43.33,73.33 -49.34,65.93 -64.28,64.33 -77.26,156.07 -4.27,30.16 -12.74,75.08 -12.74,107.26 -14.1,-3.76 -6.17,-5.82 -26.67,-16.67 -4.39,52.82 -76.61,142.94 -136.09,167.24 -58.7,23.97 -123.61,29.29 -193.54,5.73 -18.65,-6.28 -37.45,-19.19 -53.7,-22.97z"/>
   <path class="fil0" d="M1543.33 3056.67l66.67 0 0 -170c18.41,13.49 77.21,140 93.33,140 35.39,0 21.87,6.47 67.33,-69.34 7.99,-13.32 14.05,-24.72 22.04,-37.96 6.09,-10.09 16.12,-30.29 23.96,-36.04l0 173.33 70 0 -3.33 -303.33 -60 0 -94.76 161.91c-6.9,11.78 -6.89,18.31 -18.57,21.43 -3.2,-13.73 -79.74,-136.27 -94.76,-161.91 -15.72,-26.84 -2.89,-21.43 -71.9,-21.43l0 303.33z"/>
   <path class="fil0" d="M926.67 2996.67l-73.33 0 0 -183.33 73.33 0c52.09,0 88.01,40.06 89.41,90.29 1.43,51.43 -38.04,93.05 -89.41,93.05zm-143.33 60l150 0c46.41,0 85.24,-19.83 110.86,-42.47 12.77,-11.29 23.62,-28.57 31.42,-45.24 24.94,-53.31 13.35,-131.18 -29.67,-171.56 -24.46,-22.96 -66.58,-44.06 -112.61,-44.06l-150 0 0 303.33z"/>
   <path class="fil0" d="M1920 896.67c19.62,5.24 72.44,42.75 92.39,57.61 129.65,96.56 230.94,276.76 230.94,439.06 0,101.08 -0.4,144 -36.16,240.5 -26.58,71.72 -51.62,110.9 -97.6,169.06 -35.94,45.46 -91.81,96.96 -141.1,125.57 -21.37,12.4 -12.14,9.14 -21.2,32.13 -6.02,15.27 -13.33,22.34 -20.6,36.07 38.3,-8.92 136.26,-84.48 169.17,-117.5 11.52,-11.56 18.54,-17.74 28.91,-31.09 57.13,-73.55 91.92,-109.83 129.01,-220.98 74.15,-222.2 17.34,-451.1 -121.4,-616.11 -36.96,-43.95 -148.25,-139.93 -195.69,-150.98 -6.05,12.61 -10.09,24.25 -16.67,36.67z"/>
   <path class="fil0" d="M2656.67 2916.67l-40 0 0 -106.67 33.33 0c46.4,0 86.67,6.92 86.67,53.33 0,43.68 -36.27,53.33 -80,53.33zm-110 140l70 0 0 -83.33c71.79,0 58.93,-8.62 90.66,39.34 10.34,15.63 20.7,27.67 29.34,44l76.67 0c-5.74,-21.5 -58.28,-78.3 -63.33,-100 85.48,-22.83 90.3,-203.33 -60,-203.33l-143.33 0 0 303.33z"/>
   <path class="fil0" d="M2213.33 2826.67c0.52,0.59 1.27,0.79 1.46,1.87l11.45 21.89c4.19,10.48 7.05,17.78 11.36,28.63 7.75,19.5 17.65,37.28 22.39,57.61l-90 0c3.61,-15.51 36.74,-81.71 43.33,-110zm-166.67 230l73.33 0c4.77,-20.48 21.69,-43.55 23.33,-63.33l143.33 0c5.6,24.02 17.93,40.13 23.33,63.33l76.67 0c-3.69,-15.84 -128.87,-284.19 -133.33,-303.33l-73.33 0 -32.87 73.8c-5.6,13.75 -10.02,22.85 -16.18,37.15l-68.09 151.91c-5.83,14.32 -12.14,23.03 -16.2,40.47z"/>
   <path class="fil0" d="M1013.33 1423.33c0,191.79 76.75,340.39 195.82,460.85 20.04,20.27 100.68,86.23 127.52,92.48l0 -46.67c-19.73,-5.27 -98.97,-71.5 -117.48,-92.52 -88.83,-100.91 -150.89,-213.93 -162.35,-357.65 -2.47,-30.94 -3.1,-85.24 1.19,-115.13 2.72,-18.96 4.8,-36.96 7.74,-52.26 3.42,-17.8 10.52,-35.58 10.89,-52.44 -11.64,-5.58 -23.42,-6.32 -36.67,-13.33 -15.11,31.49 -26.67,135.76 -26.67,176.67z"/>
   <polygon class="fil0" points="1270,3056.67 1340,3056.67 1340,2753.33 1270,2753.33 "/>
   <polygon class="fil0" points="1943.33,1750 1940,1750 1942.78,1753.89 "/>
   <polygon class="fil0" points="1560,2493.33 1560,2490 1556.11,2492.78 "/>
   <polygon class="fil0" points="1950,1746.67 1943.33,1750 "/>
   <polygon class="fil0" points="1563.33,2496.67 1560,2493.33 "/>
  </g>
 </g>
</svg>
