<?xml version="1.0" encoding="UTF-8"?>
<!DOCTYPE svg PUBLIC "-//W3C//DTD SVG 1.1//EN" "http://www.w3.org/Graphics/SVG/1.1/DTD/svg11.dtd">
<!-- Creator: CorelDRAW 2021 (64-Bit) -->
<svg xmlns="http://www.w3.org/2000/svg" xml:space="preserve" width="2.84002in" height="2.55275in" version="1.1" style="shape-rendering:geometricPrecision; text-rendering:geometricPrecision; image-rendering:optimizeQuality; fill-rule:evenodd; clip-rule:evenodd"
viewBox="0 0 2840.02 2552.74"
 xmlns:xlink="http://www.w3.org/1999/xlink"
 xmlns:xodm="http://www.corel.com/coreldraw/odm/2003">
 <defs>
  <style type="text/css">
   <![CDATA[
    .fil0 {fill:black}
    .fil2 {fill:#7E1919;fill-rule:nonzero}
    .fil1 {fill:#CC2929;fill-rule:nonzero}
    .fil5 {fill:#CC2929;fill-rule:nonzero}
    .fil4 {fill:white;fill-rule:nonzero}
    .fil3 {fill:black;fill-rule:nonzero;fill-opacity:0.380392}
   ]]>
  </style>
 </defs>
 <g id="Layer_x0020_1">
  <metadata id="CorelCorpID_0Corel-Layer"/>
  <g id="_1494953016880">
   <path class="fil0" d="M1739.45 1699.31c-25.3,38.28 -57.96,71.28 -95.97,96.94 -0.14,0.1 -0.29,0.19 -0.43,0.29 -0.53,0.36 -1.06,0.72 -1.59,1.07l-173.37 115.27c-55.07,36.62 -121.17,57.95 -192.24,57.95l-411.32 0 3.18 -2.11c-329.98,-21.19 -613.73,-214.85 -760.26,-492.27 -27.81,-52.42 -50.61,-107.79 -67.87,-165.61 -28.61,-95.71 -44.36,-196.71 -38.3,-296.08 0.05,-1.49 0.09,-3 0.18,-4.49 0.26,-6.96 0.52,-13.78 0.9,-20.74l0 -0.39c13.39,-234.76 114.09,-446.21 270.17,-602.29 43.56,-43.56 91.44,-82.81 142.93,-117.05l173.37 -115.27c3.98,-2.65 7.99,-5.25 12.02,-7.83 0.25,-0.16 0.5,-0.33 0.75,-0.49 6.04,-3.87 12.13,-7.67 18.26,-11.4 0.56,-0.34 1.11,-0.67 1.67,-1.01 5.78,-3.5 11.61,-6.94 17.47,-10.33 0.39,-0.22 0.78,-0.45 1.16,-0.67 135.88,-78.11 293.4,-122.81 461.36,-122.81l1738.49 0c0,114.1 -55,215.36 -139.91,278.76 -0.11,0.08 -0.22,0.16 -0.33,0.24 -4,2.98 -8.08,5.87 -12.21,8.69 -0.61,0.41 -1.2,0.83 -1.81,1.24 -0.39,0.28 -0.79,0.55 -1.19,0.82l-173.37 115.27c-55.07,36.62 -121.17,57.95 -192.24,57.95l-58.44 0 0 1391.42 -173.37 115.27 -347.7 0 0 -270.36zm-1043.18 -1185.06c-100.38,98.14 -165.2,232.52 -173.35,381.91 -0.13,1.16 -0.13,2.45 -0.13,3.73 -0.52,9.41 -0.78,18.93 -0.78,28.46 0,82.42 17.25,160.72 48.29,231.8 89.37,204.63 293.61,347.7 531.21,347.7l174.32 0c0,-0.21 0.01,-0.42 0.01,-0.63l0 -348.86 0.07 -0.05c-0.02,0 -0.05,0 -0.07,0l-231.8 0c-192,0 -347.7,-155.7 -347.7,-347.7l173.37 -115.27 579.5 0c121.28,0 228.02,62.16 290.24,156.31l0 -272.79c0,-64 -51.9,-115.9 -115.91,-115.9l-789.14 0c-35.39,4.18 -88.81,26.64 -138.13,51.28z"/>
  </g>
  <path class="fil1" d="M1796.91 1390.8l0 117.06c0,192.01 -155.69,347.7 -347.7,347.7l-411.32 0c7.86,0 15.59,-0.39 23.31,-0.9 -338.56,-14.43 -630.88,-210.42 -780.39,-493.48 -27.81,-52.42 -50.61,-107.79 -67.87,-165.61 -28.61,-95.71 -44.36,-196.71 -38.3,-296.08l0.01 -0.23 0 -0.03 0.01 -0.26 0.01 -0.27 0.01 -0.26 0.11 -2.64 0.02 -0.27 0 -0.26 0.02 -0.27c0.26,-6.96 0.52,-13.78 0.9,-20.74l0 -0.39c13.39,-234.76 114.09,-446.21 270.17,-602.29 167.8,-167.8 399.6,-271.59 655.61,-271.59l1506.69 0 231.8 0c0,192 -155.7,347.7 -347.7,347.7l-231.8 0 0 1506.69 -347.7 0 0 -1390.8c0,-64 -51.9,-115.9 -115.91,-115.9l-789.14 0c-75.2,8.88 -231.93,100.31 -257.43,119.76 -130.84,99.67 -217.89,253.94 -227.42,428.7 -0.13,1.16 -0.13,2.45 -0.13,3.73 -0.52,9.41 -0.78,18.93 -0.78,28.46 0,82.42 17.25,160.72 48.29,231.8 89.37,204.63 293.61,347.7 531.21,347.7l231.8 0c64,0 115.9,-51.9 115.9,-115.9l0 -348.86c174.01,0 318.18,127.86 343.69,294.75 -25.48,-166.92 -169.67,-294.8 -343.69,-294.8l-231.8 0c-192,0 -347.7,-155.7 -347.7,-347.7l579.5 0c192,0 347.7,155.69 347.7,347.7l0 347.69 0 0.05zm-1619.19 -526.4c4.58,-39.98 12.89,-79.56 25.54,-118.27 -12.48,37.91 -21.18,77.47 -25.54,118.27z"/>
  <path class="fil1" d="M1796.92 1043.05l0 347.7c0,-192.01 -155.7,-347.7 -347.7,-347.7l-231.8 0c-192.01,0 -347.7,-155.69 -347.7,-347.7l579.5 0c192,0 347.7,155.69 347.7,347.7z"/>
  <path class="fil2" d="M2840.02 0c0,192.01 -155.7,347.7 -347.7,347.7l-231.8 0c0,-192.01 155.69,-347.7 347.7,-347.7l231.8 0z"/>
  <path class="fil1" d="M2608.22 0c-192.01,0 -347.7,155.69 -347.7,347.7l0 1506.69 -347.7 0 0 -1390.8c0,-64 -51.9,-115.9 -115.9,-115.9l-1043.1 0c-59.37,0 -116.68,8.89 -170.63,25.63 -161.87,49.7 -293.49,168.57 -360.58,322.07 -23.57,54.09 -39.28,112.3 -45.33,173.21l0 0.39c-1.41,14.04 -2.31,28.33 -2.7,42.75 -0.13,-5.54 0,-11.07 0.26,-16.74 0.26,-6.95 0.52,-13.78 0.9,-20.73l0 -0.39c13.39,-234.76 114.1,-446.21 270.18,-602.29 167.8,-167.8 399.6,-271.59 655.61,-271.59l1506.69 0z"/>
  <path class="fil3" d="M1796.92 1390.8l0 117.06c0,192.01 -155.7,347.7 -347.7,347.7l-411.32 0c7.85,0 15.58,-0.39 23.31,-0.9 -338.55,-14.42 -630.88,-210.42 -780.39,-493.48 -27.82,-52.41 -50.61,-107.78 -67.87,-165.6 -46.62,-155.95 -59.11,-325.94 1.29,-480.08 2.7,-6.7 5.41,-13.39 8.37,-20.09 67.09,-153.5 198.7,-272.37 360.58,-322.07 53.96,-16.74 111.27,-25.63 170.63,-25.63l253.94 0c-75.2,8.89 -231.92,100.32 -257.42,119.76 -130.84,99.68 -217.89,253.95 -227.42,428.7 -0.13,1.16 -0.13,2.45 -0.13,3.73 -0.52,9.41 -0.78,18.93 -0.78,28.46 0,82.42 17.26,160.71 48.29,231.8 89.37,204.62 293.61,347.7 531.21,347.7l231.8 0c64,0 115.9,-51.9 115.9,-115.9l0 -348.86c192,0 347.7,155.69 347.7,347.7z"/>
  <path class="fil4" d="M1794.71 1044.07l0 347.7c0,-192.01 -155.7,-347.7 -347.7,-347.7l-231.8 0c-192,0 -347.7,-155.69 -347.7,-347.7l579.5 0c192,0 347.7,155.69 347.7,347.7z"/>
  <path class="fil4" d="M2837.81 1.02c0,192.01 -155.7,347.7 -347.7,347.7l-231.8 0c0,-192.01 155.69,-347.7 347.7,-347.7l231.8 0z"/>
  <path class="fil4" d="M2606.01 1.02c-192.01,0 -347.7,155.69 -347.7,347.7l0 1506.7 -347.7 0 0 -1390.8c0,-64 -51.9,-115.9 -115.9,-115.9l-1043.1 0c-59.37,0 -116.67,8.89 -170.63,25.63 -161.87,49.71 -293.48,168.57 -360.57,322.07 -23.57,54.09 -39.28,112.3 -45.33,173.21l0 0.39c-1.42,14.04 -2.32,28.33 -2.71,42.76 -0.13,-5.54 0,-11.08 0.26,-16.74 0.26,-6.95 0.52,-13.78 0.9,-20.73l0 -0.39c13.39,-234.76 114.1,-446.22 270.18,-602.29 167.8,-167.8 399.6,-271.59 655.61,-271.59l1506.69 0z"/>
  <path class="fil4" d="M1794.71 1391.82l0 117.06c0,192 -155.7,347.7 -347.7,347.7l-411.32 0c7.85,0 15.58,-0.39 23.31,-0.9 -338.56,-14.42 -630.89,-210.42 -780.4,-493.48 -27.82,-52.41 -50.61,-107.78 -67.87,-165.61 -46.62,-155.95 -59.11,-325.94 1.29,-480.08 2.71,-6.7 5.41,-13.39 8.37,-20.09 67.09,-153.5 198.7,-272.36 360.57,-322.07 53.96,-16.74 111.27,-25.63 170.63,-25.63l253.94 0c-75.2,8.89 -231.92,100.32 -257.42,119.77 -130.84,99.67 -217.89,253.94 -227.42,428.7 -0.13,1.16 -0.13,2.45 -0.13,3.74 -0.52,9.4 -0.77,18.93 -0.77,28.46 0,82.42 17.25,160.71 48.29,231.8 89.37,204.62 293.61,347.7 531.21,347.7l231.8 0c64,0 115.9,-51.9 115.9,-115.9l0 -348.86c192,0 347.7,155.69 347.7,347.7z"/>
  <path class="fil1" d="M1789.26 1049.04l0 347.7c0,-192.01 -155.7,-347.7 -347.7,-347.7l-231.8 0c-192.01,0 -347.7,-155.69 -347.7,-347.7l579.5 0c192,0 347.7,155.69 347.7,347.7z"/>
  <path class="fil2" d="M2832.36 5.99c0,192.01 -155.7,347.7 -347.7,347.7l-231.8 0c0,-192.01 155.69,-347.7 347.7,-347.7l231.8 0z"/>
  <path class="fil1" d="M2600.56 5.99c-192.01,0 -347.7,155.69 -347.7,347.7l0 1506.69 -347.7 0 0 -1390.79c0,-64 -51.9,-115.9 -115.9,-115.9l-1043.1 0c-59.37,0 -116.67,8.89 -170.63,25.63 -161.87,49.7 -293.48,168.57 -360.57,322.07 -23.57,54.09 -39.28,112.3 -45.33,173.21l0 0.39c-1.42,14.04 -2.32,28.33 -2.7,42.75 -0.13,-5.54 0,-11.07 0.26,-16.74 0.26,-6.95 0.52,-13.78 0.9,-20.73l0 -0.39c13.39,-234.76 114.1,-446.21 270.18,-602.29 167.8,-167.8 399.6,-271.59 655.61,-271.59l1506.7 0z"/>
  <path class="fil2" d="M1789.26 1396.79l0 117.06c0,192.01 -155.7,347.7 -347.7,347.7l-411.31 0c7.85,0 15.58,-0.39 23.31,-0.9 -338.55,-14.42 -630.88,-210.42 -780.4,-493.48 -27.81,-52.41 -50.61,-107.78 -67.86,-165.6 -46.62,-155.95 -59.11,-325.94 1.29,-480.08 2.7,-6.7 5.41,-13.39 8.37,-20.09 67.09,-153.5 198.7,-272.37 360.57,-322.07 53.96,-16.74 111.27,-25.63 170.63,-25.63l253.95 0c-75.2,8.89 -231.93,100.32 -257.42,119.76 -130.84,99.68 -217.89,253.95 -227.42,428.7 -0.13,1.16 -0.13,2.45 -0.13,3.74 -0.52,9.4 -0.78,18.93 -0.78,28.46 0,82.42 17.26,160.71 48.29,231.8 89.37,204.63 293.61,347.7 531.21,347.7l231.8 0c64,0 115.9,-51.9 115.9,-115.9l0 -348.86c192,0 347.7,155.69 347.7,347.7z"/>
  <path class="fil5" d="M350.17 2552.74c-17.56,0 -33.78,-2.94 -48.67,-8.83 -14.89,-5.89 -27.83,-14.17 -38.83,-24.83 -11,-10.67 -19.5,-23.17 -25.5,-37.5 -6,-14.33 -9,-30.06 -9,-47.17 0,-17.11 3,-32.83 9,-47.17 6,-14.33 14.56,-26.83 25.67,-37.5 11.11,-10.67 24.06,-18.94 38.83,-24.83 14.78,-5.89 31.06,-8.83 48.83,-8.83 16.89,0 32.56,2.67 47,8 14.44,5.33 26.78,13.33 37,24l-10.67 11.33c-10.22,-10 -21.39,-17.11 -33.5,-21.33 -12.11,-4.22 -25.28,-6.33 -39.5,-6.33 -15.11,0 -29.11,2.56 -42,7.67 -12.89,5.11 -24.11,12.33 -33.67,21.67 -9.56,9.33 -16.94,20.22 -22.17,32.67 -5.22,12.44 -7.83,26 -7.83,40.67 0,14.67 2.61,28.22 7.83,40.67 5.22,12.44 12.61,23.33 22.17,32.67 9.56,9.33 20.78,16.56 33.67,21.67 12.89,5.11 26.89,7.67 42,7.67 13.78,0 26.83,-2.11 39.17,-6.33 12.33,-4.22 23.61,-11.22 33.83,-21l9.67 13c-10.44,10 -22.94,17.5 -37.5,22.5 -14.56,5 -29.83,7.5 -45.83,7.5zm67 -31.67l0 -85.67 16.33 0 0 87.33 -16.33 -1.67z"/>
  <path id="_1" class="fil5" d="M573.51 2552.41c-17.56,0 -33.06,-3.78 -46.5,-11.33 -13.44,-7.56 -24,-18 -31.67,-31.33 -7.67,-13.33 -11.5,-28.56 -11.5,-45.67 0,-17.33 3.61,-32.61 10.83,-45.83 7.22,-13.22 17.17,-23.61 29.83,-31.17 12.67,-7.56 26.89,-11.33 42.67,-11.33 15.78,0 29.94,3.67 42.5,11 12.56,7.33 22.44,17.61 29.67,30.83 7.22,13.22 10.83,28.5 10.83,45.83 0,0.67 -0.06,1.39 -0.17,2.17 -0.11,0.78 -0.17,1.61 -0.17,2.5l-153.67 0 0 -13 144.67 0 -6.67 6.33c0.22,-13.56 -2.61,-25.72 -8.5,-36.5 -5.89,-10.78 -13.83,-19.22 -23.83,-25.33 -10,-6.11 -21.56,-9.17 -34.67,-9.17 -12.89,0 -24.39,3.06 -34.5,9.17 -10.11,6.11 -18.06,14.56 -23.83,25.33 -5.78,10.78 -8.67,23.06 -8.67,36.83l0 3c0,14.22 3.17,26.83 9.5,37.83 6.33,11 15.06,19.56 26.17,25.67 11.11,6.11 23.78,9.17 38,9.17 11.11,0 21.5,-2 31.17,-6 9.67,-4 17.83,-10.11 24.5,-18.33l9.67 11c-7.56,9.33 -17.06,16.39 -28.5,21.17 -11.44,4.78 -23.83,7.17 -37.17,7.17z"/>
  <path id="_2" class="fil5" d="M745.84 2552.41c-14.44,0 -27.94,-2.11 -40.5,-6.33 -12.56,-4.22 -22.28,-9.56 -29.17,-16l7.67 -13.33c6.67,5.78 15.56,10.72 26.67,14.83 11.11,4.11 23.11,6.17 36,6.17 18.22,0 31.33,-3 39.33,-9 8,-6 12,-13.89 12,-23.67 0,-7.11 -2.06,-12.72 -6.17,-16.83 -4.11,-4.11 -9.61,-7.28 -16.5,-9.5 -6.89,-2.22 -14.44,-4.06 -22.67,-5.5 -8.22,-1.44 -16.44,-3.06 -24.67,-4.83 -8.22,-1.78 -15.78,-4.33 -22.67,-7.67 -6.89,-3.33 -12.39,-7.94 -16.5,-13.83 -4.11,-5.89 -6.17,-13.72 -6.17,-23.5 0,-8.89 2.44,-16.89 7.33,-24 4.89,-7.11 12.22,-12.83 22,-17.17 9.78,-4.33 22,-6.5 36.67,-6.5 10.89,0 21.83,1.56 32.83,4.67 11,3.11 19.94,7.22 26.83,12.33l-7.67 13.33c-7.33,-5.56 -15.56,-9.56 -24.67,-12 -9.11,-2.44 -18.33,-3.67 -27.67,-3.67 -16.89,0 -29.28,3.11 -37.17,9.33 -7.89,6.22 -11.83,14 -11.83,23.33 0,7.33 2.06,13.17 6.17,17.5 4.11,4.33 9.61,7.67 16.5,10 6.89,2.33 14.44,4.22 22.67,5.67 8.22,1.44 16.44,3.06 24.67,4.83 8.22,1.78 15.78,4.28 22.67,7.5 6.89,3.22 12.39,7.67 16.5,13.33 4.11,5.67 6.17,13.28 6.17,22.83 0,9.56 -2.61,17.89 -7.83,25 -5.22,7.11 -12.94,12.67 -23.17,16.67 -10.22,4 -22.78,6 -37.67,6z"/>
  <path id="_3" class="fil5" d="M873.84 2503.08l0.33 -21 115 -105 21.33 0 -76.33 71.67 -10 8.33 -50.33 46zm-12.67 48l0 -247.33 16.67 0 0 247.33 -16.67 0zm136 0l-76 -95.33 11.33 -12.33 85.33 107.67 -20.67 0z"/>
  <path id="_4" class="fil5" d="M1120.84 2552.41c-17.56,0 -33.06,-3.78 -46.5,-11.33 -13.44,-7.56 -24,-18 -31.67,-31.33 -7.67,-13.33 -11.5,-28.56 -11.5,-45.67 0,-17.33 3.61,-32.61 10.83,-45.83 7.22,-13.22 17.17,-23.61 29.83,-31.17 12.67,-7.56 26.89,-11.33 42.67,-11.33 15.78,0 29.94,3.67 42.5,11 12.56,7.33 22.44,17.61 29.67,30.83 7.22,13.22 10.83,28.5 10.83,45.83 0,0.67 -0.06,1.39 -0.17,2.17 -0.11,0.78 -0.17,1.61 -0.17,2.5l-153.67 0 0 -13 144.67 0 -6.67 6.33c0.22,-13.56 -2.61,-25.72 -8.5,-36.5 -5.89,-10.78 -13.83,-19.22 -23.83,-25.33 -10,-6.11 -21.56,-9.17 -34.67,-9.17 -12.89,0 -24.39,3.06 -34.5,9.17 -10.11,6.11 -18.06,14.56 -23.83,25.33 -5.78,10.78 -8.67,23.06 -8.67,36.83l0 3c0,14.22 3.17,26.83 9.5,37.83 6.33,11 15.06,19.56 26.17,25.67 11.11,6.11 23.78,9.17 38,9.17 11.11,0 21.5,-2 31.17,-6 9.67,-4 17.83,-10.11 24.5,-18.33l9.67 11c-7.56,9.33 -17.06,16.39 -28.5,21.17 -11.44,4.78 -23.83,7.17 -37.17,7.17z"/>
  <polygon id="_5" class="fil5" points="1237.84,2469.08 1237.84,2454.08 1323.51,2454.08 1323.51,2469.08 "/>
  <polygon id="_6" class="fil5" points="1419.18,2551.08 1419.18,2333.08 1335.18,2333.08 1335.18,2317.74 1520.18,2317.74 1520.18,2333.08 1436.18,2333.08 1436.18,2551.08 "/>
  <path id="_7" class="fil5" d="M1609.17 2552.41c-17.56,0 -33.06,-3.78 -46.5,-11.33 -13.44,-7.56 -24,-18 -31.67,-31.33 -7.67,-13.33 -11.5,-28.56 -11.5,-45.67 0,-17.33 3.61,-32.61 10.83,-45.83 7.22,-13.22 17.17,-23.61 29.83,-31.17 12.67,-7.56 26.89,-11.33 42.67,-11.33 15.78,0 29.94,3.67 42.5,11 12.56,7.33 22.44,17.61 29.67,30.83 7.22,13.22 10.83,28.5 10.83,45.83 0,0.67 -0.06,1.39 -0.17,2.17 -0.11,0.78 -0.17,1.61 -0.17,2.5l-153.67 0 0 -13 144.67 0 -6.67 6.33c0.22,-13.56 -2.61,-25.72 -8.5,-36.5 -5.89,-10.78 -13.83,-19.22 -23.83,-25.33 -10,-6.11 -21.56,-9.17 -34.67,-9.17 -12.89,0 -24.39,3.06 -34.5,9.17 -10.11,6.11 -18.06,14.56 -23.83,25.33 -5.78,10.78 -8.67,23.06 -8.67,36.83l0 3c0,14.22 3.17,26.83 9.5,37.83 6.33,11 15.06,19.56 26.17,25.67 11.11,6.11 23.78,9.17 38,9.17 11.11,0 21.5,-2 31.17,-6 9.67,-4 17.83,-10.11 24.5,-18.33l9.67 11c-7.56,9.33 -17.06,16.39 -28.5,21.17 -11.44,4.78 -23.83,7.17 -37.17,7.17z"/>
  <path id="_8" class="fil5" d="M1806.51 2552.41c-16.89,0 -31.94,-3.78 -45.17,-11.33 -13.22,-7.56 -23.67,-18 -31.33,-31.33 -7.67,-13.33 -11.5,-28.56 -11.5,-45.67 0,-17.33 3.83,-32.67 11.5,-46 7.67,-13.33 18.11,-23.72 31.33,-31.17 13.22,-7.44 28.28,-11.17 45.17,-11.17 14,0 26.72,2.67 38.17,8 11.44,5.33 20.72,13.33 27.83,24l-12.33 9c-6.22,-8.89 -14,-15.44 -23.33,-19.67 -9.33,-4.22 -19.44,-6.33 -30.33,-6.33 -13.56,0 -25.72,3.06 -36.5,9.17 -10.78,6.11 -19.22,14.67 -25.33,25.67 -6.11,11 -9.17,23.83 -9.17,38.5 0,14.67 3.06,27.5 9.17,38.5 6.11,11 14.56,19.56 25.33,25.67 10.78,6.11 22.94,9.17 36.5,9.17 10.89,0 21,-2.11 30.33,-6.33 9.33,-4.22 17.11,-10.78 23.33,-19.67l12.33 9c-7.11,10.67 -16.39,18.67 -27.83,24 -11.44,5.33 -24.17,8 -38.17,8z"/>
  <path id="_9" class="fil5" d="M2004.51 2375.74c14.22,0 26.61,2.72 37.17,8.17 10.56,5.44 18.78,13.67 24.67,24.67 5.89,11 8.83,24.61 8.83,40.83l0 101.67 -16.67 0 0 -100.33c0,-19.56 -4.94,-34.44 -14.83,-44.67 -9.89,-10.22 -23.72,-15.33 -41.5,-15.33 -13.56,0 -25.33,2.78 -35.33,8.33 -10,5.56 -17.61,13.33 -22.83,23.33 -5.22,10 -7.83,22 -7.83,36l0 92.67 -16.67 0 0 -247.33 16.67 0 0 121.67 -3 -5.33c5.33,-13.78 14.11,-24.61 26.33,-32.5 12.22,-7.89 27.22,-11.83 45,-11.83z"/>
  <path id="_10" class="fil5" d="M2228.84 2375.74c14.22,0 26.61,2.72 37.17,8.17 10.56,5.44 18.78,13.67 24.67,24.67 5.89,11 8.83,24.61 8.83,40.83l0 101.67 -16.67 0 0 -100.33c0,-19.56 -4.94,-34.44 -14.83,-44.67 -9.89,-10.22 -23.72,-15.33 -41.5,-15.33 -13.56,0 -25.33,2.78 -35.33,8.33 -10,5.56 -17.61,13.33 -22.83,23.33 -5.22,10 -7.83,22 -7.83,36l0 92.67 -16.67 0 0 -174 16 0 0 48.33 -2.33 -5.33c5.33,-13.78 14.11,-24.61 26.33,-32.5 12.22,-7.89 27.22,-11.83 45,-11.83z"/>
  <path id="_11" class="fil5" d="M2368.18 2551.08l0 -174 16.67 0 0 174 -16.67 0zm8.33 -216.33c-3.78,0 -7,-1.33 -9.67,-4 -2.67,-2.67 -4,-5.78 -4,-9.33 0,-3.78 1.33,-7 4,-9.67 2.67,-2.67 5.89,-4 9.67,-4 4,0 7.28,1.28 9.83,3.83 2.56,2.56 3.83,5.72 3.83,9.5 0,3.78 -1.28,7 -3.83,9.67 -2.56,2.67 -5.83,4 -9.83,4z"/>
  <path id="_12" class="fil5" d="M2467.84 2503.08l0.33 -21 115 -105 21.33 0 -76.33 71.67 -10 8.33 -50.33 46zm-12.67 48l0 -247.33 16.67 0 0 247.33 -16.67 0zm136 0l-76 -95.33 11.33 -12.33 85.33 107.67 -20.67 0z"/>
 </g>
</svg>
