<?xml version="1.0" encoding="UTF-8"?>
<!DOCTYPE svg PUBLIC "-//W3C//DTD SVG 1.1//EN" "http://www.w3.org/Graphics/SVG/1.1/DTD/svg11.dtd">
<!-- Creator: CorelDRAW 2021 (64-Bit) -->
<svg xmlns="http://www.w3.org/2000/svg" xml:space="preserve" width="862px" height="852px" version="1.1" style="shape-rendering:geometricPrecision; text-rendering:geometricPrecision; image-rendering:optimizeQuality; fill-rule:evenodd; clip-rule:evenodd"
viewBox="0 0 233.57 230.79"
 xmlns:xlink="http://www.w3.org/1999/xlink"
 xmlns:xodm="http://www.corel.com/coreldraw/odm/2003">
 <defs>
  <style type="text/css">
   <![CDATA[
    .str1 {stroke:#29176D;stroke-width:3.39;stroke-miterlimit:22.9256}
    .str0 {stroke:#29176D;stroke-width:3.39;stroke-linecap:round;stroke-linejoin:round;stroke-miterlimit:22.9256}
    .str4 {stroke:#29176D;stroke-width:0.64;stroke-linecap:round;stroke-linejoin:round;stroke-miterlimit:22.9256}
    .str5 {stroke:white;stroke-width:0.64;stroke-linecap:round;stroke-linejoin:round;stroke-miterlimit:22.9256}
    .str3 {stroke:#29176D;stroke-width:2.26;stroke-miterlimit:10}
    .str2 {stroke:#29176D;stroke-width:2.26;stroke-miterlimit:10}
    .fil2 {fill:none}
    .fil5 {fill:#29176D}
    .fil0 {fill:#FEFEFE}
    .fil4 {fill:#29176D;fill-rule:nonzero}
    .fil1 {fill:#FEFEFE;fill-rule:nonzero}
    .fil3 {fill:white;fill-rule:nonzero}
   ]]>
  </style>
    <clipPath id="id0">
     <path d="M71.55 21.57c-4.83,0 -10.09,-0.66 -13.92,-1.94 -7.03,-2.35 -9.24,-4.86 -10.17,-5.11 0,4.3 -0.59,9.74 -0.59,15.57 0,18.46 4.34,45.7 11.46,63.45l2.74 6.36c0.41,0.86 0.57,1.41 0.98,2.26 6.9,14.39 17.66,28.73 29.54,39.2 3.66,3.21 5.51,5.23 10.13,8.67 2.78,2.08 12.44,9.33 15.07,10.2l3.4 -2.18c3.08,-1.88 7.85,-5.44 10.83,-7.68l6.62 -5.42c3.31,-2.53 9.17,-8.58 12.42,-11.96 0.67,-0.69 0.73,-0.95 1.32,-1.62 18.91,-21.28 28.7,-45.54 32.66,-74.56 2.18,-15.9 2.08,-18.7 2.08,-34.06 0,-3.25 -0.59,-5.92 -0.59,-8.23 -1.42,0.38 -7.08,7.05 -23.8,7.05 -9.73,0 -20.2,-2.28 -26.83,-5.48 -1.91,-0.92 -3.47,-1.74 -5.17,-2.76l-4.92 -3.3c-1.82,-1.48 -6.9,-5.72 -8.02,-7.85 -1.18,0.52 -0.05,-0.1 -0.68,0.44l-1.45 1.55c-0.76,0.87 -0.98,1.39 -1.91,2.2 -12.04,10.47 -24.91,15.2 -41.2,15.2z"/>
    </clipPath>
 </defs>
 <g id="Layer_x0020_1">
  <metadata id="CorelCorpID_0Corel-Layer"/>
  <g id="_1494953268240">
   <path class="fil0" d="M71.55 21.57c-4.83,0 -10.09,-0.66 -13.92,-1.94 -7.03,-2.35 -9.24,-4.86 -10.17,-5.11 0,4.3 -0.59,9.74 -0.59,15.57 0,18.46 4.34,45.7 11.46,63.45l2.74 6.36c0.41,0.86 0.57,1.41 0.98,2.26 6.9,14.39 17.66,28.73 29.54,39.2 3.66,3.21 5.51,5.23 10.13,8.67 2.78,2.08 12.44,9.33 15.07,10.2l3.4 -2.18c3.08,-1.88 7.85,-5.44 10.83,-7.68l6.62 -5.42c3.31,-2.53 9.17,-8.58 12.42,-11.96 0.67,-0.69 0.73,-0.95 1.32,-1.62 18.91,-21.28 28.7,-45.54 32.66,-74.56 2.18,-15.9 2.08,-18.7 2.08,-34.06 0,-3.25 -0.59,-5.92 -0.59,-8.23 -1.42,0.38 -7.08,7.05 -23.8,7.05 -9.73,0 -20.2,-2.28 -26.83,-5.48 -1.91,-0.92 -3.47,-1.74 -5.17,-2.76l-4.92 -3.3c-1.82,-1.48 -6.9,-5.72 -8.02,-7.85 -1.18,0.52 -0.05,-0.1 -0.68,0.44l-1.45 1.55c-0.76,0.87 -0.98,1.39 -1.91,2.2 -12.04,10.47 -24.91,15.2 -41.2,15.2z"/>
   <g style="clip-path:url(#id0)">
    <g>
     <path id="_1" class="fil1 str0" d="M107.65 165.91l17.69 0 0 -79.57 79.56 0 0 -17.68 -79.56 0 0 -79.57 -17.69 0 0 79.57 -79.57 0 0 17.68 79.57 0 0 79.57zm8.84 0m8.85 -39.78m39.78 -39.79m39.78 -8.84m-39.78 -8.84m-39.78 -39.78m-8.85 -39.79m-8.84 39.79m-39.78 39.78m-39.79 8.84m39.79 8.84m39.78 39.79"/>
    </g>
   </g>
   <path class="fil2 str1" d="M71.55 21.57c-4.83,0 -10.09,-0.66 -13.92,-1.94 -7.03,-2.35 -9.24,-4.86 -10.17,-5.11 0,4.3 -0.59,9.74 -0.59,15.57 0,18.46 4.34,45.7 11.46,63.45l2.74 6.36c0.41,0.86 0.57,1.41 0.98,2.26 6.9,14.39 17.66,28.73 29.54,39.2 3.66,3.21 5.51,5.23 10.13,8.67 2.78,2.08 12.44,9.33 15.07,10.2l3.4 -2.18c3.08,-1.88 7.85,-5.44 10.83,-7.68l6.62 -5.42c3.31,-2.53 9.17,-8.58 12.42,-11.96 0.67,-0.69 0.73,-0.95 1.32,-1.62 18.91,-21.28 28.7,-45.54 32.66,-74.56 2.18,-15.9 2.08,-18.7 2.08,-34.06 0,-3.25 -0.59,-5.92 -0.59,-8.23 -1.42,0.38 -7.08,7.05 -23.8,7.05 -9.73,0 -20.2,-2.28 -26.83,-5.48 -1.91,-0.92 -3.47,-1.74 -5.17,-2.76l-4.92 -3.3c-1.82,-1.48 -6.9,-5.72 -8.02,-7.85 -1.18,0.52 -0.05,-0.1 -0.68,0.44l-1.45 1.55c-0.76,0.87 -0.98,1.39 -1.91,2.2 -12.04,10.47 -24.91,15.2 -41.2,15.2z"/>
   <path class="fil3 str2" d="M70.32 129.96c-0.03,0 -0.05,0 -0.08,0 -0.04,0 -0.08,0 -0.11,0.01l0 0c-1.45,0.08 -2.71,1.06 -3.13,2.46l-0.01 0.05c2.43,0.78 4.88,1.5 7.34,2.17l1.36 -4.54 -5.29 -0.15 0 0c0,0 -0.01,0 -0.01,0 -0.02,0 -0.04,0 -0.06,0 0,0 -0.01,0 -0.01,0z"/>
   <path class="fil3" d="M66.1 132.06c0.62,-1.74 2.28,-2.93 4.14,-2.93l0.07 0 2.39 0.04 -19.47 -5.57 2.29 12.22 -8.4 9.17 13.5 3.86 5.46 -16.8 0.02 0.01z"/>
   <path class="fil4" d="M65.51 130.69c0.4,-0.66 0.93,-1.23 1.55,-1.67 0.1,-0.07 0.2,-0.14 0.3,-0.2l-12.69 -3.63 2.06 10.98 -7.55 8.23 10.7 3.06 5.47 -16.82 0.16 0.05zm2.85 0.17c-0.54,0.38 -0.96,0.93 -1.19,1.58l-0.36 1.03 -5.45 16.76 -16.31 -4.66 9.25 -10.09 -2.52 -13.46 25.42 7c-3.65,-0.05 -3.31,1.26 -6.96,1.24l0 0.01c-0.69,0 -1.35,0.21 -1.88,0.59z"/>
   <path class="fil3 str3" d="M163.17 129.83c0.03,0 0.05,0 0.08,0 0.04,0 0.08,0.01 0.12,0.01l0 0c1.44,0.08 2.7,1.06 3.12,2.46l0.01 0.05c-2.43,0.78 -4.88,1.5 -7.34,2.17l-1.36 -4.54 5.29 -0.15 0 0c0,0 0.01,0 0.01,0 0.02,0 0.04,0 0.06,0 0.01,0 0.01,0 0.01,0z"/>
   <path class="fil3" d="M177.93 135.4l2.12 -12.25 -19.39 5.82 2.39 -0.06c0.04,0 0.08,-0.01 0.12,-0.01 1.93,0 3.65,1.28 4.21,3.13l0.01 0.04 0.04 -0.02 5.36 16.5 13.66 -4.1 -8.52 -9.05z"/>
   <path class="fil4" d="M176.81 135.21l1.82 -10.45 -12.64 3.79c0.16,0.1 0.32,0.21 0.47,0.32 0.64,0.47 1.18,1.09 1.57,1.8l0.13 -0.04 5.37 16.52 10.84 -3.26 -7.65 -8.13 0.09 -0.55zm4.36 -11.87l-2.03 11.7 9.38 9.97 -16.46 4.94 -5.35 -16.48 -0.08 0.03 -0.34 -1.14c-0.2,-0.69 -0.62,-1.27 -1.17,-1.68 -0.55,-0.41 -1.23,-0.64 -1.95,-0.64l0 -0.01c-3.66,0.06 -3.18,-1.25 -6.84,-1.15l25.15 -7.34 -0.31 1.8z"/>
   <path class="fil3 str3" d="M116.77 141.08c0.92,0 1.84,-0.01 2.76,-0.03 0.14,0 0.28,0 0.42,0 0.86,-0.02 1.72,-0.05 2.57,-0.08 0.21,0 0.41,-0.01 0.62,-0.02 0.46,-0.01 0.93,-0.04 1.4,-0.06 0.6,-0.03 1.2,-0.06 1.8,-0.09 0.07,-0.01 0.15,-0.01 0.22,-0.02 13.68,-0.82 27.19,-3.35 40.28,-7.56l6.87 21.15c-18.43,5.94 -37.59,8.95 -56.96,8.95 -19.36,0 -38.52,-3.01 -56.95,-8.95l6.87 -21.15c16.21,5.21 33.06,7.86 50.08,7.86l0.02 0z"/>
   <polygon class="fil4" points="101.6,82.36 101.58,73.08 99,73.08 96.06,78.03 93.04,73.08 90.47,73.08 90.47,82.36 93.32,82.36 93.32,78.28 95.33,81.53 96.71,81.53 98.73,78.13 98.75,82.36 "/>
   <path id="_1_0" class="fil4" d="M119.07 79.82c-0.38,0.16 -0.75,0.22 -1.14,0.22 -1.34,0 -2.21,-0.93 -2.21,-2.32 0,-1.43 0.87,-2.32 2.25,-2.32 0.82,0 1.5,0.35 2.08,1.02l2 -1.76c-0.94,-1.15 -2.41,-1.79 -4.24,-1.79 -3.06,0 -5.25,2 -5.25,4.85 0,2.85 2.19,4.85 5.19,4.85 1.36,0 2.91,-0.41 4.04,-1.18l0 -3.92 -2.72 0 0 2.35z"/>
   <path id="_2" class="fil4" d="M136.41 82.57c2.87,0 4.32,-1.43 4.32,-3.12 0,-3.43 -5.13,-2.5 -5.13,-3.61 0,-0.32 0.29,-0.58 1.2,-0.58 0.81,0 1.68,0.22 2.59,0.69l0.94 -2.27c-0.97,-0.54 -2.25,-0.81 -3.5,-0.81 -2.88,0 -4.32,1.41 -4.32,3.13 0,3.46 5.13,2.52 5.13,3.68 0,0.32 -0.32,0.51 -1.21,0.51 -1.02,0 -2.18,-0.33 -3.06,-0.85l-1.01 2.28c0.93,0.57 2.5,0.95 4.05,0.95z"/>
   <polygon class="fil4" points="122.3,63.9 122.28,54.62 119.71,54.62 116.76,59.57 113.74,54.62 111.17,54.62 111.17,63.9 114.02,63.9 114.02,59.82 116.03,63.07 117.41,63.07 119.43,59.67 119.45,63.9 "/>
   <path class="fil4" d="M116.6 103.39c2.88,0 4.32,-1.43 4.32,-3.13 0,-3.42 -5.13,-2.49 -5.13,-3.6 0,-0.32 0.29,-0.59 1.21,-0.59 0.8,0 1.67,0.23 2.58,0.69l0.94 -2.26c-0.97,-0.55 -2.25,-0.81 -3.5,-0.81 -2.87,0 -4.32,1.4 -4.32,3.13 0,3.46 5.13,2.51 5.13,3.68 0,0.32 -0.32,0.51 -1.21,0.51 -1.02,0 -2.18,-0.34 -3.06,-0.85l-1 2.28c0.92,0.57 2.49,0.95 4.04,0.95z"/>
   <path class="fil4" d="M75.87 147.77l-1.23 1.7c-0.61,0.84 -1.06,1.41 -1.36,1.71 -0.29,0.3 -0.63,0.54 -1.01,0.71 -0.55,0.25 -1.13,0.3 -1.74,0.15 -0.64,-0.16 -1.11,-0.49 -1.41,-1 -0.29,-0.5 -0.36,-1.08 -0.2,-1.73 0.21,-0.86 0.71,-1.54 1.51,-2.04 0.43,-0.26 0.92,-0.44 1.49,-0.52 0.56,-0.09 1.1,-0.07 1.6,0.05 0.25,0.06 0.43,0.16 0.55,0.31 0.12,0.15 0.16,0.31 0.11,0.48 -0.04,0.19 -0.16,0.32 -0.35,0.4 -0.11,0.04 -0.3,0.04 -0.56,0.01 -0.62,-0.1 -1.15,-0.08 -1.58,0.05 -0.36,0.11 -0.67,0.29 -0.93,0.55 -0.25,0.26 -0.42,0.56 -0.51,0.89 -0.08,0.34 -0.06,0.64 0.07,0.88 0.12,0.25 0.34,0.4 0.63,0.48 0.38,0.09 0.74,0.01 1.09,-0.24 0.35,-0.24 0.79,-0.73 1.32,-1.46l2.57 -3.54 -0.5 -0.12c-0.43,-0.1 -0.6,-0.3 -0.53,-0.6 0.05,-0.21 0.17,-0.35 0.35,-0.43 0.17,-0.08 0.4,-0.09 0.67,-0.02l1.75 0.43c0.59,0.15 0.99,0.37 1.22,0.66 0.23,0.29 0.28,0.67 0.16,1.14 -0.13,0.56 -0.47,0.97 -0.99,1.23 -0.38,0.18 -0.9,0.19 -1.56,0.03l-0.63 -0.16zm0.72 -0.99l0.37 0.09c0.49,0.12 0.79,-0.02 0.89,-0.42 0.05,-0.23 -0.06,-0.37 -0.34,-0.44l-0.31 -0.08 -0.61 0.85zm2.18 2.22l-0.23 0.36c-0.21,0.32 -0.43,0.46 -0.66,0.42 -0.14,-0.03 -0.25,-0.09 -0.32,-0.19 -0.08,-0.1 -0.11,-0.22 -0.08,-0.34 0.01,-0.07 0.07,-0.19 0.17,-0.35l0.77 -1.2c0.19,-0.29 0.4,-0.41 0.63,-0.37 0.23,0.05 0.35,0.18 0.36,0.41l0.01 0.15c0.01,0.08 0.03,0.13 0.06,0.16 0.03,0.02 0.12,0.05 0.27,0.08l1.09 0.21c0.4,0.07 0.58,0.26 0.52,0.54 -0.07,0.4 -0.37,0.54 -0.88,0.45l-0.06 0.03c-0.58,0.39 -0.89,0.71 -0.94,0.96 -0.05,0.26 0.06,0.42 0.34,0.47l0.59 0.11c0.4,0.08 0.57,0.26 0.52,0.53 -0.04,0.19 -0.14,0.32 -0.29,0.4 -0.16,0.08 -0.37,0.1 -0.62,0.05l-0.91 -0.18c-0.31,-0.05 -0.54,-0.21 -0.7,-0.46 -0.15,-0.25 -0.2,-0.55 -0.13,-0.89 0.04,-0.22 0.13,-0.42 0.28,-0.61 0.14,-0.18 0.37,-0.4 0.7,-0.65l-0.49 -0.09zm5 -0.18c0.45,0.08 0.8,0.29 1.04,0.62 0.25,0.34 0.33,0.73 0.25,1.17 -0.05,0.33 -0.18,0.65 -0.39,0.95 -0.21,0.3 -0.45,0.53 -0.73,0.69 -0.18,0.1 -0.37,0.16 -0.55,0.18 -0.18,0.02 -0.42,0 -0.74,-0.05 -0.5,-0.09 -0.84,-0.21 -0.99,-0.36 -0.37,-0.36 -0.51,-0.82 -0.41,-1.38 0.1,-0.59 0.4,-1.07 0.9,-1.43 0.5,-0.36 1.04,-0.49 1.62,-0.39zm-0.28 0.98c-0.23,-0.04 -0.46,0.04 -0.69,0.23 -0.22,0.2 -0.36,0.43 -0.41,0.71 -0.06,0.36 0.11,0.58 0.52,0.64 0.23,0.04 0.42,0 0.58,-0.12 0.25,-0.21 0.4,-0.46 0.45,-0.77 0.03,-0.18 0.01,-0.33 -0.08,-0.46 -0.08,-0.13 -0.21,-0.2 -0.37,-0.23zm12.74 -0.64l-2.04 3.47c-0.34,0.58 -0.71,0.99 -1.1,1.22 -0.39,0.23 -0.85,0.31 -1.36,0.23 -0.49,-0.07 -0.89,-0.28 -1.19,-0.63 -0.29,-0.35 -0.41,-0.74 -0.34,-1.17 0.05,-0.33 0.21,-0.72 0.49,-1.19l0.68 -1.17c0.26,-0.44 0.4,-0.74 0.43,-0.91 0.02,-0.16 -0.02,-0.3 -0.14,-0.43 -0.12,-0.12 -0.27,-0.2 -0.46,-0.23 -0.31,-0.04 -0.61,0.05 -0.9,0.28 -0.29,0.23 -0.46,0.51 -0.51,0.84 -0.03,0.19 -0.01,0.35 0.06,0.47 0.07,0.12 0.21,0.24 0.42,0.36 0.22,0.12 0.31,0.29 0.28,0.49 -0.02,0.17 -0.11,0.31 -0.26,0.41 -0.15,0.09 -0.33,0.13 -0.53,0.1 -0.4,-0.06 -0.71,-0.27 -0.94,-0.64 -0.24,-0.38 -0.32,-0.8 -0.25,-1.26 0.1,-0.68 0.45,-1.24 1.03,-1.67 0.59,-0.44 1.23,-0.6 1.91,-0.5 0.52,0.08 0.93,0.29 1.23,0.65 0.29,0.35 0.41,0.76 0.34,1.22 -0.04,0.3 -0.18,0.64 -0.4,1.02l-0.97 1.65c-0.14,0.24 -0.23,0.43 -0.25,0.58 -0.02,0.16 0.01,0.3 0.1,0.41 0.09,0.11 0.22,0.18 0.39,0.21 0.22,0.03 0.41,-0.02 0.57,-0.14 0.16,-0.13 0.35,-0.37 0.56,-0.73l2.1 -3.58c0.15,-0.26 0.29,-0.42 0.42,-0.48 0.13,-0.06 0.34,-0.07 0.62,-0.03l1.02 0.15c0.43,0.07 0.62,0.24 0.57,0.54 -0.03,0.22 -0.13,0.38 -0.29,0.47 -0.17,0.1 -0.39,0.13 -0.66,0.08l-0.63 -0.09zm2.92 4.53l0.56 0.07c0.4,0.04 0.58,0.2 0.55,0.48 -0.02,0.19 -0.11,0.33 -0.26,0.42 -0.16,0.09 -0.36,0.12 -0.6,0.09l-0.99 -0.11c-0.19,-0.02 -0.35,-0.1 -0.47,-0.23 -0.11,-0.13 -0.16,-0.29 -0.14,-0.46 0.01,-0.11 0.08,-0.26 0.19,-0.47l0.54 -0.98c0.06,-0.1 0.09,-0.18 0.1,-0.25 0.01,-0.07 -0.01,-0.14 -0.07,-0.2 -0.05,-0.06 -0.13,-0.1 -0.23,-0.11 -0.33,-0.04 -0.62,0.18 -0.87,0.64l-0.72 1.3c-0.22,0.4 -0.49,0.58 -0.82,0.54 -0.14,-0.02 -0.25,-0.07 -0.33,-0.16 -0.09,-0.1 -0.12,-0.2 -0.11,-0.32 0.01,-0.09 0.05,-0.19 0.12,-0.31l0.06 -0.12 1.23 -2.24c0.16,-0.29 0.38,-0.42 0.68,-0.39 0.24,0.03 0.4,0.16 0.48,0.39 0.37,-0.22 0.7,-0.31 1.01,-0.27 0.29,0.03 0.53,0.15 0.7,0.34 0.17,0.19 0.24,0.42 0.21,0.68 -0.02,0.14 -0.07,0.3 -0.16,0.46l-0.66 1.21zm3.15 0.29l0.53 0.05c0.39,0.04 0.58,0.2 0.55,0.48 -0.02,0.19 -0.1,0.33 -0.25,0.42 -0.15,0.1 -0.35,0.13 -0.6,0.11l-0.75 -0.08c-0.28,-0.02 -0.49,-0.1 -0.64,-0.23 -0.15,-0.13 -0.21,-0.29 -0.19,-0.48 0.01,-0.11 0.05,-0.24 0.14,-0.39l0.96 -1.85 0.06 -0.12c0.18,-0.35 0.43,-0.5 0.75,-0.47 0.14,0.01 0.25,0.07 0.34,0.16 0.08,0.1 0.12,0.21 0.11,0.34 -0.01,0.1 -0.07,0.25 -0.17,0.45l-0.84 1.61zm1.01 -4.04c0.19,0.02 0.34,0.1 0.45,0.24 0.12,0.14 0.17,0.3 0.15,0.48 -0.02,0.18 -0.1,0.33 -0.24,0.45 -0.14,0.11 -0.3,0.16 -0.48,0.15 -0.19,-0.02 -0.34,-0.1 -0.45,-0.24 -0.12,-0.14 -0.16,-0.3 -0.15,-0.49 0.02,-0.18 0.1,-0.33 0.24,-0.44 0.14,-0.12 0.3,-0.17 0.48,-0.15zm2.85 1.78l0.14 0.01c0.4,0.03 0.59,0.18 0.57,0.47 -0.01,0.19 -0.1,0.34 -0.25,0.43 -0.15,0.1 -0.34,0.14 -0.59,0.12l-0.35 -0.03 -0.75 1.52 0.53 0.04c0.4,0.03 0.59,0.18 0.56,0.46 -0.01,0.19 -0.09,0.34 -0.24,0.43 -0.15,0.1 -0.35,0.14 -0.6,0.12l-0.84 -0.07c-0.24,-0.02 -0.43,-0.08 -0.56,-0.21 -0.13,-0.12 -0.19,-0.27 -0.18,-0.46 0.01,-0.12 0.05,-0.24 0.12,-0.38l0.1 -0.2 0.67 -1.34 -0.08 0c-0.35,-0.03 -0.52,-0.18 -0.5,-0.46 0.02,-0.19 0.1,-0.34 0.25,-0.44 0.15,-0.1 0.35,-0.14 0.6,-0.12l0.22 0.02 0.3 -0.6 0.06 -0.12c0.17,-0.34 0.42,-0.5 0.74,-0.47 0.13,0.01 0.24,0.06 0.32,0.15 0.09,0.09 0.13,0.2 0.12,0.33 -0.01,0.12 -0.06,0.26 -0.16,0.44l-0.2 0.36zm3.58 2.82l0.52 0.04c0.4,0.02 0.59,0.17 0.57,0.45 -0.01,0.19 -0.09,0.34 -0.24,0.44 -0.15,0.09 -0.35,0.14 -0.6,0.12l-0.61 -0.04c-0.27,-0.02 -0.45,-0.14 -0.53,-0.36 -0.25,0.2 -0.49,0.29 -0.71,0.28l-0.54 -0.04c-0.34,-0.02 -0.62,-0.17 -0.81,-0.43 -0.2,-0.26 -0.29,-0.59 -0.26,-0.99 0.04,-0.61 0.29,-1.13 0.74,-1.58 0.45,-0.45 0.94,-0.66 1.46,-0.62 0.41,0.02 0.69,0.18 0.86,0.47 0.18,-0.23 0.39,-0.33 0.65,-0.31 0.14,0 0.25,0.06 0.34,0.15 0.08,0.1 0.12,0.21 0.11,0.34 0,0.09 -0.03,0.19 -0.09,0.31l-0.06 0.13 -0.8 1.64zm-1.72 -0.1l0.12 0.01c0.26,0.02 0.44,-0.07 0.54,-0.28l0.39 -0.8c0.05,-0.1 0.08,-0.19 0.08,-0.26 0.01,-0.09 -0.03,-0.17 -0.11,-0.23 -0.08,-0.07 -0.18,-0.11 -0.29,-0.12 -0.24,-0.01 -0.47,0.1 -0.71,0.36 -0.24,0.25 -0.36,0.52 -0.38,0.81 -0.03,0.33 0.1,0.5 0.36,0.51zm5.5 -2.33l0.14 0.01c0.4,0.02 0.6,0.17 0.58,0.45 -0.01,0.2 -0.08,0.34 -0.23,0.45 -0.15,0.1 -0.34,0.14 -0.59,0.13l-0.35 -0.02 -0.71 1.54 0.53 0.02c0.4,0.02 0.6,0.17 0.58,0.45 -0.01,0.19 -0.08,0.34 -0.23,0.44 -0.14,0.1 -0.34,0.14 -0.59,0.13l-0.85 -0.04c-0.24,-0.01 -0.43,-0.07 -0.56,-0.19 -0.14,-0.12 -0.2,-0.27 -0.19,-0.46 0,-0.12 0.04,-0.25 0.1,-0.39l0.1 -0.2 0.62 -1.35 -0.07 0c-0.36,-0.02 -0.53,-0.17 -0.52,-0.44 0.01,-0.2 0.09,-0.35 0.24,-0.45 0.15,-0.11 0.35,-0.15 0.6,-0.14l0.22 0.01 0.28 -0.61 0.06 -0.12c0.16,-0.35 0.4,-0.51 0.72,-0.49 0.13,0 0.24,0.05 0.33,0.14 0.09,0.09 0.13,0.2 0.13,0.32 -0.01,0.12 -0.06,0.27 -0.15,0.45l-0.19 0.36zm1.56 2.25c-0.01,0.24 0.17,0.37 0.52,0.38l1.41 0.03c0.4,0.01 0.6,0.16 0.59,0.44 -0.01,0.19 -0.08,0.34 -0.22,0.44 -0.15,0.1 -0.35,0.15 -0.6,0.15l-1.34 -0.04c-0.5,-0.01 -0.88,-0.14 -1.14,-0.4 -0.25,-0.25 -0.37,-0.61 -0.36,-1.09 0.02,-0.61 0.24,-1.13 0.66,-1.56 0.42,-0.43 0.92,-0.64 1.49,-0.62 0.41,0.01 0.74,0.12 0.99,0.34 0.24,0.23 0.36,0.52 0.35,0.87 -0.01,0.43 -0.19,0.74 -0.54,0.93 -0.2,0.12 -0.48,0.17 -0.87,0.16l-0.94 -0.03zm0.25 -0.86l0.52 0.02c0.33,0.01 0.5,-0.06 0.5,-0.21 -0.01,-0.16 -0.12,-0.25 -0.33,-0.25 -0.29,-0.01 -0.52,0.14 -0.69,0.44zm5.99 0.91c0,0.24 0.18,0.36 0.54,0.36l1.41 -0.01c0.4,0 0.6,0.14 0.6,0.42 0,0.19 -0.07,0.34 -0.21,0.45 -0.14,0.1 -0.34,0.16 -0.59,0.16l-1.34 0.01c-0.5,0 -0.88,-0.12 -1.15,-0.37 -0.26,-0.24 -0.39,-0.6 -0.4,-1.08 0,-0.6 0.2,-1.13 0.62,-1.58 0.41,-0.44 0.9,-0.66 1.47,-0.67 0.41,0 0.74,0.11 1,0.32 0.25,0.22 0.38,0.5 0.38,0.86 0,0.42 -0.17,0.74 -0.52,0.95 -0.19,0.11 -0.48,0.17 -0.86,0.18l-0.95 0zm0.23 -0.87l0.52 0c0.34,0 0.5,-0.07 0.49,-0.22 -0.01,-0.16 -0.12,-0.25 -0.33,-0.24 -0.29,0 -0.52,0.15 -0.68,0.46zm4.78 -1.44l0.15 0c0.4,-0.01 0.6,0.13 0.61,0.41 0,0.19 -0.06,0.35 -0.2,0.46 -0.14,0.11 -0.34,0.17 -0.59,0.17l-0.34 0.01 -0.6 1.58 0.53 -0.01c0.4,-0.01 0.61,0.13 0.61,0.41 0.01,0.19 -0.06,0.34 -0.2,0.45 -0.13,0.11 -0.33,0.17 -0.58,0.17l-0.85 0.02c-0.24,0.01 -0.43,-0.04 -0.57,-0.15 -0.15,-0.1 -0.22,-0.25 -0.22,-0.44 -0.01,-0.12 0.02,-0.25 0.07,-0.39l0.09 -0.21 0.52 -1.4 -0.07 0.01c-0.36,0 -0.54,-0.13 -0.55,-0.41 0,-0.19 0.06,-0.35 0.2,-0.46 0.14,-0.11 0.34,-0.17 0.59,-0.18l0.22 -0.01 0.24 -0.62 0.05 -0.13c0.13,-0.35 0.36,-0.53 0.69,-0.54 0.12,-0.01 0.24,0.03 0.33,0.12 0.1,0.08 0.15,0.19 0.15,0.31 0,0.12 -0.04,0.27 -0.11,0.46l-0.17 0.37zm6.57 -2.15l0.52 0.48 0.29 0.26c0.58,0.51 0.92,1.1 1.02,1.76 0.1,0.65 -0.02,1.24 -0.37,1.79 -0.47,0.76 -1.18,1.21 -2.12,1.36 -0.73,0.12 -1.36,-0.01 -1.89,-0.39 -0.54,-0.37 -0.86,-0.91 -0.97,-1.61 -0.14,-0.85 0.11,-1.63 0.74,-2.31 0.34,-0.36 0.67,-0.57 0.99,-0.62 0.17,-0.03 0.32,0 0.44,0.08 0.12,0.08 0.19,0.19 0.22,0.35 0.03,0.2 -0.07,0.4 -0.29,0.59l-0.34 0.29c-0.19,0.16 -0.34,0.38 -0.45,0.64 -0.1,0.26 -0.14,0.51 -0.1,0.75 0.06,0.37 0.23,0.66 0.52,0.86 0.29,0.2 0.63,0.27 1.02,0.21 0.43,-0.07 0.77,-0.29 1.04,-0.66 0.26,-0.37 0.36,-0.77 0.29,-1.2 -0.04,-0.28 -0.14,-0.51 -0.31,-0.72 -0.16,-0.2 -0.49,-0.51 -0.99,-0.91 -0.35,-0.28 -0.6,-0.53 -0.77,-0.76l-1.27 0.2c-0.43,0.07 -0.67,-0.05 -0.71,-0.34 -0.04,-0.22 0.01,-0.4 0.14,-0.54 0.14,-0.14 0.34,-0.23 0.62,-0.28l0.8 -0.12c-0.04,-0.63 0.17,-1.19 0.6,-1.67 0.44,-0.49 1.01,-0.78 1.71,-0.89 0.53,-0.09 0.98,-0.01 1.36,0.23 0.38,0.24 0.61,0.59 0.68,1.05 0.1,0.62 -0.09,1.13 -0.57,1.54 -0.27,0.23 -0.73,0.4 -1.38,0.51l-0.47 0.07zm-0.74 -1.03l1.13 -0.18c0.63,-0.1 0.91,-0.33 0.85,-0.7 -0.02,-0.14 -0.1,-0.25 -0.24,-0.31 -0.15,-0.07 -0.33,-0.09 -0.54,-0.05 -0.34,0.05 -0.63,0.2 -0.87,0.45 -0.24,0.26 -0.35,0.52 -0.33,0.79zm6.66 3.35l0.52 -0.08c0.39,-0.06 0.61,0.04 0.66,0.32 0.03,0.19 -0.02,0.35 -0.15,0.48 -0.12,0.13 -0.31,0.21 -0.55,0.25l-0.6 0.09c-0.27,0.05 -0.47,-0.03 -0.6,-0.22 -0.2,0.24 -0.41,0.38 -0.63,0.42l-0.54 0.08c-0.34,0.06 -0.64,-0.02 -0.89,-0.23 -0.25,-0.21 -0.4,-0.52 -0.47,-0.91 -0.09,-0.6 0.03,-1.17 0.37,-1.71 0.34,-0.54 0.77,-0.85 1.29,-0.93 0.4,-0.06 0.72,0.03 0.95,0.27 0.12,-0.26 0.3,-0.41 0.55,-0.45 0.14,-0.02 0.26,0 0.37,0.08 0.11,0.07 0.17,0.17 0.19,0.3 0.01,0.09 0,0.2 -0.03,0.33l-0.03 0.13 -0.41 1.78zm-1.7 0.29l0.12 -0.02c0.26,-0.04 0.41,-0.17 0.46,-0.39l0.21 -0.87c0.02,-0.11 0.03,-0.2 0.02,-0.27 -0.01,-0.09 -0.07,-0.16 -0.16,-0.21 -0.09,-0.04 -0.2,-0.06 -0.31,-0.04 -0.23,0.03 -0.44,0.2 -0.61,0.5 -0.18,0.3 -0.24,0.6 -0.2,0.88 0.05,0.32 0.21,0.46 0.47,0.42zm4.16 0.71l-0.75 3.2c-0.1,0.44 -0.31,0.68 -0.64,0.74 -0.12,0.02 -0.24,-0.01 -0.34,-0.08 -0.1,-0.07 -0.16,-0.16 -0.18,-0.27 -0.01,-0.1 0,-0.25 0.05,-0.46l1.38 -5.93c0.07,-0.29 0.24,-0.47 0.53,-0.51 0.2,-0.03 0.37,0.04 0.51,0.21 0.19,-0.26 0.43,-0.42 0.75,-0.47 0.33,-0.05 0.61,0.03 0.86,0.25 0.24,0.21 0.39,0.52 0.45,0.93 0.12,0.77 -0.02,1.43 -0.42,1.99 -0.13,0.18 -0.27,0.32 -0.43,0.4 -0.16,0.09 -0.38,0.15 -0.68,0.2 -0.32,0.05 -0.54,0.06 -0.67,0.04 -0.13,-0.02 -0.27,-0.11 -0.42,-0.24zm0.23 -1.02c0.1,0.12 0.19,0.2 0.27,0.23 0.08,0.03 0.19,0.03 0.34,0.01 0.22,-0.04 0.39,-0.15 0.48,-0.33 0.21,-0.38 0.28,-0.74 0.22,-1.1 -0.05,-0.3 -0.21,-0.43 -0.5,-0.38 -0.32,0.05 -0.52,0.27 -0.6,0.65 0,0.05 -0.01,0.08 -0.02,0.11l-0.19 0.81zm3.96 0c0.04,0.23 0.23,0.32 0.59,0.27l1.39 -0.22c0.39,-0.07 0.61,0.04 0.65,0.32 0.03,0.19 -0.01,0.35 -0.14,0.47 -0.12,0.13 -0.31,0.22 -0.55,0.26l-1.33 0.2c-0.5,0.08 -0.89,0.02 -1.19,-0.18 -0.29,-0.2 -0.48,-0.54 -0.55,-1.01 -0.1,-0.6 0.02,-1.15 0.36,-1.65 0.34,-0.5 0.79,-0.8 1.35,-0.89 0.41,-0.06 0.76,-0.01 1.04,0.17 0.28,0.17 0.45,0.43 0.51,0.78 0.06,0.42 -0.06,0.76 -0.37,1.02 -0.17,0.15 -0.45,0.25 -0.82,0.31l-0.94 0.15zm0.09 -0.89l0.51 -0.09c0.34,-0.05 0.49,-0.15 0.46,-0.29 -0.04,-0.16 -0.16,-0.22 -0.36,-0.19 -0.29,0.04 -0.49,0.23 -0.61,0.57zm6.07 0.18l0.57 -0.08c0.39,-0.07 0.61,0.04 0.65,0.32 0.03,0.19 -0.01,0.35 -0.14,0.47 -0.12,0.13 -0.3,0.21 -0.55,0.25l-0.98 0.16c-0.19,0.03 -0.36,0 -0.51,-0.1 -0.15,-0.09 -0.24,-0.23 -0.26,-0.4 -0.02,-0.11 0,-0.27 0.05,-0.5l0.26 -1.09c0.03,-0.11 0.04,-0.2 0.03,-0.27 -0.01,-0.07 -0.05,-0.13 -0.12,-0.18 -0.07,-0.04 -0.16,-0.05 -0.26,-0.04 -0.32,0.06 -0.55,0.34 -0.67,0.85l-0.33 1.45c-0.1,0.44 -0.32,0.69 -0.64,0.74 -0.14,0.02 -0.26,0 -0.37,-0.07 -0.11,-0.06 -0.17,-0.16 -0.19,-0.28 -0.01,-0.08 0,-0.19 0.03,-0.32l0.03 -0.14 0.57 -2.48c0.08,-0.33 0.26,-0.51 0.55,-0.56 0.25,-0.04 0.43,0.04 0.57,0.24 0.3,-0.3 0.6,-0.48 0.9,-0.53 0.29,-0.05 0.55,0 0.77,0.14 0.21,0.14 0.34,0.33 0.38,0.59 0.03,0.15 0.02,0.31 -0.02,0.49l-0.32 1.34zm3.73 -3.3l0.14 -0.03c0.4,-0.07 0.62,0.03 0.67,0.31 0.03,0.19 -0.01,0.35 -0.13,0.48 -0.12,0.14 -0.3,0.22 -0.55,0.27l-0.34 0.06 -0.35 1.65 0.53 -0.09c0.39,-0.07 0.61,0.03 0.66,0.3 0.03,0.19 -0.01,0.35 -0.13,0.48 -0.11,0.13 -0.3,0.22 -0.55,0.26l-0.83 0.16c-0.24,0.04 -0.43,0.02 -0.59,-0.07 -0.16,-0.08 -0.26,-0.22 -0.29,-0.4 -0.02,-0.12 -0.01,-0.25 0.02,-0.4l0.05 -0.22 0.3 -1.46 -0.07 0.01c-0.35,0.07 -0.55,-0.04 -0.6,-0.31 -0.03,-0.19 0.01,-0.36 0.13,-0.49 0.12,-0.13 0.3,-0.22 0.55,-0.27l0.22 -0.03 0.13 -0.66 0.03 -0.13c0.09,-0.38 0.29,-0.59 0.6,-0.65 0.13,-0.02 0.25,0 0.35,0.07 0.11,0.07 0.18,0.17 0.2,0.29 0.02,0.12 0.01,0.27 -0.04,0.47l-0.11 0.4zm2.22 2.13l0.53 -0.11c0.39,-0.07 0.61,0.03 0.66,0.3 0.04,0.19 0,0.35 -0.11,0.48 -0.12,0.13 -0.3,0.22 -0.55,0.27l-0.74 0.15c-0.27,0.06 -0.5,0.05 -0.67,-0.04 -0.18,-0.08 -0.29,-0.21 -0.33,-0.4 -0.02,-0.11 -0.01,-0.24 0.02,-0.41l0.39 -2.05 0.02 -0.14c0.07,-0.38 0.27,-0.6 0.58,-0.67 0.13,-0.02 0.25,0 0.37,0.07 0.11,0.07 0.18,0.16 0.2,0.28 0.02,0.1 0.01,0.26 -0.03,0.48l-0.34 1.79zm-0.2 -4.16c0.18,-0.04 0.35,0 0.5,0.1 0.15,0.1 0.24,0.24 0.28,0.42 0.04,0.18 0,0.34 -0.1,0.49 -0.1,0.15 -0.24,0.25 -0.42,0.28 -0.18,0.04 -0.34,0.01 -0.49,-0.09 -0.15,-0.1 -0.25,-0.24 -0.28,-0.42 -0.04,-0.18 -0.01,-0.35 0.09,-0.5 0.1,-0.15 0.24,-0.24 0.42,-0.28zm4.56 3.18l0.51 -0.12c0.39,-0.09 0.62,0 0.68,0.27 0.04,0.19 0.01,0.35 -0.11,0.49 -0.11,0.14 -0.29,0.23 -0.53,0.29l-0.59 0.14c-0.27,0.06 -0.47,0 -0.62,-0.18 -0.18,0.26 -0.38,0.42 -0.59,0.47l-0.53 0.12c-0.34,0.08 -0.64,0.02 -0.91,-0.17 -0.26,-0.19 -0.44,-0.48 -0.53,-0.87 -0.14,-0.59 -0.06,-1.17 0.24,-1.73 0.29,-0.56 0.7,-0.9 1.21,-1.02 0.4,-0.1 0.72,-0.03 0.96,0.19 0.1,-0.26 0.28,-0.43 0.53,-0.48 0.13,-0.04 0.26,-0.02 0.37,0.04 0.11,0.07 0.18,0.17 0.21,0.29 0.02,0.09 0.02,0.2 0,0.33l-0.02 0.14 -0.28 1.8zm-1.67 0.42l0.12 -0.03c0.25,-0.06 0.39,-0.2 0.43,-0.43l0.13 -0.88c0.02,-0.11 0.02,-0.2 0.01,-0.27 -0.02,-0.09 -0.08,-0.15 -0.18,-0.19 -0.09,-0.04 -0.2,-0.05 -0.32,-0.03 -0.22,0.06 -0.41,0.24 -0.56,0.55 -0.15,0.32 -0.2,0.61 -0.13,0.89 0.07,0.32 0.24,0.45 0.5,0.39z"/>
   <path class="fil5" d="M137.61 104.47c0,-1.21 0.22,-2.09 0.95,-2.81 0.69,-0.68 1.37,-1.06 2.49,-1.06 1.75,0 3.01,1.27 3.53,2.87 0.09,0.3 0.06,0.47 0.29,0.62 0.48,-0.13 0.25,-1.27 1.27,-2.32 1.26,-1.31 3.31,-1.58 4.79,-0.57 1.96,1.33 1.68,4.09 0.76,5.96 -0.13,0.26 -0.25,0.5 -0.39,0.78 -0.37,0.75 -1.07,1.7 -1.6,2.39l-2.72 2.97 -1.51 1.34c-0.22,0.2 -0.45,0.34 -0.6,0.58 -0.41,-0.27 -1.94,-1.86 -2.27,-2.19 -1.48,-1.48 -3.23,-3.73 -4.13,-5.45 -0.4,-0.78 -0.86,-2.2 -0.86,-3.11zm7.36 -2.1l-0.1 0c-0.03,-0.31 -0.42,-0.87 -0.59,-1.08 -1.56,-1.91 -3.94,-2.24 -5.99,-0.88 -0.14,0.09 -0.2,0.13 -0.32,0.23 -0.12,0.1 -0.21,0.15 -0.32,0.26 -0.12,0.13 -0.13,0.18 -0.24,0.3 -1.7,1.94 -0.84,4.9 0.04,6.87 0.39,0.87 1.39,2.34 2.03,2.97l1.18 1.29c1.15,1.15 1.94,2.01 3.3,2.93 0.97,0.66 0.8,0.74 2.37,-0.41l2.07 -1.69 1.26 -1.26c1.3,-1.41 1.68,-1.92 2.7,-3.59 0.83,-1.37 1.27,-2.53 1.27,-4.33 0,-3.19 -3.87,-5.63 -6.85,-3.84 -0.25,0.15 -0.35,0.24 -0.56,0.42 -0.51,0.44 -1.08,1.11 -1.25,1.81z"/>
   <path class="fil5" d="M136.7 115.54c-0.32,0.03 -0.89,0.43 -1.12,0.61 -0.74,0.55 -1.62,1.47 -2.06,2.29 -0.15,0.29 -0.05,0.52 0.13,0.57 0.35,0.1 1.73,-1.11 2.04,-1.41 0.38,-0.38 0.86,-0.99 1.12,-1.47 0.15,-0.27 0.1,-0.39 -0.11,-0.59z"/>
   <path class="fil5" d="M152.93 115.86c0,0.44 1.14,1.65 1.46,1.98 0.34,0.34 1.05,0.87 1.49,1.1 0.2,0.11 0.82,0.1 0.23,-0.83 -0.24,-0.39 -0.45,-0.58 -0.69,-0.87 -0.36,-0.42 -0.77,-0.8 -1.22,-1.14 -0.23,-0.17 -1.27,-0.97 -1.27,-0.24z"/>
   <path class="fil5" d="M152.98 99.15c0,1.42 3.39,-1.87 3.39,-2.85 0,-0.81 -1.89,0.84 -2.11,1.06 -0.16,0.15 -0.2,0.25 -0.35,0.4 -0.21,0.22 -0.93,1.18 -0.93,1.39z"/>
   <path class="fil5" d="M133.47 96.41c0,0.35 1,1.51 1.3,1.81 0.35,0.34 1.39,1.26 1.87,1.3 0.41,-0.35 0.19,-0.52 -0.07,-0.95 -0.65,-1.08 -3.1,-3.34 -3.1,-2.16z"/>
   <path class="fil5" d="M144.33 95.76c0,0.55 0.05,2.15 0.59,2.15 0.29,0 0.4,-0.46 0.45,-0.68 0.2,-0.87 0.22,-2.61 -0.4,-3.03 -0.39,0.09 -0.37,0.22 -0.49,0.59 -0.08,0.26 -0.15,0.61 -0.15,0.97z"/>
   <path class="fil5" d="M131.64 107.48c0,0.42 0.21,0.39 0.58,0.5 0.81,0.24 2.6,0.21 3.08,-0.34 -0.04,-0.41 -0.26,-0.46 -0.63,-0.55 -0.44,-0.11 -0.69,-0.15 -1.2,-0.15 -0.47,0 -1.83,0.17 -1.83,0.54z"/>
   <path class="fil5" d="M144.33 119.03c0,2.21 1.18,2.66 1.18,-0.32 0,-1.63 -0.69,-1.75 -0.89,-1.27 -0.17,0.39 -0.29,1.16 -0.29,1.59z"/>
   <path class="fil5" d="M154.59 107.58c0,0.61 2.08,0.62 2.89,0.41 0.33,-0.08 0.66,-0.1 0.69,-0.48 0.06,-0.72 -3.58,-0.82 -3.58,0.07z"/>
   <path class="fil5" d="M84.95 54.59c0,0.78 -1.59,-0.31 -1.99,-0.51l-3.21 -1.67c-2.32,-1.16 -1.28,-1.02 -4.99,0.83 -0.56,0.28 -2.9,1.63 -3.32,1.63 -0.59,0 -0.12,-1.52 0.01,-2.29 0.1,-0.65 0.23,-1.33 0.34,-2.02 0.11,-0.66 0.24,-1.32 0.35,-2.02 0.25,-1.46 0.07,-1.29 -1.56,-2.92l-2.4 -2.33c-0.76,-0.77 -1.88,-1.47 -0.37,-1.66l5.17 -0.75c1.88,-0.32 1.48,-0.13 2.54,-2.27l1.95 -3.97c0.42,-0.84 0.67,-1.01 1.14,-0.04 0.14,0.28 0.24,0.47 0.38,0.8 0.22,0.54 0.52,1.06 0.78,1.59 0.54,1.07 1.02,2.1 1.58,3.16 0.31,0.59 0.94,0.6 1.66,0.7 0.73,0.11 1.34,0.2 2.07,0.31l3.11 0.44c0.57,0.09 0.57,0.03 0.87,0.38 -0.1,0.43 -0.58,0.76 -1.09,1.27 -0.42,0.41 -0.78,0.77 -1.19,1.19l-1.22 1.15c-2.16,2.17 -1.86,1.28 -1.25,4.91 0.15,0.9 0.64,3.42 0.64,4.09zm-20.27 -12.75c0,1.71 0.55,1.91 1.58,2.94l3.5 3.4c-0.28,1.21 -0.58,3.28 -0.8,4.63 -0.15,0.9 -0.24,0.94 -0.24,1.92 0,1.29 1.29,2.58 2.58,2.58 1.26,0 1.59,-0.37 2.88,-1.02 0.66,-0.34 3.67,-2.02 3.88,-2.02l4.62 2.39c0.99,0.5 0.91,0.65 2.13,0.65 1.31,0 2.58,-1.19 2.58,-2.86 0,-0.55 -0.87,-5.53 -1.04,-6.27 0.26,-0.17 0.44,-0.41 0.68,-0.64l0.73 -0.67c0.71,-0.63 1.64,-1.69 2.37,-2.36 0.16,-0.15 0.22,-0.17 0.38,-0.32 0.14,-0.12 0.19,-0.23 0.32,-0.38 0.91,-1.11 0.8,-2.77 -0.24,-3.77 -0.69,-0.67 -1.29,-0.72 -2.39,-0.89l-4.83 -0.68c-0.34,-0.08 -0.42,-0.38 -0.74,-1.14l-1.46 -2.99c-0.68,-1.36 -1.24,-2.81 -3.11,-2.81 -0.79,0 -1.66,0.46 -2.04,0.89 -0.47,0.53 -1.64,3.06 -2.05,3.87l-0.98 2.02c-0.13,0.17 0.08,0.05 -0.2,0.15l-4.87 0.7c-1,0.15 -1.58,0.18 -2.21,0.71l-0.36 0.35c-0.37,0.41 -0.67,1 -0.67,1.62z"/>
   <path class="fil5" d="M91.15 50.06c0,1.03 0.85,1.16 1.39,1.33 0.98,0.31 1.43,0.62 2.38,0.62 0.58,0 0.96,-0.59 0.97,-1.19l0 -0.05c-0.01,-0.36 -0.15,-0.71 -0.49,-0.92 -0.49,-0.3 -2.62,-0.97 -3.2,-0.97 -0.54,0 -1.05,0.6 -1.05,1.18z"/>
   <path class="fil5" d="M60.22 50.69c0,2.28 2.43,0.97 3.3,0.73 0.36,-0.11 0.71,-0.18 0.96,-0.37 0.83,-0.61 0.58,-2.17 -0.78,-2.17 -0.24,0 -1.69,0.48 -2.05,0.6 -0.34,0.11 -0.68,0.21 -0.94,0.37 -0.21,0.13 -0.49,0.52 -0.49,0.84z"/>
   <path class="fil5" d="M66 30.97c0,0.53 1.26,2.05 1.57,2.47 0.82,1.1 2.26,0.73 2.26,-0.73 0,-0.41 -0.79,-1.34 -1.03,-1.68 -0.66,-0.98 -0.85,-1.31 -1.75,-1.31 -0.58,0 -1.05,0.65 -1.05,1.25z"/>
   <path class="fil5" d="M86.28 32.71c0,1.47 1.45,1.82 2.26,0.73 0.36,-0.49 1.57,-1.91 1.57,-2.54 0,-0.55 -0.51,-1.18 -1.05,-1.18 -0.91,0 -1.08,0.32 -1.75,1.31 -0.24,0.34 -1.03,1.27 -1.03,1.68z"/>
   <path class="fil5" d="M76.87 59.96l0 2.64c0,1.49 2.37,1.49 2.37,0l0 -2.64c0,-0.87 -1.25,-1.42 -2,-0.75 -0.14,0.12 -0.37,0.51 -0.37,0.75z"/>
   <path class="fil5" d="M92.64 125.4l-7.82 0 0 -1 0 -3.6 0 0 0 -14.46c0,-0.34 0.17,-0.5 0.5,-0.5l2.92 0c0,-2 -0.03,-0.7 -0.84,-1.66 -0.85,-1 -0.33,-2.41 0.17,-3.41 0.47,-0.94 1.02,-2.3 1.85,-0.88 0.42,0.7 1.09,1.98 1.09,2.82 0,2.03 -1.28,1.69 -1.28,2.13l0 1 2.92 0c0.33,0 0.5,0.16 0.5,0.5l0 14.06 -0.01 0.02 0 4.98zm-0.99 -12.31c-0.59,0 -1.34,0.05 -1.65,-0.91 -0.14,-0.42 0,-1.32 -0.13,-1.86 -0.45,-0.11 -0.14,-0.1 -0.57,0 -0.35,1.51 0.65,4.55 -1.35,4.55 -0.73,0 -1.3,-0.53 -1.35,-1.21 -0.12,-1.66 0.38,-1.51 -0.78,-1.78l0 12.52 5.83 0 0 -11.31zm-0.36 -0.99c0.17,0 0.36,-0.19 0.36,-0.36l0 -4.91 -5.83 0 0 3.56c0,1.06 1.79,-0.14 1.78,2.28 -0.01,0.58 -0.12,1.13 0.35,1.13 0.42,0 0.29,-0.86 0.29,-1.28 0,-0.52 0,-1.04 0,-1.56 -0.01,-0.65 -0.01,-0.88 0.3,-1.26 0.7,-0.87 2.01,-0.57 2.35,0.45 0.17,0.52 -0.23,1.95 0.4,1.95zm-2.48 -11.31l-0.15 0c-0.07,0.31 -0.48,0.99 -0.6,1.53 -0.07,0.32 -0.14,0.66 -0.05,0.9 0.23,0.63 1.15,0.66 1.43,0.05 0.31,-0.67 -0.56,-2.18 -0.63,-2.48z"/>
   <path class="fil5" d="M87.53 118.85l0 2.07c0,0.72 -1,0.72 -1,0l0 -2.07c0,-0.56 1,-0.56 1,0z"/>
   <path class="fil5" d="M100.54 106.05c0,0.73 -0.9,0.57 -1.85,0.57 -1.32,0 -0.84,-1.07 -0.43,-1.07 1.36,0 2.28,-0.22 2.28,0.5z"/>
   <path class="fil5" d="M99.05 100.43c0,0.53 -1.97,1.35 -1.99,1.35 -0.4,0 -0.5,-0.33 -0.5,-0.64 0,-0.25 0.36,-0.39 0.55,-0.51 0.42,-0.24 1.94,-1.38 1.94,-0.2z"/>
   <path class="fil5" d="M94.92 96.24c0,0.15 -0.91,1.99 -1.28,1.99 -1.31,0 -0.17,-1.34 0.24,-2.11 0.39,-0.74 1.04,-0.25 1.04,0.12z"/>
   <path class="fil5" d="M80.91 110.89c0,0.25 -0.14,0.37 -0.36,0.5 -0.17,0.1 -0.35,0.19 -0.54,0.3 -0.47,0.26 -0.79,0.55 -1.16,0.55 -0.2,0 -0.9,-0.55 0.04,-1.1 0.25,-0.15 1.26,-0.77 1.47,-0.79 0.31,-0.03 0.55,0.19 0.55,0.54z"/>
   <path class="fil5" d="M80.91 101.14c0,1.19 -1.13,0.36 -1.58,0.09 -0.29,-0.18 -0.91,-0.41 -0.91,-0.8 0,-0.3 0.22,-0.57 0.5,-0.57 0.06,0 1.99,0.91 1.99,1.28z"/>
   <path class="fil5" d="M99.05 111.74c0,0.51 -0.45,0.65 -1.06,0.27 -0.18,-0.11 -0.34,-0.19 -0.54,-0.31 -0.21,-0.13 -0.35,-0.19 -0.54,-0.31 -0.69,-0.45 -0.23,-1 0,-1 0.53,0 0.58,0.12 1.3,0.56 0.32,0.19 0.84,0.32 0.84,0.79z"/>
   <path class="fil5" d="M79.63 105.98c0,0.8 -0.68,0.57 -2.35,0.57 -0.43,0 -0.6,-1 0.15,-1 0.85,0 2.2,-0.2 2.2,0.43z"/>
   <path class="fil5" d="M84.47 97.73c0,0.4 -0.34,0.5 -0.64,0.5 -0.38,0 -1.28,-1.86 -1.28,-1.99 0,-0.37 0.62,-0.84 1.02,-0.17l0.9 1.66z"/>
   <path class="fil5" d="M89.23 94.74c0,1.32 0.22,2.21 -0.5,2.21 -0.71,0 -0.49,-0.89 -0.49,-2.21 0,-0.68 0.99,-0.68 0.99,0z"/>
   <path class="fil5" d="M92.64 125.4l0 -4.98 0.01 -0.02 0 4 -0.01 1zm-7.82 0l0 -1 0 1z"/>
   <path class="fil5" d="M160.17 52.41c1.61,0 3.26,0.28 4.77,0.75 0.57,0.17 0.5,0.06 0.5,0.79l-11.41 0c0.25,-0.34 2.32,-0.99 2.71,-1.1 0.9,-0.26 2.28,-0.44 3.43,-0.44zm-20.24 1.05c0,-0.21 0.25,-0.23 0.45,-0.29 3.58,-1.1 6.9,-1.05 10.33,0.43 0.24,0.1 0.49,0.15 0.63,0.35l-11.41 0 0 -0.49zm12.02 -1.41l0.02 0.01c0,0 -0.03,-0.01 -0.02,-0.01zm-12.02 0.24l0 -16.68c0.29,-0.15 1.71,-0.64 2.09,-0.67l-0.01 10.98c0,1.2 0.75,0.46 3.91,2.04 1.54,0.76 2.66,1.73 3.84,2.9 0.4,0.41 1.26,1.43 1.52,1.92 -0.03,-0.01 -1.57,-0.64 -2.44,-0.87 -2.04,-0.53 -4.65,-0.57 -6.74,-0.15 -0.41,0.09 -0.71,0.15 -1.1,0.25l-1.07 0.28zm3.07 -24.04c0.42,0.01 1.74,0.51 2.08,0.68 0,4.98 0.03,9.98 0,14.96 -0.01,1.4 0.23,0.74 2.17,1.58 0.63,0.27 1.19,0.62 1.71,1.05 0.1,0.08 0.14,0.14 0.25,0.23 0.12,0.11 0.15,0.1 0.27,0.22 0.54,0.5 1.22,1.54 1.55,2.19 0.22,0.43 0.35,0.82 0.53,1.31 0.12,0.29 0.38,1.19 0.39,1.51l-1.24 -1.51c-0.5,-0.59 -1.9,-1.82 -2.54,-2.25l-1.11 -0.73c-1.39,-0.77 -2.4,-1.25 -4.06,-1.64l0 -17.6zm3.06 -1.84c0.81,0.39 1.25,0.32 2.47,1.16 2.27,1.57 3.34,4.31 3.66,7.25 0.07,0.66 0.01,13.49 0.01,14.53 -0.07,-0.08 -0.08,-0.08 -0.13,-0.19l-0.36 -0.74c-1.05,-1.82 -1.85,-2.53 -3.55,-3.56 -0.31,-0.19 -1.68,-0.75 -2.1,-0.79l0 -17.66zm17.54 23c-0.3,0.07 -1.89,0.13 -3.12,0.37 -2.32,0.46 -4.34,1.3 -6.26,2.57l-1.04 0.74c0,-5.21 0,-10.43 0,-15.64 0,-0.46 -0.16,-1.52 0.1,-1.8 0.35,-0.37 1.81,-1.34 2.29,-1.63 0.42,-0.25 0.84,-0.46 1.28,-0.68 1.77,-0.87 4.28,-1.53 6.75,-1.53l0 4.6c0,0.3 0.2,0.55 0.49,0.55 0.63,0 0.49,-1.01 0.49,-1.66 0.19,0.02 0.71,0.23 0.86,0.31l0 16.68 -1.07 -0.28c-0.39,-0.1 -0.69,-0.16 -1.1,-0.25 -1.52,-0.31 -3.2,-0.34 -4.76,-0.2 -0.3,0.02 -0.63,0.11 -0.92,0.12 0.08,-0.07 0,-0.03 0.15,-0.1l0.63 -0.23c1.26,-0.42 2.25,-0.69 3.58,-0.84 0.3,-0.03 0.68,-0.05 1,-0.09 0.69,-0.11 1.63,0.2 1.63,-0.58l0 -10.49c0,-0.53 -0.64,-0.75 -0.91,-0.3 -0.11,0.17 -0.07,0.35 -0.07,0.61l0 9.75zm-18.52 -21.52c-0.54,-0.13 -1.81,-0.74 -2.63,-0.74 -0.52,0 -0.43,0.82 -0.43,1.35l0 5.46c-0.6,0.05 -1.93,0.54 -2.53,0.78 -0.35,0.14 -0.45,0.24 -0.54,0.63 -0.62,0 -1.96,-0.14 -1.96,1.04l0 14.22c0,0.39 0.85,0.6 0.92,-0.05 0.06,-0.62 0,-10.87 0,-12.45 0,-0.33 0,-0.66 0,-0.99 -0.01,-0.92 -0.2,-0.79 1.04,-0.79l0 17.96c0,0.3 0.17,0.56 0.49,0.56l26.49 0c0.32,0 0.49,-0.26 0.49,-0.56l0 -17.96c0.7,0 1.04,-0.1 1.04,0.18l0 19.07c0,0.15 -0.1,0.25 -0.24,0.25l-12.94 0c-0.21,0 -0.26,-0.07 -0.38,-0.17 -0.16,-0.13 -0.12,-0.12 -0.33,-0.22 -0.7,-0.35 -1.51,-0.28 -2.09,0.22 -0.13,0.1 -0.18,0.17 -0.39,0.17l-12.94 0c-0.36,0 -0.24,-0.67 -0.24,-1.23 0,-0.51 0,-1.02 0,-1.53 -0.15,-0.1 -0.25,-0.24 -0.49,-0.23 -0.16,0.01 -0.43,0.14 -0.43,0.35l0 2.64c0,0.41 0.51,0.92 0.92,0.92l13.61 0c0.62,0 0.28,-0.56 1.29,-0.56 0.53,0 0.53,0.56 1.04,0.56l13.61 0c0.42,0 0.92,-0.51 0.92,-0.92l0 -19.44c0,-1.18 -1.35,-1.04 -1.96,-1.04 -0.11,-0.5 -0.3,-0.54 -0.76,-0.71 -0.34,-0.13 -0.79,-0.26 -1.08,-0.4 0,-0.65 0,-1.31 0,-1.96 0,-1.44 0.08,-1.47 -0.98,-1.47 -2.92,0 -6.04,0.94 -8.34,2.26 -0.62,0.36 -1.28,0.77 -1.85,1.23 -0.16,0.13 -0.08,0.13 -0.29,0.19 -0.02,-0.87 -0.5,-2.58 -0.79,-3.38 -0.68,-1.86 -2.03,-3.62 -3.72,-4.63 -0.58,-0.35 -2.21,-1.13 -3.04,-1.13 -0.49,0 -0.49,0.48 -0.49,0.98 0.01,0.51 0,1.02 0,1.54z"/>
   <path class="fil5" d="M74.55 53.79c3.94,-1.96 2.84,-2.11 5.3,-0.89l3.41 1.78c0.42,0.21 2.12,1.36 2.12,0.54 0,-0.71 -0.53,-3.39 -0.69,-4.34 -0.64,-3.86 -0.96,-2.91 1.34,-5.22l1.29 -1.22c0.44,-0.44 0.82,-0.82 1.26,-1.26 0.54,-0.54 1.06,-0.9 1.16,-1.35 -0.32,-0.37 -0.32,-0.31 -0.93,-0.4l-3.3 -0.47c-0.77,-0.11 -1.42,-0.22 -2.19,-0.33 -0.77,-0.1 -1.44,-0.12 -1.77,-0.75 -0.59,-1.12 -1.1,-2.21 -1.67,-3.35 -0.28,-0.56 -0.59,-1.11 -0.83,-1.68 -0.15,-0.36 -0.25,-0.56 -0.4,-0.86 -0.51,-1.03 -0.77,-0.84 -1.21,0.05l-2.07 4.22c-1.14,2.26 -0.71,2.06 -2.7,2.4l-5.5 0.8c-1.6,0.2 -0.41,0.95 0.4,1.76l2.55 2.48c1.73,1.72 1.92,1.54 1.66,3.1 -0.13,0.74 -0.26,1.44 -0.37,2.14 -0.12,0.73 -0.26,1.46 -0.37,2.15 -0.14,0.82 -0.63,2.43 -0.01,2.43 0.44,0 2.93,-1.44 3.52,-1.73z"/>
   <path class="fil5" d="M146.17 101.59c-1.04,1.09 -0.81,2.26 -1.31,2.39 -0.23,-0.15 -0.2,-0.33 -0.29,-0.64 -0.53,-1.65 -1.83,-2.95 -3.63,-2.95 -1.15,0 -1.86,0.39 -2.56,1.09 -0.75,0.74 -0.98,1.65 -0.98,2.89 0,0.94 0.47,2.4 0.88,3.2 0.93,1.77 2.73,4.09 4.25,5.6 0.34,0.35 1.92,1.98 2.33,2.26 0.16,-0.24 0.4,-0.39 0.62,-0.6l1.55 -1.38 2.81 -3.05c0.54,-0.71 1.26,-1.69 1.64,-2.45 0.14,-0.29 0.27,-0.54 0.41,-0.82 0.94,-1.91 1.23,-4.75 -0.79,-6.13 -1.52,-1.03 -3.63,-0.76 -4.93,0.59z"/>
   <path class="fil5 str4" d="M89.44 103.27c0.31,-0.67 -0.56,-2.18 -0.63,-2.48l-0.15 0c-0.07,0.31 -0.48,0.99 -0.6,1.53 -0.07,0.32 -0.14,0.66 -0.05,0.9 0.23,0.63 1.15,0.66 1.43,0.05z"/>
   <path class="fil5 str4" d="M91.65 106.83l-5.83 0 0 3.56c0,1.06 1.79,-0.14 1.78,2.28 -0.01,0.58 -0.12,1.13 0.35,1.13 0.42,0 0.29,-0.86 0.29,-1.28 0,-0.52 0,-1.04 0,-1.56 -0.01,-0.65 -0.01,-0.88 0.3,-1.26 0.7,-0.87 2.01,-0.57 2.35,0.45 0.17,0.52 -0.23,1.95 0.4,1.95 0.17,0 0.36,-0.19 0.36,-0.36l0 -4.91z"/>
   <path class="fil5 str5" d="M139.93 35.61l0 16.68 1.07 -0.28c0.39,-0.1 0.69,-0.16 1.1,-0.25 2.09,-0.42 4.7,-0.38 6.74,0.15 0.87,0.22 2.41,0.86 2.44,0.87 -0.26,-0.49 -1.12,-1.51 -1.52,-1.92 -1.18,-1.17 -2.3,-2.14 -3.84,-2.9 -3.16,-1.58 -3.91,-0.84 -3.91,-2.04l0.01 -10.98c-0.38,0.03 -1.8,0.52 -2.09,0.67z"/>
   <path class="fil5 str5" d="M143 28.25l0 17.6c1.66,0.39 2.67,0.87 4.06,1.64l1.11 0.73c0.64,0.43 2.04,1.66 2.54,2.25l1.24 1.51c-0.01,-0.32 -0.27,-1.22 -0.39,-1.51 -0.18,-0.49 -0.31,-0.88 -0.53,-1.31 -0.33,-0.65 -1.01,-1.69 -1.55,-2.19 -0.12,-0.12 -0.15,-0.11 -0.27,-0.22 -0.11,-0.09 -0.15,-0.15 -0.25,-0.23 -0.52,-0.43 -1.08,-0.78 -1.71,-1.05 -1.94,-0.84 -2.18,-0.18 -2.17,-1.58 0.03,-4.98 0,-9.98 0,-14.96 -0.34,-0.17 -1.66,-0.67 -2.08,-0.68z"/>
   <path class="fil5 str5" d="M146.06 26.41l0 17.66c0.42,0.04 1.79,0.6 2.1,0.79 1.7,1.03 2.5,1.74 3.55,3.56l0.36 0.74c0.05,0.11 0.06,0.11 0.13,0.19 0,-1.04 0.06,-13.87 -0.01,-14.53 -0.32,-2.94 -1.39,-5.68 -3.66,-7.25 -1.22,-0.84 -1.66,-0.77 -2.47,-1.16z"/>
   <path class="fil5 str5" d="M153.18 37.45c0,5.21 0,10.43 0,15.64l1.04 -0.74c1.92,-1.27 3.94,-2.11 6.26,-2.57 1.23,-0.24 2.82,-0.3 3.12,-0.37l0 -9.75c0,-0.26 -0.04,-0.44 0.07,-0.61 0.27,-0.45 0.91,-0.22 0.91,0.3l0 10.49c0,0.78 -0.94,0.47 -1.63,0.58 -0.32,0.04 -0.7,0.06 -1,0.09 -1.33,0.15 -2.32,0.42 -3.58,0.84l-0.63 0.23c-0.15,0.07 -0.07,0.03 -0.15,0.1 0.29,-0.01 0.62,-0.1 0.92,-0.12 1.56,-0.14 3.24,-0.11 4.76,0.2 0.41,0.09 0.71,0.15 1.1,0.25l1.07 0.28 0 -16.68c-0.15,-0.08 -0.67,-0.29 -0.86,-0.31 0,0.65 0.14,1.66 -0.49,1.66 -0.29,0 -0.49,-0.25 -0.49,-0.55l0 -4.6c-2.47,0 -4.98,0.66 -6.75,1.53 -0.44,0.22 -0.86,0.43 -1.28,0.68 -0.48,0.29 -1.94,1.26 -2.29,1.63 -0.26,0.28 -0.1,1.34 -0.1,1.8z"/>
   <path class="fil5 str5" d="M160.17 52.41c-1.15,0 -2.53,0.18 -3.43,0.44 -0.39,0.11 -2.46,0.76 -2.71,1.1l11.41 0c0,-0.73 0.07,-0.62 -0.5,-0.79 -1.51,-0.47 -3.16,-0.75 -4.77,-0.75z"/>
   <path class="fil5 str5" d="M150.71 53.6c-3.43,-1.48 -6.75,-1.53 -10.33,-0.43 -0.2,0.06 -0.45,0.08 -0.45,0.29l0 0.49 11.41 0c-0.14,-0.2 -0.39,-0.25 -0.63,-0.35z"/>
   <path class="fil4" d="M191.09 230.7l0 -5.84 2.59 0c0.52,0 0.91,0.06 1.18,0.16 0.27,0.11 0.49,0.29 0.65,0.56 0.16,0.26 0.24,0.55 0.24,0.87 0,0.42 -0.13,0.77 -0.4,1.05 -0.27,0.28 -0.68,0.46 -1.24,0.54 0.21,0.1 0.36,0.2 0.47,0.29 0.22,0.21 0.44,0.47 0.64,0.78l1 1.59 -0.96 0 -0.77 -1.22c-0.22,-0.35 -0.41,-0.62 -0.56,-0.8 -0.14,-0.19 -0.27,-0.32 -0.39,-0.39 -0.11,-0.07 -0.23,-0.13 -0.35,-0.16 -0.09,-0.01 -0.23,-0.02 -0.43,-0.02l-0.89 0 0 2.59 -0.78 0zm0.78 -3.26l1.65 0c0.36,0 0.63,-0.04 0.83,-0.11 0.2,-0.07 0.35,-0.19 0.45,-0.35 0.1,-0.16 0.16,-0.34 0.16,-0.52 0,-0.28 -0.1,-0.51 -0.3,-0.69 -0.2,-0.17 -0.52,-0.26 -0.95,-0.26l-1.84 0 0 1.93z"/>
   <path id="_1_1" class="fil4" d="M201.12 228.65l0.77 0.2c-0.16,0.63 -0.45,1.11 -0.87,1.45 -0.42,0.33 -0.93,0.49 -1.54,0.49 -0.63,0 -1.14,-0.12 -1.53,-0.38 -0.4,-0.25 -0.7,-0.63 -0.9,-1.11 -0.21,-0.49 -0.31,-1.01 -0.31,-1.56 0,-0.61 0.12,-1.14 0.35,-1.59 0.23,-0.45 0.56,-0.8 0.99,-1.03 0.43,-0.24 0.9,-0.35 1.41,-0.35 0.58,0 1.07,0.14 1.47,0.44 0.4,0.3 0.68,0.72 0.83,1.25l-0.76 0.18c-0.13,-0.42 -0.33,-0.73 -0.58,-0.92 -0.26,-0.2 -0.58,-0.29 -0.97,-0.29 -0.45,0 -0.82,0.1 -1.12,0.32 -0.3,0.21 -0.52,0.5 -0.64,0.86 -0.12,0.37 -0.18,0.74 -0.18,1.12 0,0.5 0.07,0.93 0.22,1.3 0.14,0.37 0.36,0.65 0.67,0.83 0.3,0.18 0.63,0.27 0.98,0.27 0.44,0 0.8,-0.12 1.1,-0.37 0.3,-0.25 0.5,-0.62 0.61,-1.11z"/>
   <polygon id="_2_2" class="fil4" points="202.96,230.7 202.96,229.88 203.77,229.88 203.77,230.7 "/>
   <path id="_3" class="fil4" d="M207.13 225.62l0 -0.68 3.77 0 0 0.55c-0.37,0.4 -0.74,0.92 -1.1,1.58 -0.37,0.65 -0.65,1.33 -0.85,2.02 -0.14,0.49 -0.24,1.03 -0.28,1.61l-0.73 0c0.01,-0.46 0.1,-1.02 0.27,-1.67 0.17,-0.65 0.42,-1.28 0.74,-1.88 0.32,-0.61 0.67,-1.11 1.03,-1.53l-2.85 0z"/>
   <path id="_4" class="fil4" d="M211.66 225.62l0 -0.68 3.77 0 0 0.55c-0.37,0.4 -0.74,0.92 -1.1,1.58 -0.37,0.65 -0.65,1.33 -0.85,2.02 -0.14,0.49 -0.23,1.03 -0.27,1.61l-0.74 0c0.01,-0.46 0.1,-1.02 0.27,-1.67 0.18,-0.65 0.42,-1.28 0.74,-1.88 0.32,-0.61 0.67,-1.11 1.03,-1.53l-2.85 0z"/>
   <path id="_5" class="fil4" d="M216.15 227.82c0,-0.69 0.07,-1.25 0.21,-1.67 0.14,-0.42 0.35,-0.74 0.63,-0.97 0.28,-0.23 0.63,-0.34 1.06,-0.34 0.31,0 0.58,0.06 0.82,0.19 0.24,0.12 0.43,0.31 0.58,0.54 0.16,0.24 0.28,0.53 0.36,0.87 0.09,0.34 0.13,0.8 0.13,1.38 0,0.68 -0.07,1.24 -0.21,1.66 -0.14,0.42 -0.35,0.74 -0.63,0.97 -0.27,0.23 -0.63,0.34 -1.05,0.34 -0.56,0 -1.01,-0.19 -1.33,-0.6 -0.38,-0.48 -0.57,-1.28 -0.57,-2.37zm0.73 0c0,0.96 0.11,1.6 0.34,1.91 0.22,0.32 0.5,0.48 0.83,0.48 0.33,0 0.6,-0.16 0.83,-0.48 0.22,-0.31 0.33,-0.95 0.33,-1.91 0,-0.96 -0.11,-1.6 -0.33,-1.91 -0.23,-0.32 -0.51,-0.48 -0.84,-0.48 -0.33,0 -0.59,0.14 -0.79,0.42 -0.25,0.36 -0.37,1.01 -0.37,1.97z"/>
   <path id="_6" class="fil4" d="M221.78 227.53c-0.29,-0.1 -0.51,-0.26 -0.66,-0.46 -0.14,-0.2 -0.21,-0.45 -0.21,-0.73 0,-0.42 0.15,-0.78 0.45,-1.07 0.31,-0.29 0.71,-0.43 1.22,-0.43 0.51,0 0.92,0.15 1.23,0.44 0.31,0.3 0.46,0.66 0.46,1.08 0,0.27 -0.07,0.51 -0.21,0.71 -0.14,0.2 -0.36,0.36 -0.64,0.46 0.35,0.12 0.62,0.31 0.81,0.57 0.18,0.26 0.28,0.57 0.28,0.93 0,0.5 -0.18,0.92 -0.53,1.26 -0.35,0.34 -0.82,0.5 -1.39,0.5 -0.57,0 -1.04,-0.16 -1.39,-0.51 -0.35,-0.34 -0.53,-0.76 -0.53,-1.27 0,-0.38 0.1,-0.7 0.29,-0.95 0.19,-0.26 0.47,-0.43 0.82,-0.53zm-0.14 -1.21c0,0.28 0.09,0.5 0.26,0.68 0.18,0.17 0.41,0.26 0.7,0.26 0.28,0 0.5,-0.09 0.68,-0.26 0.17,-0.18 0.26,-0.39 0.26,-0.64 0,-0.26 -0.09,-0.49 -0.27,-0.67 -0.18,-0.17 -0.41,-0.26 -0.68,-0.26 -0.28,0 -0.5,0.08 -0.68,0.26 -0.18,0.17 -0.27,0.38 -0.27,0.63zm-0.24 2.69c0,0.21 0.05,0.41 0.15,0.6 0.09,0.19 0.24,0.34 0.43,0.44 0.19,0.11 0.4,0.16 0.62,0.16 0.34,0 0.62,-0.11 0.84,-0.33 0.23,-0.22 0.34,-0.5 0.34,-0.84 0,-0.35 -0.12,-0.63 -0.35,-0.86 -0.22,-0.22 -0.51,-0.33 -0.86,-0.33 -0.34,0 -0.62,0.11 -0.84,0.33 -0.22,0.22 -0.33,0.5 -0.33,0.83z"/>
   <path id="_7" class="fil4" d="M226.31 227.53c-0.29,-0.1 -0.51,-0.26 -0.66,-0.46 -0.14,-0.2 -0.21,-0.45 -0.21,-0.73 0,-0.42 0.15,-0.78 0.45,-1.07 0.31,-0.29 0.71,-0.43 1.22,-0.43 0.51,0 0.92,0.15 1.23,0.44 0.31,0.3 0.46,0.66 0.46,1.08 0,0.27 -0.07,0.51 -0.21,0.71 -0.14,0.2 -0.35,0.36 -0.64,0.46 0.35,0.12 0.62,0.31 0.81,0.57 0.19,0.26 0.28,0.57 0.28,0.93 0,0.5 -0.18,0.92 -0.53,1.26 -0.35,0.34 -0.81,0.5 -1.39,0.5 -0.57,0 -1.04,-0.16 -1.39,-0.51 -0.35,-0.34 -0.53,-0.76 -0.53,-1.27 0,-0.38 0.1,-0.7 0.29,-0.95 0.19,-0.26 0.47,-0.43 0.82,-0.53zm-0.14 -1.21c0,0.28 0.09,0.5 0.27,0.68 0.17,0.17 0.4,0.26 0.69,0.26 0.28,0 0.5,-0.09 0.68,-0.26 0.17,-0.18 0.26,-0.39 0.26,-0.64 0,-0.26 -0.09,-0.49 -0.27,-0.67 -0.18,-0.17 -0.41,-0.26 -0.68,-0.26 -0.27,0 -0.5,0.08 -0.68,0.26 -0.18,0.17 -0.27,0.38 -0.27,0.63zm-0.23 2.69c0,0.21 0.04,0.41 0.14,0.6 0.09,0.19 0.24,0.34 0.43,0.44 0.19,0.11 0.4,0.16 0.62,0.16 0.34,0 0.62,-0.11 0.85,-0.33 0.22,-0.22 0.33,-0.5 0.33,-0.84 0,-0.35 -0.12,-0.63 -0.34,-0.86 -0.23,-0.22 -0.52,-0.33 -0.87,-0.33 -0.34,0 -0.61,0.11 -0.83,0.33 -0.22,0.22 -0.33,0.5 -0.33,0.83z"/>
   <path id="_8" class="fil4" d="M230.85 227.53c-0.3,-0.1 -0.52,-0.26 -0.67,-0.46 -0.14,-0.2 -0.21,-0.45 -0.21,-0.73 0,-0.42 0.15,-0.78 0.46,-1.07 0.3,-0.29 0.71,-0.43 1.21,-0.43 0.51,0 0.92,0.15 1.23,0.44 0.31,0.3 0.46,0.66 0.46,1.08 0,0.27 -0.07,0.51 -0.21,0.71 -0.14,0.2 -0.35,0.36 -0.64,0.46 0.35,0.12 0.62,0.31 0.81,0.57 0.19,0.26 0.28,0.57 0.28,0.93 0,0.5 -0.18,0.92 -0.53,1.26 -0.35,0.34 -0.81,0.5 -1.39,0.5 -0.57,0 -1.04,-0.16 -1.39,-0.51 -0.35,-0.34 -0.53,-0.76 -0.53,-1.27 0,-0.38 0.1,-0.7 0.29,-0.95 0.2,-0.26 0.47,-0.43 0.83,-0.53zm-0.15 -1.21c0,0.28 0.09,0.5 0.27,0.68 0.17,0.17 0.4,0.26 0.69,0.26 0.28,0 0.5,-0.09 0.68,-0.26 0.17,-0.18 0.26,-0.39 0.26,-0.64 0,-0.26 -0.09,-0.49 -0.27,-0.67 -0.18,-0.17 -0.41,-0.26 -0.68,-0.26 -0.27,0 -0.5,0.08 -0.68,0.26 -0.18,0.17 -0.27,0.38 -0.27,0.63zm-0.23 2.69c0,0.21 0.04,0.41 0.14,0.6 0.09,0.19 0.24,0.34 0.43,0.44 0.19,0.11 0.4,0.16 0.62,0.16 0.34,0 0.62,-0.11 0.85,-0.33 0.22,-0.22 0.33,-0.5 0.33,-0.84 0,-0.35 -0.12,-0.63 -0.34,-0.86 -0.23,-0.22 -0.52,-0.33 -0.87,-0.33 -0.34,0 -0.61,0.11 -0.83,0.33 -0.22,0.22 -0.33,0.5 -0.33,0.83z"/>
   <polygon class="fil4" points="44.95,199.61 44.87,170.96 36.93,170.96 27.84,186.23 18.51,170.96 10.57,170.96 10.57,199.61 19.37,199.61 19.37,187.01 25.59,197.03 29.85,197.03 36.07,186.56 36.15,199.61 "/>
   <path id="_1_3" class="fil4" d="M71.06 199.61l9.99 0 -12.52 -28.65 -9.5 0 -12.53 28.65 9.83 0 1.92 -4.99 10.89 0 1.92 4.99zm-10.15 -11.95l2.79 -7.2 2.78 7.2 -5.57 0z"/>
   <path id="_2_4" class="fil4" d="M99.76 199.61l10.31 0 -6.02 -8.84c3.44,-1.76 5.41,-4.87 5.41,-9 0,-6.63 -5.08,-10.81 -13.06,-10.81l-13.79 0 0 28.65 9.66 0 0 -7.2 2.62 0 4.87 7.2zm-0.04 -17.84c0,2.08 -1.27,3.35 -3.93,3.35l-3.52 0 0 -6.71 3.52 0c2.66,0 3.93,1.27 3.93,3.36z"/>
   <polygon id="_3_5" class="fil4" points="122.6,192.33 122.6,188.56 134.71,188.56 134.71,181.6 122.6,181.6 122.6,178.25 136.39,178.25 136.39,170.96 113.1,170.96 113.1,199.61 136.92,199.61 136.92,192.33 "/>
   <polygon id="_4_6" class="fil4" points="140.65,199.61 163.24,199.61 163.24,192.12 150.31,192.12 150.31,170.96 140.65,170.96 "/>
   <polygon id="_5_7" class="fil4" points="165.9,199.61 188.5,199.61 188.5,192.12 175.56,192.12 175.56,170.96 165.9,170.96 "/>
   <path id="_6_8" class="fil4" d="M213.02 199.61l9.98 0 -12.52 -28.65 -9.5 0 -12.52 28.65 9.82 0 1.92 -4.99 10.89 0 1.93 4.99zm-10.15 -11.95l2.78 -7.2 2.78 7.2 -5.56 0z"/>
   <polygon class="fil4" points="0,219.23 2.3,219.23 2.3,206.84 0,206.84 "/>
   <polygon id="_1_9" class="fil4" points="14.37,206.84 14.37,215.23 7.54,206.84 5.64,206.84 5.64,219.23 7.93,219.23 7.93,210.84 14.76,219.23 16.65,219.23 16.65,206.84 "/>
   <polygon id="_2_10" class="fil4" points="22.49,219.23 24.79,219.23 24.79,208.79 28.9,208.79 28.9,206.84 18.39,206.84 18.39,208.79 22.49,208.79 "/>
   <polygon id="_3_11" class="fil4" points="32.93,217.3 32.93,213.89 38.91,213.89 38.91,211.99 32.93,211.99 32.93,208.77 39.67,208.77 39.67,206.84 30.63,206.84 30.63,219.23 39.92,219.23 39.92,217.3 "/>
   <path id="_4_12" class="fil4" d="M53.07 219.23l-2.85 -4.07c1.68,-0.66 2.64,-2.04 2.64,-3.91 0,-2.74 -2.02,-4.41 -5.28,-4.41l-5.09 0 0 12.39 2.3 0 0 -3.61 2.79 0c0.16,0 0.32,0 0.48,-0.02l2.53 3.63 2.48 0zm-2.53 -7.98c0,1.56 -1.05,2.48 -3.06,2.48l-2.69 0 0 -4.94 2.69 0c2.01,0 3.06,0.9 3.06,2.46z"/>
   <polygon id="_5_13" class="fil4" points="64.15,206.84 64.15,215.23 57.32,206.84 55.42,206.84 55.42,219.23 57.71,219.23 57.71,210.84 64.54,219.23 66.43,219.23 66.43,206.84 "/>
   <path id="_6_14" class="fil4" d="M79.03 219.23l2.41 0 -5.6 -12.39 -2.26 0 -5.58 12.39 2.38 0 1.22 -2.87 6.19 0 1.24 2.87zm-6.65 -4.67l2.31 -5.42 2.34 5.42 -4.65 0z"/>
   <polygon id="_7_15" class="fil4" points="84.9,219.23 87.21,219.23 87.21,208.79 91.31,208.79 91.31,206.84 80.8,206.84 80.8,208.79 84.9,208.79 "/>
   <polygon id="_8_16" class="fil4" points="93.04,219.23 95.35,219.23 95.35,206.84 93.04,206.84 "/>
   <path id="_9" class="fil4" d="M104.48 219.41c3.84,0 6.67,-2.69 6.67,-6.37 0,-3.68 -2.83,-6.37 -6.67,-6.37 -3.84,0 -6.68,2.7 -6.68,6.37 0,3.66 2.84,6.37 6.68,6.37zm0 -2.02c-2.5,0 -4.36,-1.82 -4.36,-4.35 0,-2.53 1.86,-4.36 4.36,-4.36 2.49,0 4.35,1.83 4.35,4.36 0,2.53 -1.86,4.35 -4.35,4.35z"/>
   <polygon id="_10" class="fil4" points="122.31,206.84 122.31,215.23 115.48,206.84 113.59,206.84 113.59,219.23 115.87,219.23 115.87,210.84 122.7,219.23 124.6,219.23 124.6,206.84 "/>
   <path id="_11" class="fil4" d="M137.2 219.23l2.4 0 -5.59 -12.39 -2.26 0 -5.58 12.39 2.37 0 1.22 -2.87 6.2 0 1.24 2.87zm-6.66 -4.67l2.32 -5.42 2.34 5.42 -4.66 0z"/>
   <polygon id="_12" class="fil4" points="141.18,219.23 149.95,219.23 149.95,217.28 143.48,217.28 143.48,206.84 141.18,206.84 "/>
   <path id="_13" class="fil4" d="M160.5 219.41c3.4,0 5.01,-1.7 5.01,-3.69 0,-4.54 -7.34,-2.82 -7.34,-5.46 0,-0.94 0.77,-1.68 2.69,-1.68 1.07,0 2.3,0.32 3.41,0.97l0.73 -1.79c-1.08,-0.71 -2.64,-1.09 -4.13,-1.09 -3.39,0 -4.99,1.69 -4.99,3.7 0,4.59 7.36,2.84 7.36,5.51 0,0.92 -0.81,1.62 -2.74,1.62 -1.52,0 -3.1,-0.57 -4.09,-1.37l-0.79 1.79c1.02,0.88 2.95,1.49 4.88,1.49z"/>
   <path id="_14" class="fil4" d="M173.53 219.41c2.03,0 3.76,-0.73 4.91,-2.07l-1.48 -1.42c-0.9,0.99 -2.02,1.47 -3.31,1.47 -2.57,0 -4.42,-1.81 -4.42,-4.35 0,-2.55 1.85,-4.36 4.42,-4.36 1.29,0 2.41,0.48 3.31,1.45l1.48 -1.39c-1.15,-1.35 -2.88,-2.07 -4.9,-2.07 -3.8,0 -6.63,2.67 -6.63,6.37 0,3.69 2.83,6.37 6.62,6.37z"/>
   <polygon id="_15" class="fil4" points="189.36,206.84 189.36,211.96 182.96,211.96 182.96,206.84 180.66,206.84 180.66,219.23 182.96,219.23 182.96,213.92 189.36,213.92 189.36,219.23 191.66,219.23 191.66,206.84 "/>
   <path id="_16" class="fil4" d="M200.78 219.41c3.84,0 6.67,-2.69 6.67,-6.37 0,-3.68 -2.83,-6.37 -6.67,-6.37 -3.84,0 -6.67,2.7 -6.67,6.37 0,3.66 2.83,6.37 6.67,6.37zm0 -2.02c-2.5,0 -4.36,-1.82 -4.36,-4.35 0,-2.53 1.86,-4.36 4.36,-4.36 2.49,0 4.35,1.83 4.35,4.36 0,2.53 -1.86,4.35 -4.35,4.35z"/>
   <path id="_17" class="fil4" d="M215.68 219.41c3.84,0 6.67,-2.69 6.67,-6.37 0,-3.68 -2.83,-6.37 -6.67,-6.37 -3.84,0 -6.67,2.7 -6.67,6.37 0,3.66 2.83,6.37 6.67,6.37zm0 -2.02c-2.5,0 -4.36,-1.82 -4.36,-4.35 0,-2.53 1.86,-4.36 4.36,-4.36 2.49,0 4.35,1.83 4.35,4.36 0,2.53 -1.86,4.35 -4.35,4.35z"/>
   <polygon id="_18" class="fil4" points="224.79,219.23 233.57,219.23 233.57,217.28 227.09,217.28 227.09,206.84 224.79,206.84 "/>
  </g>
 </g>
</svg>
