<?xml version="1.0" encoding="UTF-8"?>
<!DOCTYPE svg PUBLIC "-//W3C//DTD SVG 1.1//EN" "http://www.w3.org/Graphics/SVG/1.1/DTD/svg11.dtd">
<!-- Creator: CorelDRAW 2021 (64-Bit) -->
<svg xmlns="http://www.w3.org/2000/svg" xml:space="preserve" width="821px" height="436px" version="1.1" style="shape-rendering:geometricPrecision; text-rendering:geometricPrecision; image-rendering:optimizeQuality; fill-rule:evenodd; clip-rule:evenodd"
viewBox="0 0 173.94 92.37"
 xmlns:xlink="http://www.w3.org/1999/xlink"
 xmlns:xodm="http://www.corel.com/coreldraw/odm/2003">
 <defs>
  <style type="text/css">
   <![CDATA[
    .fil1 {fill:#014986}
    .fil3 {fill:#27557A}
    .fil2 {fill:#3184B5}
    .fil4 {fill:#528DB5}
    .fil13 {fill:#557A98}
    .fil7 {fill:#769AB7}
    .fil5 {fill:#8AB6D7}
    .fil12 {fill:#A8BDD0}
    .fil0 {fill:#B24655}
    .fil10 {fill:#C8E7FB}
    .fil8 {fill:#D9A5AA}
    .fil11 {fill:#DCFCFF}
    .fil6 {fill:#F8F8F5}
    .fil9 {fill:#FBE7E7}
   ]]>
  </style>
 </defs>
 <g id="Layer_x0020_1">
  <metadata id="CorelCorpID_0Corel-Layer"/>
  <g id="_1495233970624">
   <path class="fil0" d="M170.56 69.08l-127.64 -3.24c0.22,1.59 2.42,4.12 3.14,5.55 9.86,0.81 20.72,0.65 30.75,0.89 10.11,0.25 20.19,0.48 30.29,0.74 10.25,0.27 20.48,0.57 30.72,0.86 8.81,0.25 22.41,1.32 30.66,0.47l2.08 -5.27z"/>
   <path class="fil0" d="M53.54 60.27c-15.37,-4.04 -14.76,-7.65 -16.44,-8.37 -1.14,1.62 3.02,9.81 4.5,11.94l130.21 3.15c0.93,-3.15 2.27,-5.45 2.12,-9.51 -1.9,0.49 -0.01,-0.26 -1.59,0.98 -2.48,1.94 -6.65,3.86 -9.52,4.81 -4.32,1.43 -9.08,2.58 -14.22,2.26 -0.24,-1.05 -0.26,-1.3 -0.41,-2.35 -0.09,-0.58 -0.1,-0.9 -0.27,-1.47 -0.31,-1.05 0.07,-0.26 -0.42,-0.88 -0.74,-0.36 -65.63,-1.83 -70.69,-1.37l-0.63 4c-5.69,0.11 -17.35,-1.81 -22.64,-3.19z"/>
   <path class="fil1" d="M22.8 78.79l1.21 0.56 -0.21 -0.99c-0.16,-0.94 -3.21,-6.05 -4.09,-7.96l-4.87 -13.18c-0.43,-1.48 -0.38,-3.63 -0.46,-5.47 -0.14,-2.9 -1.08,-8.11 -0.39,-10.77 7.06,-0.3 17.26,-4.05 18.5,-10.64 1.42,-7.59 -8.66,-12.59 -14.87,-13.98 -0.11,-5.22 1.74,-10.3 1.1,-16.36l-3.49 0.1 -2.84 15.11c-2.03,0.17 -4.3,-0.11 -6.41,-0.05 -2.28,0.06 -4.43,0 -5.98,1.12 2.25,0.08 4.31,0.37 6.46,0.58 6.17,0.6 3.13,1.35 4.84,2.03 4.02,0.32 4.46,0.1 7.33,2.23 1.42,1.05 3.52,2.83 4.05,5.39 1.1,5.25 -4.47,9.01 -8.71,9.85 0.53,-6.44 1.93,-8.56 2.24,-12.03 0.05,-0.6 0.2,-1.79 0.21,-2.3l-0.23 -1.58 -4.72 -0.41c-1.93,13.34 -4.04,19.13 -0.94,33.7 1.4,6.58 8.47,23.51 12.27,25.05z"/>
   <path class="fil0" d="M54.05 79.82c0.9,1.57 2.65,2.3 4.45,3.35 7.55,4.41 9.03,3.02 18.72,3.06l72.89 0c3.85,0.01 8.3,-0.53 10.7,-3.75l-106.76 -2.66z"/>
   <path class="fil0" d="M47.82 73.59c3.08,5.68 3.79,4.2 11.8,4.39l95.38 2.4c3.55,0.09 10.97,1.56 11.81,-3.85l-118.99 -2.94z"/>
   <path class="fil0" d="M85.46 49.41c-0.83,1.45 -0.89,5.12 -2.18,5.98 -1.24,0.82 -4.17,0.75 -5.57,2.02l66 0.42c-3.56,-2.53 -4.58,-5.66 -5.47,-6.04l-52.78 -2.38z"/>
   <path class="fil1" d="M54.43 31.4c2.93,-0.43 5.24,0.17 5.1,3.14 -0.13,2.73 -2.46,2.99 -5.34,3.02l0.24 -6.16zm-4.41 -1.03c0.09,0.08 0.23,0.15 0.31,0.2l1.05 0.8c0.65,0.78 0.4,0.16 0.54,1.53l-0.18 11.44c-0.65,0.45 -1.4,0.5 -1.67,1.08l6.16 -0.18 -1.84 -0.86c-0.14,-1.08 -0.23,-2.18 -0.22,-3.28l0.53 -2.6c1.97,0.49 3.32,3.18 4.3,4.48 1.94,2.56 1.25,2.52 5.37,2.44 -0.32,-0.64 -0.98,-0.77 -1.75,-1.56l-4.47 -5.56c1.31,-0.64 2.94,-0.84 3.62,-2.42 2.84,-6.66 -9.48,-5.54 -11.75,-5.51z"/>
   <path class="fil1" d="M125.31 37.56c-0.37,-1.91 -0.47,-4.31 0.09,-6.17 2.87,-0.44 5.08,0.25 4.94,3.15 -0.13,2.65 -2.23,2.97 -5.03,3.02zm-4.5 -6.97c2.13,1.23 1.97,0.04 1.93,6.03 -0.01,2.58 0.16,5.2 -0.15,7.79l-1.69 1 6.09 0.03c-0.41,-0.84 -0.7,-0.43 -1.73,-1.07 -0.27,-1.85 -0.51,-4.4 0.28,-5.88 4.67,1.23 2.42,7.22 9.5,6.85 -0.07,-0.08 -0.19,-0.17 -0.24,-0.22l-1.54 -1.49c-1.22,-1.31 -3.51,-4.03 -4.19,-5.57 1.5,-0.35 3.06,-0.78 3.63,-2.5 2.03,-6.05 -8.87,-5.75 -11.89,-4.97z"/>
   <path class="fil0" d="M138.89 22c-0.29,2.09 -0.4,1.33 -1.03,2.98 -1.24,-1.5 -1.35,-2.28 -1.12,-3.87l2.15 0.89zm-2.25 -5.65c1.44,0.64 1.8,0.39 3.97,0.34 -0.86,2.05 -0.3,0.33 -2.2,1.57l-0.51 0.45c-0.05,-0.08 -0.19,0.18 -0.29,0.26 -0.57,0.71 -0.49,0.47 -1.16,1.09 -0.83,0.78 -0.18,0.07 -0.67,0.86 -0.43,-0.33 -0.41,-0.29 -0.76,-0.72 -0.05,-0.06 -0.12,-0.16 -0.17,-0.22l-0.66 -1.04c-2.89,11.76 12.52,11.69 11.8,2.12l-0.24 -0.01c-0.45,-0.07 0.02,0.01 -0.45,-0.08l-1.25 -0.22c-0.88,1.29 -0.49,1.95 -1.72,3.2l-0.83 -1.67c-0.48,-0.78 0.07,-0.11 -0.54,-0.68 -0.06,-0.06 -0.18,-0.14 -0.24,-0.19l-0.08 -1.49c-0.02,-1.24 -0.26,-0.88 0.34,-1.82 0.47,-0.73 0.58,-0.56 1.24,-0.83 2.54,0.32 0.97,0.04 1.42,-0.31 -2.32,-1.9 -4.5,-1.4 -7,-0.61z"/>
   <path class="fil1" d="M71.84 31.12c7.56,-1.94 7.65,12.28 2.42,13.62 -7.57,1.94 -7.9,-12.22 -2.42,-13.62zm8.37 8.77c2.3,-10.63 -11.97,-13.54 -14.35,-4.38 -2.86,10.99 12.23,14.22 14.35,4.38z"/>
   <path class="fil1" d="M106.85 30.58c2.55,1.49 1.99,0.26 1.98,7.67 -0.01,10.03 -0.79,5.02 -1.85,7.18l12.02 0.04 1.1 -3.82c-1.71,0.46 -1.02,1.96 -3.26,2.66 -1.69,0.53 -4.24,0.38 -5.67,-0.11l0.13 -6.2c8.12,-0.16 4.22,1.12 6.34,2.12l-0.01 -5.09c-1.62,0.96 0.21,1.5 -2.32,1.99 -0.93,0.18 -3.11,0.06 -4.17,0.01l0.12 -5.67c1.22,-0.11 4.08,-0.26 5.21,0 2,0.45 1.1,1.01 2.43,2.22l0.06 -3.09c-2.35,-0.3 -9.97,-0.41 -12.11,0.09z"/>
   <path class="fil1" d="M98.59 31.38c6.59,-0.76 5.78,4.97 3.64,6.11 -1.18,0.62 -2.12,0.37 -3.76,0.55l0.12 -6.66zm-3.71 -0.63c0.23,0.17 0.35,0.21 0.53,0.38 0.79,0.76 0.24,-0.39 0.66,1.03l0.1 6.5c-0.02,8.71 -0.5,4.47 -1.62,6.78l5.82 -0.03c-0.73,-1.46 -2.69,0.82 -1.67,-6.54 4.12,-0.02 9.12,-1.04 7.18,-5.93 -1.31,-3.32 -7.86,-2.66 -11.58,-2.56l0.58 0.37z"/>
   <path class="fil1" d="M41.81 37.88c-0.39,-1.98 -0.48,-4.57 0.05,-6.52 2.8,-0.33 4.85,0.49 4.92,3.23 0.08,3.08 -2.05,3.4 -4.97,3.29zm-4.39 -7.43c0.09,0.07 0.22,0.14 0.29,0.18l1.45 0.89c0.13,2.65 0.05,5.31 0.06,7.96 0.03,7.57 -0.59,4.15 -1.59,5.96l5.87 -0.03c-0.41,-0.79 -0.69,-0.37 -1.74,-1.08 -0.24,-1.78 -0.4,-3.84 0.13,-5.5 4.08,0.09 9.1,-1.27 7.1,-5.9 -1.33,-3.09 -7.49,-2.85 -11.57,-2.48z"/>
   <path class="fil1" d="M84.91 45.27c1.5,0.17 4.22,1.36 6.49,-1.03 5.69,-6.01 -10.66,-8.88 -5.81,-12.76 0.97,-0.78 2.91,-0.38 3.84,0.27 1.48,1.03 1.03,1.74 2.12,3.12 0.5,-0.95 0,-3.05 -0.1,-4.45 -2.99,0.37 -1.74,-0.22 -4.42,-0.34 -3.32,-0.16 -7.53,4.27 -0.57,8.36 3.24,1.89 5.28,4.73 2.39,6.14 -1.48,0.72 -3.38,0.11 -4.24,-0.61 -0.93,-0.77 -1.2,-1.88 -2.06,-3.02 -0.56,0.95 0.04,2.99 0.29,4.27l2.07 0.05z"/>
   <path class="fil1" d="M147.01 45.43l6.27 -0.01c-0.49,-0.81 -0.77,-0.38 -1.8,-1.09l-0.02 -12.95c1.04,-0.04 2.68,-0.12 3.49,0.41 1.09,0.71 0.12,-0.12 0.87,1.17 0.72,1.23 -0.33,0.3 0.86,1.23l-0.11 -3.71c-2.33,-0.29 -10.77,-0.41 -12.87,0.1l-0.09 3.58c2.39,-1.23 -0.45,-2.73 5.34,-2.83l-0.15 13.1 -1.79 1z"/>
   <path class="fil1" d="M166.42 38.42c-1.9,-2.68 0.92,1.17 -0.54,-0.72 -0.04,-0.06 -0.18,-0.12 -0.21,-0.27 -0.04,-0.17 -0.15,-0.19 -0.23,-0.28 -0.39,-2.02 -2.17,-3.34 -2.99,-5.45 0.6,-1.37 -0.07,-0.25 1.45,-1.32l-6.31 0.19c2.61,1.6 3.28,3.21 5.57,6.52 1.18,1.71 1.19,2.27 1.15,4.86 -0.05,3.28 -0.13,2.14 -2.17,3.47l6.59 -0.2c-0.86,-0.5 -1.16,-0.3 -2.06,-1.02l-0.25 -5.78z"/>
   <path class="fil1" d="M136.02 30.38c0.1,0.07 0.25,0.13 0.33,0.18 0.07,0.04 0.22,0.11 0.31,0.17 1.21,0.69 1.41,0.46 1.59,2.17 0.31,2.97 0.09,10.25 -0.76,12.56l4.23 -0.08c-1.76,-2.44 -1.14,-3.52 -1.14,-8.35 0,-7.54 -0.09,-5.03 2.18,-6.65l-6.74 0z"/>
   <path class="fil2" d="M165.78 51.61l-0.26 -0.23 -1.19 0.6c-0.05,-1.76 -0.43,-2.45 0.79,-3.42l-3.03 0.1c0.84,0.47 0.89,-0.61 0.86,3.92 -0.03,5.7 -0.99,3.53 0.67,4.29 2.11,-0.97 0.19,1.18 0.82,-3.81 1.47,0.81 1.88,1.4 2.77,2.9l0.33 0.56c0.03,-0.06 0.11,0.2 0.17,0.35l2.14 -0.11c-1.42,-1.92 -3.27,-3.24 -4.07,-5.15z"/>
   <path class="fil2" d="M45.83 18.95l-0.15 7.42c0.39,-0.02 0.64,0.04 1.13,-0.1 1.73,-0.52 -0.06,0.45 0.5,-0.34 -0.16,-0.3 -0.38,0.32 -0.58,-1.56 -0.09,-0.83 0.08,-1.37 0.21,-2.15 1.71,-0.44 2.39,-0.56 3.9,0.27 0.26,2.7 -0.66,2.03 0.59,3.77 0.82,-1.42 0.31,-4.71 0.66,-8.13l-1.62 -0.17 0.26 4.06 -3.72 -0.21c0,-0.39 -0.05,-1.28 -0.01,-1.59 0.24,-1.95 -0.19,-0.71 0.51,-1.28 -0.04,-1.23 -0.31,-0.73 -1.88,-0.94l0.2 0.95z"/>
   <path class="fil3" d="M22.8 78.79c1.62,3.05 4.57,5.57 6.91,7.8 1.91,1.81 6.1,5.16 8.7,5.78l-2.16 -1.69c-6.64,-4.08 -8.25,-7.94 -11.44,-11.45 -1.82,-2.01 1.66,1.58 -0.46,-0.45 -0.05,-0.05 -0.22,-0.06 -0.26,-0.21 -0.05,-0.15 -0.19,-0.14 -0.29,-0.21l0.21 0.99 -1.21 -0.56z"/>
   <path class="fil4" d="M54.7 18.96l-0.32 6.19c0.75,1.51 -1.35,1.25 1.55,1.21 -0.02,-1.15 -0.4,-3.15 0.35,-3.83l1.86 -0.2 0.25 0.42c1.27,-0.67 0.84,1.23 1.1,-0.87l-1.59 -0.19c-0.69,0.06 -1.15,0.11 -2,0.12l0.13 -3.18c3.4,0.03 2.49,-0.31 3.99,1.2l0.07 -1.72 -5.74 0.01 0.35 0.84z"/>
   <path class="fil5" d="M47.31 25.93l-0.05 -3.33 3.2 0.05c0.1,2.09 0.31,2.42 -0.57,3.68l9.33 0.27c1.83,-0.39 0.6,0.03 1.2,-0.75 -0.88,0.41 -1.24,0.92 -1.24,-0.39l-2.83 0.24 -0.07 -3.17c-0.75,0.68 -0.37,2.68 -0.35,3.83 -2.9,0.04 -0.8,0.3 -1.55,-1.21 -1,1.52 0.32,0.88 -1.81,0.83 -0.48,-1.65 -0.5,-5.71 -0.03,-7.52l2.16 0.5 -0.35 -0.84 -2.26 0.01c-0.35,3.42 0.16,6.71 -0.66,8.13 -1.25,-1.74 -0.33,-1.07 -0.59,-3.77 -1.51,-0.83 -2.19,-0.71 -3.9,-0.27 -0.13,0.78 -0.3,1.32 -0.21,2.15 0.2,1.88 0.42,1.26 0.58,1.56z"/>
   <path class="fil6" d="M54.38 25.15l0.32 -6.19 -2.16 -0.5c-0.47,1.81 -0.45,5.87 0.03,7.52 2.13,0.05 0.81,0.69 1.81,-0.83z"/>
   <path class="fil4" d="M154.05 56.55c1.59,-2.51 -0.15,-3.48 0.97,-7.39l0.06 2.64c0.38,1.2 0.19,0.5 0.76,1.19 3.43,0 1.12,-0.05 2.04,-0.77l-2.31 0.24 0.4 -3.6 2.35 0.82 0.04 2.09c0.9,-1 0.75,1.21 0.75,-1.12l0.21 1.04c0.47,-0.39 0.52,0.75 0.6,-1.11 0.11,-2.72 -4.82,-2.18 -6.42,-2 1.29,1.24 0.75,5.98 0.55,7.97z"/>
   <path class="fil2" d="M154.05 56.55c0.09,0.04 0.21,0.11 0.28,0.12l1.52 0.14 -0.15 -3.81c1.5,0.6 1.3,1.02 2.27,2.33 0.93,1.24 0.93,1.49 2.83,1.42 -1.13,-1.62 -2.14,-2.24 -2.84,-3.75 0.27,-0.21 0.66,-0.43 0.89,-0.65 0.66,-0.62 0.14,0 0.47,-0.66l-0.21 -1.04c0,2.33 0.15,0.12 -0.75,1.12l-0.48 0.45c-0.92,0.72 1.39,0.77 -2.04,0.77 -0.57,-0.69 -0.38,0.01 -0.76,-1.19l-0.06 -2.64c-1.12,3.91 0.62,4.88 -0.97,7.39z"/>
   <path class="fil3" d="M165.44 37.15c0.08,0.09 0.19,0.11 0.23,0.28 0.03,0.15 0.17,0.21 0.21,0.27 1.46,1.89 -1.36,-1.96 0.54,0.72 0.41,-0.35 0.34,-0.23 0.74,-0.69 0.08,-0.09 0.3,-0.39 0.37,-0.49 1.81,-2.44 1.98,-3.96 4.58,-5.98l0.75 -0.63c0.04,-0.16 0.17,-0.17 0.25,-0.33l-4.94 0.14c0.08,0.06 0.2,0.14 0.25,0.18l0.49 0.39c0.55,0.47 0.19,0.03 0.66,0.69l-2.59 4.6c-0.92,1.18 0.33,0.96 -1.54,0.85z"/>
   <path class="fil5" d="M43.5 19.03c-1.33,-1.04 -1.33,-0.68 -1.9,-0.69 -0.77,1.49 -0.54,2.13 -0.53,3.95 0.02,1.51 0.31,2.76 -0.29,3.89 -0.68,-0.89 -0.5,0.46 -0.57,-1.82l-0.03 -6.34 -3.14 -0.06 -0.14 2.28c1.16,-0.69 1.46,-1.24 2.95,-1.33 0.02,2.78 0.4,5.65 -0.71,7.44l3.24 0.13c-1.29,-1.91 -0.92,-5.19 -0.82,-7.58l1.94 0.13z"/>
   <path class="fil2" d="M147.87 50.27l0.76 0.54 0.59 2.42 0.57 1.06c1,2.69 -0.4,2.58 2.52,2.54 -0.66,-1.9 -2.67,-6.81 -4,-8.29l-0.44 1.73z"/>
   <path class="fil7" d="M149.79 54.29l-0.57 -1.06c-0.95,0.58 -0.79,0.36 -2.28,0.4 0.43,-1.55 0.46,-2.11 1.69,-2.82l-0.76 -0.54c-1.53,0.99 -1.06,1.48 -1.8,3.22 -2.49,5.86 -1.52,2.45 -0.88,3.6 1.29,-0.76 0.66,-0.14 1.35,-2.8l3.25 0z"/>
   <path class="fil2" d="M43.5 19.03l0.13 0.27c0.38,-0.35 0.48,0.64 0.31,-1.1l-3.76 -0.18 0.03 6.34c0.07,2.28 -0.11,0.93 0.57,1.82 0.6,-1.13 0.31,-2.38 0.29,-3.89 -0.01,-1.82 -0.24,-2.46 0.53,-3.95 0.57,0.01 0.57,-0.35 1.9,0.69z"/>
   <path class="fil8" d="M137.61 18.97c0.1,-0.08 0.24,-0.34 0.29,-0.26l0.51 -0.45c1.9,-1.24 1.34,0.48 2.2,-1.57 -2.17,0.05 -2.53,0.3 -3.97,-0.34 -1.26,0.55 -0.22,-0.72 -1.16,0.74 0.82,0.48 0.68,0.07 1.73,1.1l0.4 0.78z"/>
   <path class="fil9" d="M137.86 24.98c0.63,-1.65 0.74,-0.89 1.03,-2.98l-2.15 -0.89c-0.23,1.59 -0.12,2.37 1.12,3.87z"/>
   <path class="fil10" d="M47.51 18.94c-0.7,0.57 -0.27,-0.67 -0.51,1.28 -0.04,0.31 0.01,1.2 0.01,1.59l3.72 0.21 -0.26 -4.06 -1.09 -0.2c0.9,1.77 0.62,0.88 0.73,2.01 0,0.04 -0.34,0.54 0.31,1.56l-2.68 0.15 -0.23 -2.54z"/>
   <path class="fil8" d="M140.64 19.92c1.65,0.24 1.47,0.06 2.58,0.77 -0.41,-1.69 -0.17,-1.47 -1.86,-1.9l0.83 -0.25 0.03 -1.27c-0.66,0.27 -0.77,0.1 -1.24,0.83 -0.6,0.94 -0.36,0.58 -0.34,1.82z"/>
   <path class="fil11" d="M149.22 53.23l-0.59 -2.42c-1.23,0.71 -1.26,1.27 -1.69,2.82 1.49,-0.04 1.33,0.18 2.28,-0.4z"/>
   <path class="fil7" d="M165.52 51.38l0.26 0.23 2.8 -2.26c0.06,-0.06 0.17,-0.15 0.22,-0.2 0.06,-0.05 0.18,-0.16 0.23,-0.21l-2.21 -0.4c0.72,1.74 0.11,0.66 -1.3,2.84z"/>
   <path class="fil12" d="M43.63 19.3l2.2 -0.35 -0.2 -0.95 -1.69 0.2c0.17,1.74 0.07,0.75 -0.31,1.1z"/>
   <path class="fil13" d="M59.18 25.46c0,1.31 0.36,0.8 1.24,0.39l0.2 -1.33 -1.44 0.94z"/>
  </g>
 </g>
</svg>
