<?xml version="1.0" encoding="UTF-8"?>
<!DOCTYPE svg PUBLIC "-//W3C//DTD SVG 1.1//EN" "http://www.w3.org/Graphics/SVG/1.1/DTD/svg11.dtd">
<!-- Creator: CorelDRAW 2021 (64-Bit) -->
<svg xmlns="http://www.w3.org/2000/svg" xml:space="preserve" width="492px" height="552px" version="1.1" style="shape-rendering:geometricPrecision; text-rendering:geometricPrecision; image-rendering:optimizeQuality; fill-rule:evenodd; clip-rule:evenodd"
viewBox="0 0 492 551.3"
 xmlns:xlink="http://www.w3.org/1999/xlink"
 xmlns:xodm="http://www.corel.com/coreldraw/odm/2003">
 <defs>
  <style type="text/css">
   <![CDATA[
    .fil1 {fill:white;fill-rule:nonzero}
    .fil14 {fill:white;fill-opacity:0.101961}
    .fil2 {fill:#012B90;fill-rule:nonzero;fill-opacity:0.301961}
    .fil5 {fill:#F44B3B;fill-rule:nonzero;fill-opacity:0.301961}
    .fil7 {fill:#BA54FF;fill-rule:nonzero;fill-opacity:0.501961}
    .fil4 {fill:white;fill-rule:nonzero;fill-opacity:0.501961}
    .fil9 {fill:url(#id0)}
    .fil3 {fill:url(#id1)}
    .fil0 {fill:url(#id2)}
    .fil8 {fill:url(#id3)}
    .fil15 {fill:url(#id4)}
    .fil13 {fill:url(#id5)}
    .fil12 {fill:url(#id6)}
    .fil10 {fill:url(#id7);fill-rule:nonzero}
    .fil11 {fill:url(#id8);fill-rule:nonzero}
    .fil6 {fill:url(#id9);fill-rule:nonzero}
   ]]>
  </style>
  <linearGradient id="id0" gradientUnits="userSpaceOnUse" x1="353.62" y1="392.22" x2="457.56" y2="392.22">
   <stop offset="0" style="stop-opacity:1; stop-color:#350166"/>
   <stop offset="1" style="stop-opacity:1; stop-color:#BC258E"/>
  </linearGradient>
  <linearGradient id="id1" gradientUnits="userSpaceOnUse" x1="34.44" y1="164.15" x2="359.82" y2="164.15">
   <stop offset="0" style="stop-opacity:1; stop-color:#FF9A1E"/>
   <stop offset="0.721569" style="stop-opacity:1; stop-color:#FFBB0F"/>
   <stop offset="1" style="stop-opacity:1; stop-color:#FFDD00"/>
  </linearGradient>
  <linearGradient id="id2" gradientUnits="userSpaceOnUse" x1="34.44" y1="351.79" x2="370.17" y2="351.79">
   <stop offset="0" style="stop-opacity:1; stop-color:#BC258E"/>
   <stop offset="1" style="stop-opacity:1; stop-color:#350166"/>
  </linearGradient>
  <linearGradient id="id3" gradientUnits="userSpaceOnUse" xlink:href="#id2" x1="359.29" y1="392.27" x2="437.95" y2="392.27">
  </linearGradient>
  <linearGradient id="id4" gradientUnits="userSpaceOnUse" xlink:href="#id2" x1="36.07" y1="60.53" x2="89.68" y2="43.32">
  </linearGradient>
  <linearGradient id="id5" gradientUnits="userSpaceOnUse" xlink:href="#id1" x1="36.07" y1="60.53" x2="89.68" y2="43.32">
  </linearGradient>
  <linearGradient id="id6" gradientUnits="userSpaceOnUse" xlink:href="#id2" x1="15" y1="40.27" x2="95.07" y2="14.56">
  </linearGradient>
  <linearGradient id="id7" gradientUnits="objectBoundingBox" xlink:href="#id0" x1="0%" y1="49.9991%" x2="100%" y2="49.9991%">
  </linearGradient>
  <linearGradient id="id8" gradientUnits="objectBoundingBox" xlink:href="#id1" x1="0%" y1="50.0006%" x2="99.9999%" y2="50.0006%">
  </linearGradient>
  <linearGradient id="id9" gradientUnits="userSpaceOnUse" x1="16.66" y1="324.77" x2="319.56" y2="179.9">
   <stop offset="0" style="stop-opacity:1; stop-color:#FFB611"/>
   <stop offset="1" style="stop-opacity:1; stop-color:#7C147B"/>
  </linearGradient>
 </defs>
 <g id="Layer_x0020_1">
  <metadata id="CorelCorpID_0Corel-Layer"/>
  <g id="_1531352219488">
   <path class="fil0" d="M288.22 277.75l0 -1.07c0,0 -253.78,-26.79 -253.78,6.08l0 154.44 43.08 0c32.86,0 59.5,-26.64 59.5,-59.51l0 -73.22 53.96 0 50.04 99.87c10.09,20.14 30.68,32.86 53.2,32.86l75.95 0 -81.95 -159.45z"/>
   <g>
    <path class="fil1" d="M179.42 298.26l-53.96 0 0 73.23c0,32.86 -26.64,59.5 -59.51,59.5l-31.51 0 0 6.21 43.08 0c32.86,0 59.5,-26.64 59.5,-59.51l0 -73.22 45.51 0 -3.11 -6.21z"/>
    <path class="fil1" d="M288.22 277.75l0 -1.07c0,0 -3.41,-0.36 -9.4,-0.94l79.79 155.25 -75.95 0c-7.75,0 -15.25,-1.54 -22.2,-4.33 1.19,0.81 2.4,1.58 3.64,2.31 0.1,0.06 0.21,0.12 0.31,0.18 1.13,0.66 2.29,1.28 3.46,1.86 0.2,0.09 0.39,0.18 0.58,0.28 1.09,0.52 2.19,1.01 3.31,1.47 0.27,0.11 0.55,0.22 0.83,0.33 1.04,0.41 2.1,0.78 3.17,1.13 0.35,0.12 0.69,0.23 1.05,0.34 1.01,0.31 2.03,0.59 3.06,0.84 0.4,0.1 0.81,0.21 1.22,0.31 0.99,0.22 2,0.41 3.01,0.58 0.44,0.08 0.88,0.17 1.33,0.24 1.04,0.15 2.09,0.26 3.14,0.36 0.41,0.04 0.82,0.1 1.24,0.13 1.46,0.11 2.93,0.18 4.41,0.18l75.95 0 -81.95 -159.45z"/>
   </g>
   <path class="fil2" d="M290.86 282.89l-2.64 -5.14 0 -1.07c0,0 -53.9,-5.68 -112.01,-8.6 1.47,14.56 5.42,28.03 8.32,36.39l6.45 0 4.93 9.83c16.7,1.53 56.75,0.94 94.95,-31.41z"/>
   <path class="fil2" d="M153.65 284.34c0,0 -82.16,-16.21 -119.21,18.92l0 49.69c0,0 26.94,-37.22 102.58,-38.31l0 -10.17 16.63 0 0 -20.13z"/>
   <path class="fil3" d="M247.19 137.84c0.93,1.57 1.79,3.24 2.56,5 1.26,2.58 1.91,5.27 3.27,10.43 7.38,27.89 31.39,83.2 12.59,136.1 0,0 9.41,-4.76 22.61,-12.32l0 -0.37c2.52,-1.24 4.96,-2.55 7.36,-3.9 1.19,-0.7 2.4,-1.42 3.63,-2.16 37.79,-22.69 60.61,-59.43 60.61,-108.28 0,-79.07 -57.17,-123.42 -149.07,-123.42l-176.31 0 0 15.84c0,32.86 26.64,59.5 59.5,59.5l94.91 0c24.5,0 47.13,4.81 58.34,23.58z"/>
   <path class="fil4" d="M47.92 65.3l0 -15.83 176.32 0c41.11,0 75.23,8.89 100.43,25.78 -25.85,-23.73 -64.95,-36.33 -113.92,-36.33l-176.31 0 0 15.84c0,22.13 12.11,41.39 30.03,51.65 -10.22,-10.69 -16.55,-25.15 -16.55,-41.11z"/>
   <path class="fil5" d="M359.37 150.99c-7.24,72.89 -45.5,90.37 -45.5,90.37 12.16,-83.5 -61.97,-92.31 -61.97,-92.31 0.33,1.21 0.69,2.59 1.12,4.22 7.38,27.89 31.39,83.2 12.59,136.1 0,0 9.41,-4.76 22.61,-12.32l0 -0.37c2.52,-1.24 4.96,-2.55 7.36,-3.9 1.19,-0.7 2.4,-1.42 3.63,-2.16 37.79,-22.69 60.61,-59.43 60.61,-108.28 0,-3.87 -0.18,-7.64 -0.45,-11.35z"/>
   <path class="fil6" d="M253.02 153.27c1,4.77 1.54,10.08 1.54,16.02 0,44.35 -30.98,53.96 -65.71,53.96l-94.91 0c-32.86,0 -59.5,26.64 -59.5,59.51l0 70.19c24.25,-51.94 80.17,-48.48 102.58,-48.48l53.96 0c61.9,0 97.24,-27.79 97.24,-27.79 0,0 15.64,-27.85 8.46,-67.06 -8.34,-45.49 -43.66,-56.35 -43.66,-56.35z"/>
   <path class="fil4" d="M93.94 234.13l94.91 0c34.73,0 65.71,-9.61 65.71,-53.96 0,-1.89 -0.07,-3.71 -0.18,-5.48 -2.45,39.72 -32.27,48.56 -65.53,48.56l-94.91 0c-32.86,0 -59.5,26.64 -59.5,59.51l0 10.88c0,-32.87 26.64,-59.51 59.5,-59.51z"/>
   <path class="fil7" d="M137.02 304.47l53.96 0c61.9,0 97.24,-27.79 97.24,-27.79 0,0 15.64,-27.85 8.46,-67.06 -8.34,-45.49 -43.66,-56.35 -43.66,-56.35 1,4.77 1.54,10.08 1.54,16.02 0,0.97 25.4,8.04 29.55,57.04 3.63,42.83 -35.35,69.51 -91.08,70 -55.74,0.49 -99.43,-8.19 -129.74,16.26 -20.2,16.28 -27.1,26.66 -28.48,39.62 24.44,-51.15 79.91,-47.74 102.21,-47.74z"/>
   <g>
    <path class="fil8" d="M410.96 419.85c-5.39,11.16 -33.87,5.97 -22.51,-11.27 12.61,-19.12 26.13,3.78 22.51,11.27zm-8.6 -24.04l2.92 0.13c0.15,3.24 -2.78,4.95 -2.92,-0.13zm-10.2 0.03l2.79 0.04c0.02,2.33 -0.4,2.88 -2.16,2.62 -1.85,-3.08 -0.59,-1.54 -0.63,-2.66zm15.57 -1.88c-2.46,-11.11 22.75,-24.9 24.28,-3.48 1.62,22.77 -21.89,14.27 -24.28,3.48zm-19.16 1.73c-6.38,13.04 -27.13,13.99 -23.09,-7.51 3.66,-19.51 28.41,-3.39 23.09,7.51zm7.17 -5.71c1.5,-0.84 2.36,-1.19 4.76,-0.95 5.26,7.03 -6.76,10.53 -4.76,0.95zm6.7 -4.52c4.83,-0.7 3.34,3.06 0.57,2.77 -0.12,-0.2 -0.39,-0.69 -0.4,-0.56 -0.01,0.12 -0.24,-0.51 -0.25,-0.64 -0.52,-5.89 0.01,3.19 0.08,-1.57zm-9.62 -0.17c1.79,0.34 2.39,-0.61 2.25,1.64 -0.1,1.75 -1.4,1.41 -2.39,1.25 -0.91,-2.07 -1.55,-0.51 0.14,-2.89zm2.45 -26.24c32.92,-5.71 7.67,43.34 -8.03,14.67 -4.62,-8.44 -0.02,-13.28 8.03,-14.67zm-1.09 -5.78c-20.7,2.32 -37.23,19.81 -34.62,43.81 2.17,19.99 21.13,37.12 44.47,34.11 19.9,-2.57 36.65,-20.48 33.55,-44.89 -2.48,-19.53 -21.1,-35.52 -43.4,-33.03z"/>
    <path class="fil9" d="M356.86 398.28c-4.35,-24.71 15.7,-44.9 35.72,-47.83 24.68,-3.61 45.08,14.84 47.77,35.75 3.31,25.81 -14.72,44.3 -35.99,47.69 -25.24,4.03 -43.96,-15.5 -47.5,-35.61zm99.82 20.21c0.96,-1.53 0.76,0.18 0.88,-2.93 0.12,-3.1 -2.56,-6.47 -5.07,-8.01 -4.96,-3.04 -8.58,0.15 -12.01,2.19 3.2,-16.21 6.01,-23.28 -2.12,-38.88 -19.21,-36.89 -75.76,-28.86 -83.85,12.38 -7.84,39.94 37.69,72.87 75.96,41.42 6.88,-5.65 14.67,-18.23 21.04,-13.53 4.4,3.25 -0.7,5.71 5.17,7.36z"/>
   </g>
  </g>
  <path class="fil10" d="M28.15 513.24l16.93 0 -9.87 -14.51c5.64,-2.89 8.86,-7.99 8.86,-14.78 0,-10.88 -8.33,-17.74 -21.43,-17.74l-22.64 0 0 47.03 15.86 0 0 -11.82 4.3 0 7.99 11.82zm-0.07 -29.29c0,3.43 -2.08,5.51 -6.45,5.51l-5.77 0 0 -11.02 5.77 0c4.37,0 6.45,2.08 6.45,5.51z"/>
  <path id="_1" class="fil10" d="M74.71 514.32c15.32,0 26.54,-10.35 26.54,-24.59 0,-14.25 -11.22,-24.59 -26.54,-24.59 -15.32,0 -26.54,10.34 -26.54,24.59 0,14.24 11.22,24.59 26.54,24.59zm0 -12.83c-5.85,0 -10.55,-4.44 -10.55,-11.76 0,-7.33 4.7,-11.76 10.55,-11.76 5.85,0 10.55,4.43 10.55,11.76 0,7.32 -4.7,11.76 -10.55,11.76z"/>
  <polygon id="_2" class="fil10" points="150.7,466.21 135.38,466.21 125.7,482.47 116.1,466.21 99.37,466.21 117.1,495.98 117.1,513.24 132.96,513.24 132.96,496.18 "/>
  <path id="_3" class="fil10" d="M184.89 513.24l16.4 0 -20.56 -47.03 -15.59 0 -20.56 47.03 16.13 0 3.16 -8.19 17.87 0 3.15 8.19zm-16.66 -19.61l4.57 -11.83 4.57 11.83 -9.14 0z"/>
  <polygon id="_4" class="fil10" points="203.84,513.24 240.93,513.24 240.93,500.95 219.7,500.95 219.7,466.21 203.84,466.21 "/>
  <path id="_5" class="fil10" d="M273.45 513.24l16.93 0 -9.88 -14.51c5.64,-2.89 8.87,-7.99 8.87,-14.78 0,-10.88 -8.33,-17.74 -21.43,-17.74l-22.64 0 0 47.03 15.85 0 0 -11.82 4.3 0 8 11.82zm-0.07 -29.29c0,3.43 -2.08,5.51 -6.45,5.51l-5.78 0 0 -11.02 5.78 0c4.37,0 6.45,2.08 6.45,5.51z"/>
  <path id="_6" class="fil10" d="M320.01 514.32c15.31,0 26.53,-10.35 26.53,-24.59 0,-14.25 -11.22,-24.59 -26.53,-24.59 -15.32,0 -26.54,10.34 -26.54,24.59 0,14.24 11.22,24.59 26.54,24.59zm0 -12.83c-5.85,0 -10.55,-4.44 -10.55,-11.76 0,-7.33 4.7,-11.76 10.55,-11.76 5.84,0 10.54,4.43 10.54,11.76 0,7.32 -4.7,11.76 -10.54,11.76z"/>
  <path id="_7" class="fil10" d="M376.98 514.32c15.32,0 26.54,-10.35 26.54,-24.59 0,-14.25 -11.22,-24.59 -26.54,-24.59 -15.32,0 -26.54,10.34 -26.54,24.59 0,14.24 11.22,24.59 26.54,24.59zm0 -12.83c-5.85,0 -10.55,-4.44 -10.55,-11.76 0,-7.33 4.7,-11.76 10.55,-11.76 5.84,0 10.55,4.43 10.55,11.76 0,7.32 -4.71,11.76 -10.55,11.76z"/>
  <polygon id="_8" class="fil10" points="418.84,513.24 434.69,513.24 434.69,478.51 448.46,478.51 448.46,466.21 405.06,466.21 405.06,478.51 418.84,478.51 "/>
  <path id="_9" class="fil10" d="M470.1 514.32c14.58,0 21.9,-7.26 21.9,-15.86 0,-17.34 -26,-12.64 -26,-18.27 0,-1.61 1.48,-2.96 6.11,-2.96 4.1,0 8.47,1.14 13.1,3.5l4.77 -11.49c-4.9,-2.76 -11.42,-4.1 -17.73,-4.1 -14.58,0 -21.9,7.12 -21.9,15.85 0,17.54 26,12.76 26,18.68 0,1.61 -1.62,2.55 -6.12,2.55 -5.17,0 -11.08,-1.67 -15.52,-4.29l-5.1 11.55c4.7,2.89 12.63,4.84 20.49,4.84z"/>
  <path class="fil11" d="M311.48 551.3c6.29,0 11.25,-2.29 14.42,-6.43l-6.85 -6.11c-1.88,2.39 -4.13,3.77 -7.02,3.77 -4.5,0 -7.53,-3.12 -7.53,-8.04 0,-4.91 3.03,-8.03 7.53,-8.03 2.89,0 5.14,1.37 7.02,3.76l6.85 -6.11c-3.17,-4.13 -8.13,-6.42 -14.42,-6.42 -10.34,0 -17.91,6.93 -17.91,16.8 0,9.88 7.57,16.81 17.91,16.81z"/>
  <polygon id="_1_0" class="fil11" points="329.02,550.57 339.86,550.57 339.86,518.42 329.02,518.42 "/>
  <polygon id="_2_1" class="fil11" points="366.22,518.42 366.22,533.02 354,518.42 345.09,518.42 345.09,550.57 355.65,550.57 355.65,535.96 367.87,550.57 376.78,550.57 376.78,518.42 "/>
  <polygon id="_3_2" class="fil11" points="392.67,542.39 392.67,538.17 406.26,538.17 406.26,530.36 392.67,530.36 392.67,526.6 408.14,526.6 408.14,518.42 382.01,518.42 382.01,550.57 408.74,550.57 408.74,542.39 "/>
  <polygon id="_4_3" class="fil11" points="451.5,550.57 451.4,518.42 442.49,518.42 432.3,535.55 421.83,518.42 412.92,518.42 412.92,550.57 422.79,550.57 422.79,536.42 429.77,547.67 434.55,547.67 441.53,535.92 441.62,550.57 "/>
  <path id="_5_4" class="fil11" d="M480.79 550.57l11.21 0 -14.05 -32.15 -10.66 0 -14.05 32.15 11.02 0 2.16 -5.61 12.22 0 2.15 5.61zm-11.38 -13.41l3.12 -8.09 3.12 8.09 -6.24 0z"/>
  <g id="_1531352231536">
   <path class="fil12" d="M90.64 0.76l-0.86 40.49c-7.97,-0.24 -18.11,1.31 -28.72,4.71 -10.67,3.43 -19.86,8.11 -26.2,12.97l-24.29 -32.46 16.47 5.14 -0.33 8.85 0.3 0.12c2.2,0.87 4.51,0.89 6.57,0.23 3.18,-1.02 5.78,-3.64 6.56,-7.2l-8.32 -4.09 1.24 -20.09 16.16 9.94 -2.24 10.78 1.92 1.02c4.85,2.57 10.86,0.64 13.3,-4.27l0.97 -1.95 -8.1 -7.46 7.36 -17.49 12.7 15.61 -4.38 8.17c4.47,4.03 11.48,3.09 14.73,-1.98l0.18 -0.27 -5.43 -7 10.41 -13.77z"/>
   <path class="fil13" d="M89.71 43.39l-0.15 4.04c-7.6,0.07 -16.86,1.63 -26.52,4.73 -9.78,3.14 -18.31,7.34 -24.56,11.77l-2.37 -3.27c6.32,-4.71 15.28,-9.22 25.63,-12.54 10.28,-3.3 20.12,-4.86 27.97,-4.73z"/>
  </g>
  <path class="fil14" d="M88.59 5.71l-0.89 34.29c-6.89,-0.21 -18.91,0.77 -28.07,3.71 -9.21,2.96 -18.37,8.22 -23.84,12.42l-20.18 -25.82 9.84 2.46 0 8.2 0.26 0.1c1.91,0.75 7.25,1.84 9.03,1.27 2.74,-0.88 5.85,-5.05 6.52,-8.13l-6.88 -4.7 1.07 -17.35 10.5 9.13 -0.84 9.78 1.66 0.88c4.19,2.22 15.1,-0.64 17.2,-4.88l0.84 -1.68 -6.56 -8.2 2.57 -13.17 11.62 12.83 -4.44 7.71c5.01,4.11 16.49,4.11 19.2,-2.09l0.15 -0.23 -5.32 -8.33 6.56 -8.2z"/>
  <path class="fil15" d="M89.71 43.39l-0.15 4.04c-7.6,0.07 -16.86,1.63 -26.52,4.73 -9.78,3.14 -18.31,7.34 -24.56,11.77l-2.37 -3.27c6.32,-4.71 15.28,-9.22 25.63,-12.54 10.28,-3.3 20.12,-4.86 27.97,-4.73z"/>
 </g>
</svg>
