<?xml version="1.0" encoding="UTF-8"?>
<!DOCTYPE svg PUBLIC "-//W3C//DTD SVG 1.1//EN" "http://www.w3.org/Graphics/SVG/1.1/DTD/svg11.dtd">
<!-- Creator: CorelDRAW 2021 (64-Bit) -->
<svg xmlns="http://www.w3.org/2000/svg" xml:space="preserve" width="956px" height="404px" version="1.1" style="shape-rendering:geometricPrecision; text-rendering:geometricPrecision; image-rendering:optimizeQuality; fill-rule:evenodd; clip-rule:evenodd"
viewBox="0 0 956 404.48"
 xmlns:xlink="http://www.w3.org/1999/xlink"
 xmlns:xodm="http://www.corel.com/coreldraw/odm/2003">
 <defs>
  <style type="text/css">
   <![CDATA[
    .str0 {stroke:white;stroke-width:3;stroke-miterlimit:22.9256}
    .str1 {stroke:white;stroke-width:2;stroke-linecap:round;stroke-linejoin:round;stroke-miterlimit:22.9256}
    .fil6 {fill:none}
    .fil1 {fill:black}
    .fil7 {fill:white}
    .fil5 {fill:white}
    .fil0 {fill:black;fill-rule:nonzero}
    .fil8 {fill:white;fill-opacity:0.380392}
    .fil4 {fill:#1F1D21;fill-rule:nonzero;fill-opacity:0.501961}
    .fil2 {fill:white;fill-rule:nonzero}
    .fil3 {fill:white;fill-rule:nonzero}
   ]]>
  </style>
     <clipPath id="id0">
      <path d="M325.23 154.26c1.24,3.14 -0.33,6.73 -3.47,7.96l-29.56 11.58c-3.14,1.24 -6.72,-0.33 -7.96,-3.48l-19.34 -49.33c-1.23,-3.15 -1.07,-8.22 0.35,-11.29l7.66 -16.44c1.42,-3.06 5.14,-4.52 8.27,-3.24l16.79 6.86c3.12,1.28 6.7,4.9 7.93,8.04l19.33 49.34z"/>
     </clipPath>
 </defs>
 <g id="Layer_x0020_1">
  <metadata id="CorelCorpID_0Corel-Layer"/>
  <path class="fil0" d="M681.62 388.18c-0.92,3.66 -0.85,5.43 0.2,5.3 1.05,-0.13 2.71,-1.44 5.01,-3.93 2.29,-2.49 5.04,-5.73 8.25,-9.72 3.2,-4 6.44,-8.09 9.72,-12.28 0,0.13 0.19,0.43 0.59,0.89 0.39,0.46 0.72,1.08 0.98,1.86 0.26,0.79 0.29,1.71 0.1,2.75 -0.2,1.05 -0.76,2.16 -1.67,3.34 -2.62,3.14 -4.91,5.93 -6.88,8.35 -1.96,2.42 -3.86,4.61 -5.69,6.58 -1.84,1.96 -3.7,3.8 -5.6,5.5 -1.9,1.7 -4.09,3.4 -6.58,5.1 -1.31,1.05 -2.88,1.64 -4.71,1.77 -1.84,0.13 -3.54,-0.06 -5.11,-0.59 -1.57,-0.52 -2.91,-1.37 -4.03,-2.55 -1.11,-1.18 -1.6,-2.55 -1.47,-4.12 0.26,-3.02 0.72,-6.16 1.38,-9.43 0.65,-3.28 1.5,-6.81 2.55,-10.61 1.31,-4.84 2.72,-9.75 4.22,-14.73 1.51,-4.97 2.98,-9.75 4.42,-14.34 1.44,-4.58 2.85,-8.8 4.22,-12.66 1.38,-3.87 2.59,-7.11 3.64,-9.73 0.65,-1.57 1.83,-2.62 3.53,-3.14 1.7,-0.52 3.41,-0.75 5.11,-0.69 1.7,0.07 3.17,0.36 4.42,0.89 1.24,0.52 1.8,1.05 1.67,1.57l-18.27 64.62z"/>
  <path id="_1" class="fil0" d="M751.54 352.04c0.53,2.75 -0.39,5.1 -2.75,7.07 1.05,0.26 1.9,0.52 2.55,0.78 0.66,0.27 0.92,0.53 0.79,0.79 -1.05,4.84 -2.36,9.49 -3.93,13.94 -1.57,4.46 -2.88,8.97 -3.93,13.56 -0.91,3.66 -0.88,5.43 0.1,5.3 0.98,-0.13 2.59,-1.44 4.82,-3.93 2.22,-2.49 4.87,-5.73 7.95,-9.72 3.08,-4 6.25,-8.09 9.52,-12.28 0,0.13 0.2,0.43 0.59,0.89 0.4,0.46 0.72,1.08 0.99,1.86 0.26,0.79 0.29,1.71 0.09,2.75 -0.19,1.05 -0.75,2.16 -1.67,3.34 -2.61,3.14 -4.91,5.93 -6.87,8.35 -1.96,2.42 -3.86,4.61 -5.7,6.58 -1.83,1.96 -3.69,3.8 -5.59,5.5 -1.9,1.7 -4.09,3.4 -6.58,5.1 -1.31,1.05 -2.79,1.71 -4.42,1.97 -1.64,0.26 -3.21,0.23 -4.71,-0.1 -1.51,-0.33 -2.82,-0.88 -3.93,-1.67 -1.12,-0.79 -1.8,-1.7 -2.07,-2.75 -0.26,-0.92 -0.36,-1.9 -0.29,-2.94 0.07,-1.05 0.16,-2.17 0.29,-3.34 -2.88,2.75 -6.02,5.23 -9.42,7.46 -3.41,2.23 -6.62,3.34 -9.63,3.34 -2.88,0 -5.17,-0.59 -6.87,-1.77 -1.7,-1.18 -2.82,-2.68 -3.34,-4.52 -1.31,-4.45 -1.24,-9.69 0.2,-15.71 1.44,-6.02 3.96,-11.75 7.56,-17.18 3.6,-5.44 8.18,-10.02 13.75,-13.75 5.56,-3.73 11.81,-5.53 18.75,-5.4 3.28,0 6.26,0.52 8.94,1.57 2.68,1.05 4.29,2.68 4.81,4.91zm-22.19 9.43c3.4,-0.66 6.05,-1.71 7.95,-3.15 1.9,-1.44 3.11,-3.14 3.64,-5.1 0.13,-0.79 -0.23,-1.64 -1.08,-2.56 -0.86,-0.91 -2.33,-1.04 -4.42,-0.39 -2.88,0.79 -5.67,3.11 -8.35,6.97 -2.69,3.86 -5.04,8.12 -7.07,12.77 -2.03,4.65 -3.57,9.2 -4.62,13.65 -1.04,4.45 -1.37,7.72 -0.98,9.82 0.13,1.05 0.75,1.47 1.87,1.28 1.11,-0.2 2.35,-0.79 3.73,-1.77 1.37,-0.98 2.81,-2.16 4.32,-3.54 1.5,-1.37 2.85,-2.78 4.03,-4.22 0.91,-3.67 1.96,-7.4 3.14,-11.19 1.18,-3.8 2.29,-7.34 3.34,-10.61 -2.36,0 -4.19,-0.66 -5.5,-1.96z"/>
  <path id="_2" class="fil0" d="M784.93 352.82l1.57 -1.37c4.72,-3.67 10.15,-5.63 16.3,-5.89 4.19,-0.13 7.17,1.21 8.94,4.02 1.77,2.82 2.65,6.42 2.65,10.81 0,4.38 -0.85,9.1 -2.55,14.14 -1.7,5.04 -3.93,9.75 -6.68,14.14 -2.75,4.38 -5.96,8.02 -9.62,10.9 -3.67,2.88 -7.53,4.32 -11.59,4.32 -2.62,-0.13 -4.91,-0.98 -6.88,-2.56 -1.96,-1.57 -3.46,-3.27 -4.51,-5.1 -1.31,3.4 -2.79,5.53 -4.42,6.38 -1.64,0.85 -3.7,1.21 -6.19,1.08 -1.96,-0.13 -3.5,-0.78 -4.61,-1.96 -1.12,-1.18 -1.41,-2.88 -0.89,-5.11 0.39,-2.09 1.08,-4.97 2.06,-8.64 0.99,-3.67 2.1,-7.73 3.34,-12.18 1.25,-4.45 2.59,-9.16 4.03,-14.14 1.44,-4.97 2.91,-9.75 4.42,-14.34 1.5,-4.58 2.94,-8.83 4.32,-12.76 1.37,-3.93 2.65,-7.14 3.83,-9.63 0.65,-1.57 1.8,-2.62 3.44,-3.14 1.63,-0.52 3.34,-0.75 5.1,-0.69 1.77,0.07 3.28,0.36 4.52,0.89 1.24,0.52 1.8,1.05 1.67,1.57l-8.25 29.26zm9.82 -0.39c-1.31,0 -2,0.1 -2.06,0.3 -0.07,0.19 -0.56,0.55 -1.47,1.08 -0.79,0.39 -1.44,0.98 -1.97,1.76 -0.52,0.79 -0.85,1.64 -0.98,2.56 -0.13,0.91 0.07,1.8 0.59,2.65 0.52,0.85 1.44,1.54 2.75,2.06 -2.36,0.52 -4.29,0.65 -5.79,0.39 -1.51,-0.26 -2.66,-0.72 -3.44,-1.37l-7.07 25.53c-0.26,2.36 -0.04,4.26 0.68,5.7 0.72,1.44 1.94,2.09 3.64,1.96 1.44,0 3.08,-1.08 4.91,-3.24 1.83,-2.16 3.63,-4.78 5.4,-7.86 1.77,-3.07 3.37,-6.45 4.81,-10.11 1.44,-3.67 2.46,-7.07 3.05,-10.22 0.58,-3.14 0.68,-5.76 0.29,-7.85 -0.39,-2.1 -1.51,-3.21 -3.34,-3.34z"/>
  <path id="_3" class="fil0" d="M846.99 402.32c-1.44,0.78 -3.47,1.37 -6.08,1.76 -2.62,0.4 -5.34,0.36 -8.15,-0.09 -2.82,-0.46 -5.54,-1.54 -8.16,-3.24 -2.61,-1.71 -4.58,-4.32 -5.89,-7.86 -1.7,-4.58 -1.83,-9.79 -0.39,-15.61 1.44,-5.83 4.06,-11.2 7.86,-16.11 3.79,-4.91 8.6,-8.87 14.43,-11.88 5.83,-3.01 12.28,-4.06 19.35,-3.14 4.45,0.65 7.4,1.99 8.84,4.02 1.44,2.03 2.29,3.7 2.55,5.01 0.52,3.4 -0.43,6.78 -2.85,10.11 -2.42,3.34 -5.53,6.26 -9.33,8.75 -3.8,2.48 -7.95,4.28 -12.47,5.4 -4.52,1.11 -8.61,1.21 -12.28,0.29 -1.04,4.58 -1.17,8.38 -0.39,11.39 0.79,2.75 2.13,4.55 4.03,5.4 1.9,0.85 4.12,0.95 6.68,0.3 2.55,-0.66 5.3,-1.93 8.24,-3.83 2.95,-1.9 5.86,-4.16 8.74,-6.78 2.62,-2.35 5.24,-5.24 7.86,-8.64 2.62,-3.4 5.24,-6.74 7.86,-10.02 0,0.13 0.19,0.43 0.59,0.89 0.39,0.46 0.72,1.08 0.98,1.86 0.26,0.79 0.29,1.71 0.1,2.75 -0.2,1.05 -0.76,2.16 -1.67,3.34 -5.24,6.42 -10.15,11.65 -14.73,15.71 -4.59,4.06 -9.82,7.47 -15.72,10.22zm7.27 -52.05c-1.96,0.65 -3.86,1.83 -5.69,3.54 -1.84,1.7 -3.6,3.73 -5.31,6.08 -1.7,2.36 -3.21,4.95 -4.51,7.76 -1.31,2.82 -2.43,5.6 -3.34,8.35 2.75,-0.79 5.56,-2.03 8.44,-3.73 2.88,-1.7 5.47,-3.57 7.76,-5.6 2.29,-2.03 4.09,-4.16 5.4,-6.38 1.31,-2.23 1.9,-4.32 1.77,-6.29 0,-0.91 -0.23,-1.93 -0.69,-3.04 -0.46,-1.12 -1.73,-1.34 -3.83,-0.69z"/>
  <path id="_4" class="fil0" d="M886.08 388.18c-0.92,3.66 -0.85,5.43 0.19,5.3 1.05,-0.13 2.72,-1.44 5.01,-3.93 2.29,-2.49 5.04,-5.73 8.25,-9.72 3.21,-4 6.45,-8.09 9.72,-12.28 0,0.13 0.2,0.43 0.59,0.89 0.4,0.46 0.72,1.08 0.99,1.86 0.26,0.79 0.29,1.71 0.09,2.75 -0.19,1.05 -0.75,2.16 -1.67,3.34 -2.61,3.14 -4.91,5.93 -6.87,8.35 -1.96,2.42 -3.86,4.61 -5.7,6.58 -1.83,1.96 -3.69,3.8 -5.59,5.5 -1.9,1.7 -4.1,3.4 -6.58,5.1 -1.31,1.05 -2.88,1.64 -4.72,1.77 -1.83,0.13 -3.53,-0.06 -5.1,-0.59 -1.57,-0.52 -2.92,-1.37 -4.03,-2.55 -1.11,-1.18 -1.6,-2.55 -1.47,-4.12 0.26,-3.02 0.72,-6.16 1.37,-9.43 0.66,-3.28 1.51,-6.81 2.56,-10.61 1.3,-4.84 2.71,-9.75 4.22,-14.73 1.5,-4.97 2.98,-9.75 4.42,-14.34 1.44,-4.58 2.84,-8.8 4.22,-12.66 1.38,-3.87 2.59,-7.11 3.63,-9.73 0.66,-1.57 1.84,-2.62 3.54,-3.14 1.7,-0.52 3.4,-0.75 5.1,-0.69 1.71,0.07 3.18,0.36 4.42,0.89 1.25,0.52 1.8,1.05 1.67,1.57l-18.26 64.62z"/>
  <path id="_5" class="fil0" d="M915.34 395.05c0.53,1.44 1.41,2.49 2.65,3.14 1.25,0.66 2.39,0.98 3.44,0.98 2.23,0.14 4.13,-0.32 5.7,-1.37 1.57,-1.05 2.68,-2.16 3.34,-3.34 1.3,-1.7 1.5,-3.34 0.58,-4.91 -0.91,-1.57 -2.35,-3.14 -4.32,-4.71 -1.96,-1.57 -4.28,-3.18 -6.97,-4.81 -2.68,-1.64 -5.14,-3.34 -7.36,-5.11 -2.23,-1.77 -4,-3.64 -5.31,-5.6 -1.31,-1.96 -1.63,-4.12 -0.98,-6.48 1.44,-5.11 4.49,-9.26 9.13,-12.47 4.65,-3.21 10.64,-4.88 17.98,-5.01 6.54,-0.13 11.58,0.75 15.12,2.65 3.53,1.9 5.83,4.68 6.87,8.35 0.79,3.01 0.3,5.69 -1.47,8.05 -1.77,2.36 -4.06,4.19 -6.87,5.5 -2.82,1.31 -5.83,1.83 -9.04,1.57 -3.21,-0.26 -5.86,-1.57 -7.95,-3.93 3.4,-0.65 6.05,-2.32 7.95,-5.01 1.9,-2.68 3.05,-5.33 3.44,-7.95 0.13,-2.49 -0.46,-3.89 -1.77,-4.22 -1.31,-0.33 -2.91,-0.04 -4.81,0.88 -1.9,0.92 -3.83,2.19 -5.8,3.83 -1.96,1.64 -3.4,3.11 -4.32,4.42 -1.44,1.83 -1.93,3.47 -1.47,4.91 0.46,1.44 1.47,2.78 3.04,4.03 1.58,1.24 3.47,2.49 5.7,3.73 2.23,1.24 4.39,2.58 6.48,4.03 2.1,1.44 3.93,3.07 5.5,4.91 1.57,1.83 2.42,3.92 2.55,6.28 0.4,4.58 -1.47,8.48 -5.59,11.69 -4.13,3.2 -9.99,4.81 -17.58,4.81 -3.54,0 -6.74,-0.36 -9.63,-1.08 -2.88,-0.72 -5.3,-1.77 -7.26,-3.14 -1.97,-1.38 -3.37,-2.98 -4.22,-4.82 -0.86,-1.83 -0.95,-3.73 -0.3,-5.69 0.52,-1.97 1.74,-3.6 3.63,-4.91 1.9,-1.31 4.06,-2.13 6.49,-2.46 2.42,-0.32 4.91,-0.1 7.46,0.69 2.55,0.79 4.75,2.29 6.58,4.52 -3.41,0.65 -6.19,1.67 -8.35,3.04 -2.16,1.38 -2.91,3.05 -2.26,5.01z"/>
  <g id="_1494906725536">
   <path class="fil0" d="M305.45 252.42c7.64,-10.04 14.15,-18.46 19.53,-25.27 5.37,-6.81 9.97,-12.3 13.79,-16.48 3.82,-4.18 7.11,-7.17 9.86,-8.96 2.74,-1.79 5.43,-2.57 8.06,-2.33 7.41,0 11.82,3.35 13.26,10.04 0.71,2.62 0.83,5.73 0.36,9.31 -0.48,3.59 -1.44,7.95 -2.87,13.08 -1.43,5.14 -3.29,11.29 -5.55,18.45 -2.27,7.17 -4.84,15.77 -7.71,25.8 -1.67,6.69 -1.55,9.92 0.36,9.68 1.91,-0.24 4.96,-2.63 9.14,-7.17 4.18,-4.54 9.19,-10.45 15.05,-17.73 5.85,-7.29 11.76,-14.76 17.73,-22.4 0,0.24 0.36,0.78 1.08,1.61 0.72,0.84 1.31,1.97 1.79,3.41 0.48,1.43 0.54,3.1 0.18,5.01 -0.36,1.91 -1.37,3.95 -3.05,6.1 -4.77,5.73 -8.95,10.8 -12.54,15.22 -3.58,4.42 -7.04,8.43 -10.39,12.01 -3.34,3.58 -6.75,6.93 -10.21,10.03 -3.47,3.11 -7.47,6.21 -12.01,9.32 -2.62,1.91 -5.55,2.98 -8.77,3.22 -3.23,0.24 -6.34,-0.12 -9.32,-1.07 -2.99,-0.96 -5.5,-2.51 -7.53,-4.66 -2.03,-2.15 -2.92,-4.66 -2.68,-7.52 0.47,-7.65 1.85,-15.41 4.12,-23.3 2.27,-7.88 5.07,-16.84 8.42,-26.87 0.95,-2.87 0.77,-4.66 -0.54,-5.38 -1.31,-0.71 -3.16,0.24 -5.55,2.87 -2.39,2.15 -5.02,4.9 -7.89,8.24 -2.86,3.35 -5.67,6.81 -8.42,10.39 -2.75,3.59 -5.37,7.05 -7.88,10.4 -2.51,3.34 -4.6,6.21 -6.27,8.59l-1.44 5.02c-2.86,10.51 -5.97,17.08 -9.31,19.71 -3.35,2.63 -7.77,3.82 -13.26,3.58 -3.58,-0.24 -6.39,-1.43 -8.42,-3.58 -2.03,-2.15 -2.57,-5.26 -1.61,-9.32 0.71,-3.82 1.97,-9.07 3.76,-15.76 1.79,-6.69 3.82,-14.1 6.09,-22.22 2.27,-8.12 4.72,-16.72 7.35,-25.8 2.62,-9.08 5.31,-17.8 8.06,-26.16 2.75,-8.36 5.37,-16.12 7.88,-23.29 2.51,-7.17 4.84,-13.02 6.99,-17.56 1.19,-2.86 3.28,-4.78 6.27,-5.73 2.99,-0.96 6.09,-1.38 9.32,-1.26 3.22,0.12 5.97,0.66 8.24,1.62 2.27,0.95 3.28,1.91 3.04,2.86l-26.51 94.25z"/>
   <path id="_1_0" class="fil0" d="M481.39 210.13c0.95,5.02 -0.72,9.32 -5.02,12.9 1.91,0.48 3.47,0.96 4.66,1.43 1.2,0.48 1.67,0.96 1.43,1.44 -1.91,8.84 -4.3,17.32 -7.16,25.44 -2.87,8.12 -5.26,16.36 -7.17,24.72 -1.67,6.69 -1.61,9.92 0.18,9.68 1.79,-0.24 4.72,-2.63 8.78,-7.17 4.06,-4.54 8.9,-10.45 14.51,-17.73 5.62,-7.29 11.41,-14.76 17.38,-22.4 0,0.24 0.36,0.78 1.08,1.61 0.71,0.84 1.31,1.97 1.79,3.41 0.47,1.43 0.54,3.1 0.18,5.01 -0.36,1.91 -1.38,3.95 -3.05,6.1 -4.78,5.73 -8.96,10.8 -12.54,15.22 -3.58,4.42 -7.05,8.43 -10.39,12.01 -3.35,3.58 -6.75,6.93 -10.22,10.03 -3.46,3.11 -7.46,6.21 -12,9.32 -2.39,1.91 -5.08,3.1 -8.06,3.58 -2.99,0.48 -5.86,0.42 -8.6,-0.18 -2.75,-0.6 -5.14,-1.61 -7.17,-3.04 -2.03,-1.44 -3.28,-3.11 -3.76,-5.02 -0.48,-1.67 -0.66,-3.46 -0.54,-5.37 0.12,-1.92 0.3,-3.95 0.54,-6.1 -5.26,5.02 -10.99,9.56 -17.2,13.62 -6.21,4.06 -12.06,6.09 -17.56,6.09 -5.25,0 -9.44,-1.07 -12.54,-3.22 -3.11,-2.15 -5.14,-4.9 -6.09,-8.25 -2.39,-8.12 -2.27,-17.67 0.36,-28.66 2.62,-10.99 7.22,-21.44 13.79,-31.36 6.57,-9.91 14.93,-18.27 25.08,-25.08 10.16,-6.81 21.56,-10.09 34.23,-9.85 5.97,0 11.4,0.95 16.3,2.86 4.9,1.91 7.82,4.9 8.78,8.96zm-40.49 17.2c6.21,-1.19 11.05,-3.1 14.51,-5.73 3.46,-2.63 5.67,-5.73 6.63,-9.32 0.24,-1.43 -0.42,-2.98 -1.97,-4.66 -1.55,-1.67 -4.24,-1.91 -8.06,-0.71 -5.26,1.43 -10.34,5.67 -15.23,12.72 -4.9,7.05 -9.2,14.81 -12.9,23.29 -3.71,8.48 -6.51,16.78 -8.42,24.9 -1.92,8.13 -2.51,14.1 -1.8,17.92 0.24,1.91 1.38,2.69 3.41,2.33 2.03,-0.36 4.3,-1.43 6.81,-3.23 2.5,-1.79 5.13,-3.94 7.88,-6.45 2.75,-2.5 5.2,-5.07 7.35,-7.7 1.67,-6.69 3.58,-13.5 5.73,-20.43 2.15,-6.92 4.18,-13.37 6.09,-19.35 -4.3,0 -7.64,-1.19 -10.03,-3.58z"/>
   <path id="_2_1" class="fil0" d="M532.63 243.81l18.63 -26.87c0.24,-0.48 1.2,-1.73 2.87,-3.76 1.67,-2.03 3.64,-4.12 5.91,-6.27 2.27,-2.15 4.9,-4.06 7.89,-5.74 2.98,-1.67 6.03,-2.38 9.13,-2.15 4.3,0.24 7.29,1.2 8.96,2.87 1.67,1.67 2.75,3.46 3.23,5.38 0.47,2.38 0.24,5.73 -0.72,10.03 -0.96,4.3 -2.21,8.9 -3.76,13.79 -1.56,4.9 -3.05,9.74 -4.48,14.52 -1.43,4.77 -2.39,8.84 -2.87,12.18 -1.67,6.69 -1.61,10.69 0.18,12 1.79,1.32 4.6,0.72 8.42,-1.79 3.82,-2.51 8.3,-6.45 13.44,-11.82 5.14,-5.38 10.21,-11.29 15.23,-17.74 0,0.24 0.36,0.78 1.07,1.61 0.72,0.84 1.26,1.97 1.62,3.41 0.35,1.43 0.41,3.1 0.17,5.01 -0.23,1.91 -1.19,3.95 -2.86,6.1 -6.69,8.36 -13.8,15.22 -21.32,20.6 -7.53,5.37 -16.31,8.06 -26.34,8.06 -4.78,0 -9.14,-1.13 -13.08,-3.4 -3.94,-2.27 -6.27,-6.03 -6.99,-11.29 0,-1.43 0.24,-3.46 0.72,-6.09 0.48,-2.63 1.19,-5.44 2.15,-8.42 0.96,-2.99 1.91,-6.09 2.87,-9.32 0.95,-3.22 1.79,-6.03 2.51,-8.42 1.19,-3.58 1.37,-5.43 0.53,-5.55 -0.83,-0.12 -2.03,0.53 -3.58,1.97 -1.55,1.43 -3.17,3.22 -4.84,5.37 -1.67,2.15 -2.86,3.82 -3.58,5.02 -2.15,4.06 -5.14,8.9 -8.96,14.51 -3.82,5.62 -7.05,10.69 -9.67,15.23l-2.15 8.24c-2.87,10.51 -5.98,17.08 -9.32,19.71 -3.35,2.63 -7.77,3.82 -13.26,3.58 -3.58,-0.24 -6.39,-1.43 -8.42,-3.58 -2.03,-2.15 -2.57,-5.26 -1.61,-9.32 1.19,-5.73 2.62,-12.12 4.3,-19.17 1.67,-7.05 3.64,-14.39 5.91,-22.04 2.27,-7.64 4.72,-15.22 7.35,-22.75 2.62,-7.52 5.49,-14.75 8.6,-21.68 1.19,-2.86 3.28,-4.84 6.27,-5.91 2.98,-1.08 6.09,-1.49 9.31,-1.25 3.23,0.23 5.98,0.83 8.24,1.79 2.27,0.95 3.29,1.91 3.05,2.86l-10.75 40.49z"/>
   <path id="_3_2" class="fil0" d="M699.61 210.13c0.96,5.02 -0.71,9.32 -5.01,12.9 1.91,0.48 3.46,0.96 4.65,1.43 1.2,0.48 1.68,0.96 1.44,1.44 -1.91,8.84 -4.3,17.32 -7.17,25.44 -2.87,8.12 -5.25,16.36 -7.17,24.72 -1.67,6.69 -1.61,9.92 0.18,9.68 1.8,-0.24 4.72,-2.63 8.78,-7.17 4.06,-4.54 8.9,-10.45 14.52,-17.73 5.61,-7.29 11.4,-14.76 17.37,-22.4 0,0.24 0.36,0.78 1.08,1.61 0.72,0.84 1.31,1.97 1.79,3.41 0.48,1.43 0.54,3.1 0.18,5.01 -0.36,1.91 -1.37,3.95 -3.05,6.1 -4.77,5.73 -8.95,10.8 -12.54,15.22 -3.58,4.42 -7.04,8.43 -10.39,12.01 -3.34,3.58 -6.75,6.93 -10.21,10.03 -3.46,3.11 -7.47,6.21 -12.01,9.32 -2.38,1.91 -5.07,3.1 -8.06,3.58 -2.98,0.48 -5.85,0.42 -8.6,-0.18 -2.75,-0.6 -5.13,-1.61 -7.16,-3.04 -2.04,-1.44 -3.29,-3.11 -3.77,-5.02 -0.47,-1.67 -0.65,-3.46 -0.54,-5.37 0.13,-1.92 0.3,-3.95 0.54,-6.1 -5.25,5.02 -10.99,9.56 -17.2,13.62 -6.21,4.06 -12.06,6.09 -17.55,6.09 -5.26,0 -9.44,-1.07 -12.55,-3.22 -3.1,-2.15 -5.13,-4.9 -6.09,-8.25 -2.39,-8.12 -2.27,-17.67 0.36,-28.66 2.63,-10.99 7.23,-21.44 13.8,-31.36 6.57,-9.91 14.93,-18.27 25.08,-25.08 10.15,-6.81 21.56,-10.09 34.22,-9.85 5.97,0 11.41,0.95 16.3,2.86 4.9,1.91 7.83,4.9 8.78,8.96zm-40.49 17.2c6.21,-1.19 11.05,-3.1 14.51,-5.73 3.47,-2.63 5.68,-5.73 6.63,-9.32 0.24,-1.43 -0.42,-2.98 -1.97,-4.66 -1.55,-1.67 -4.24,-1.91 -8.06,-0.71 -5.26,1.43 -10.33,5.67 -15.23,12.72 -4.9,7.05 -9.2,14.81 -12.9,23.29 -3.7,8.48 -6.51,16.78 -8.42,24.9 -1.91,8.13 -2.51,14.1 -1.79,17.92 0.24,1.91 1.37,2.69 3.4,2.33 2.03,-0.36 4.3,-1.43 6.81,-3.23 2.51,-1.79 5.14,-3.94 7.88,-6.45 2.75,-2.5 5.2,-5.07 7.35,-7.7 1.67,-6.69 3.58,-13.5 5.73,-20.43 2.15,-6.92 4.18,-13.37 6.09,-19.35 -4.3,0 -7.64,-1.19 -10.03,-3.58z"/>
   <path id="_4_3" class="fil0" d="M812.13 210.13c0.95,5.02 -0.72,9.32 -5.02,12.9 1.91,0.48 3.47,0.96 4.66,1.43 1.2,0.48 1.67,0.96 1.43,1.44 -1.91,8.84 -4.3,17.32 -7.16,25.44 -2.87,8.12 -5.26,16.36 -7.17,24.72 -1.67,6.69 -1.61,9.92 0.18,9.68 1.79,-0.24 4.72,-2.63 8.78,-7.17 4.06,-4.54 8.9,-10.45 14.51,-17.73 5.62,-7.29 11.41,-14.76 17.38,-22.4 0,0.24 0.36,0.78 1.08,1.61 0.71,0.84 1.31,1.97 1.79,3.41 0.48,1.43 0.54,3.1 0.18,5.01 -0.36,1.91 -1.38,3.95 -3.05,6.1 -4.78,5.73 -8.96,10.8 -12.54,15.22 -3.58,4.42 -7.05,8.43 -10.39,12.01 -3.35,3.58 -6.75,6.93 -10.22,10.03 -3.46,3.11 -7.46,6.21 -12,9.32 -2.39,1.91 -5.08,3.1 -8.06,3.58 -2.99,0.48 -5.85,0.42 -8.6,-0.18 -2.75,-0.6 -5.14,-1.61 -7.17,-3.04 -2.03,-1.44 -3.28,-3.11 -3.76,-5.02 -0.48,-1.67 -0.66,-3.46 -0.54,-5.37 0.12,-1.92 0.3,-3.95 0.54,-6.1 -5.26,5.02 -10.99,9.56 -17.2,13.62 -6.21,4.06 -12.06,6.09 -17.56,6.09 -5.25,0 -9.44,-1.07 -12.54,-3.22 -3.11,-2.15 -5.14,-4.9 -6.09,-8.25 -2.39,-8.12 -2.27,-17.67 0.36,-28.66 2.62,-10.99 7.22,-21.44 13.79,-31.36 6.57,-9.91 14.93,-18.27 25.09,-25.08 10.15,-6.81 21.55,-10.09 34.22,-9.85 5.97,0 11.4,0.95 16.3,2.86 4.9,1.91 7.82,4.9 8.78,8.96zm-40.49 17.2c6.21,-1.19 11.05,-3.1 14.51,-5.73 3.46,-2.63 5.67,-5.73 6.63,-9.32 0.24,-1.43 -0.42,-2.98 -1.97,-4.66 -1.55,-1.67 -4.24,-1.91 -8.06,-0.71 -5.26,1.43 -10.34,5.67 -15.23,12.72 -4.9,7.05 -9.2,14.81 -12.9,23.29 -3.71,8.48 -6.51,16.78 -8.42,24.9 -1.91,8.13 -2.51,14.1 -1.8,17.92 0.24,1.91 1.38,2.69 3.41,2.33 2.03,-0.36 4.3,-1.43 6.81,-3.23 2.5,-1.79 5.13,-3.94 7.88,-6.45 2.75,-2.5 5.2,-5.07 7.35,-7.7 1.67,-6.69 3.58,-13.5 5.73,-20.43 2.15,-6.92 4.18,-13.37 6.09,-19.35 -4.3,0 -7.64,-1.19 -10.03,-3.58z"/>
   <path id="_5_4" class="fil0" d="M861.58 252.42c7.64,-10.04 14.15,-18.46 19.53,-25.27 5.37,-6.81 9.97,-12.3 13.79,-16.48 3.83,-4.18 7.11,-7.17 9.86,-8.96 2.75,-1.79 5.43,-2.57 8.06,-2.33 7.41,0 11.83,3.35 13.26,10.04 0.72,2.62 0.84,5.73 0.36,9.31 -0.48,3.59 -1.44,7.95 -2.87,13.08 -1.43,5.14 -3.28,11.29 -5.55,18.45 -2.27,7.17 -4.84,15.77 -7.71,25.8 -1.67,6.69 -1.55,9.92 0.36,9.68 1.91,-0.24 4.96,-2.63 9.14,-7.17 4.18,-4.54 9.2,-10.45 15.05,-17.73 5.85,-7.29 11.76,-14.76 17.74,-22.4 0,0.24 0.35,0.78 1.07,1.61 0.72,0.84 1.32,1.97 1.79,3.41 0.48,1.43 0.54,3.1 0.18,5.01 -0.36,1.91 -1.37,3.95 -3.04,6.1 -4.78,5.73 -8.96,10.8 -12.55,15.22 -3.58,4.42 -7.04,8.43 -10.39,12.01 -3.34,3.58 -6.75,6.93 -10.21,10.03 -3.46,3.11 -7.47,6.21 -12,9.32 -2.63,1.91 -5.56,2.98 -8.78,3.22 -3.23,0.24 -6.33,-0.12 -9.32,-1.07 -2.99,-0.96 -5.49,-2.51 -7.52,-4.66 -2.04,-2.15 -2.93,-4.66 -2.69,-7.52 0.47,-7.65 1.85,-15.41 4.12,-23.3 2.27,-7.88 5.07,-16.84 8.42,-26.87 0.95,-2.87 0.78,-4.66 -0.54,-5.38 -1.31,-0.71 -3.16,0.24 -5.55,2.87 -2.39,2.15 -5.02,4.9 -7.89,8.24 -2.86,3.35 -5.67,6.81 -8.42,10.39 -2.74,3.59 -5.37,7.05 -7.88,10.4 -2.51,3.34 -4.6,6.21 -6.27,8.59l-1.43 5.02c-2.87,10.51 -5.98,17.08 -9.32,19.71 -3.34,2.63 -7.76,3.82 -13.26,3.58 -3.58,-0.24 -6.39,-1.43 -8.42,-3.58 -2.03,-2.15 -2.57,-5.26 -1.61,-9.32 0.71,-3.82 1.97,-9.07 3.76,-15.76 1.79,-6.69 3.82,-14.1 6.09,-22.22 2.27,-8.12 4.72,-16.72 7.35,-25.8 2.63,-9.08 5.31,-17.8 8.06,-26.16 2.75,-8.36 5.37,-16.12 7.88,-23.29 2.51,-7.17 4.84,-13.02 6.99,-17.56 1.2,-2.86 3.29,-4.78 6.27,-5.73 2.99,-0.96 6.09,-1.38 9.32,-1.26 3.22,0.12 5.97,0.66 8.24,1.62 2.27,0.95 3.28,1.91 3.05,2.86l-26.52 94.25z"/>
   <g>
    <path class="fil1" d="M314 27.55l4.78 32.08c0.08,0.54 0.14,1.1 0.19,1.65 0.71,7.66 -1.31,15.48 -5.74,21.78 -4.34,6.17 -11.28,11.27 -18.76,12.81 -0.03,0 -0.07,0.03 -0.1,0.03 -0.42,0.11 -0.83,0.2 -1.26,0.28 -0.54,0.11 -1.09,0.21 -1.64,0.29l-108.89 16.2c-4.58,0.69 -8.44,3.15 -10.99,6.59 -2.56,3.45 -3.79,7.87 -3.11,12.44l21.11 141.89c1.31,8.86 6.1,16.34 12.76,21.28 6.67,4.95 15.22,7.34 24.08,6.02l-32.07 4.78c-1.12,0.16 -2.21,0.26 -3.31,0.32 -1.94,0.08 -3.84,0.01 -5.72,-0.25 -0.35,-0.02 -0.7,-0.08 -1.05,-0.15 -0.1,-0.02 -0.18,-0.04 -0.28,-0.05 -0.39,-0.05 -0.8,-0.14 -1.2,-0.23 -0.44,-0.09 -0.86,-0.19 -1.28,-0.29 -6.18,-1.6 -12.24,-4.76 -16.29,-9.72 -6.55,-8 -8.54,-22.45 -10.23,-33.79 -1.68,-11.34 -3.37,-22.67 -5.06,-34.01 -2.04,-13.72 -4.08,-27.44 -6.12,-41.16 -1.88,-12.66 -3.77,-25.32 -5.65,-37.98 -1.22,-8.16 -2.43,-16.32 -3.64,-24.48 -0.2,-1.32 -0.4,-2.65 -0.59,-3.97 -1.49,-9.99 2.78,-22.52 10.85,-29.11 9.66,-7.88 22.88,-8.69 34.69,-10.45 11.6,-1.73 23.21,-3.45 34.81,-5.18 22.05,-3.28 44.09,-6.56 66.14,-9.84 2.09,-0.31 4.18,-0.62 6.27,-0.93 8.86,-1.32 16.34,-6.1 21.28,-12.77 4.95,-6.67 7.34,-15.24 6.02,-24.08z"/>
    <path class="fil1" d="M264.7 117.38c-8.86,1.32 -16.34,6.1 -21.28,12.77 -4.94,6.66 -7.34,15.22 -6.02,24.08 0,0 16.34,109.82 16.34,109.85 0.08,0.53 0.14,1.07 0.19,1.59 0,0 0.02,0.12 0.02,0.12 0.82,7.38 -1.32,15.17 -5.48,21.28 -4.57,6.72 -11.67,11.54 -19.59,13.37 -0.36,0.08 -0.74,0.15 -1.1,0.24l-0.36 0.05c-0.16,0.03 -0.31,0.06 -0.48,0.09l-0.51 0.07c-8.86,1.32 -17.41,-1.07 -24.08,-6.02 -6.66,-4.94 -11.45,-12.42 -12.76,-21.28l-2.47 -16.56c0.68,4.57 3.15,8.43 6.6,11 3.3,2.44 7.51,3.67 11.9,3.16 -0.18,0.04 -0.35,0.07 -0.53,0.09l1.07 -0.15c-0.08,0.01 -0.14,0.02 -0.22,0.01 4.22,-0.84 7.75,-3.21 10.14,-6.44 2.56,-3.46 3.8,-7.87 3.12,-12.44l-13.88 -93.26c-1.31,-8.84 1.08,-17.41 6.02,-24.08 4.94,-6.67 12.43,-11.45 21.29,-12.77l32.07 -4.77z"/>
    <path class="fil2" d="M264.7 117.37c-8.86,1.32 -16.34,6.11 -21.28,12.77 -4.95,6.68 -7.34,15.23 -6.02,24.09 0,0 16.34,109.82 16.34,109.84 0.08,0.54 0.15,1.08 0.19,1.6l0.02 0.13c0.82,7.37 -1.32,15.16 -5.48,21.27 -4.57,6.72 -11.67,11.54 -19.59,13.37 -0.36,0.08 -0.74,0.16 -1.1,0.24l-0.35 0.05c-0.18,0.02 -0.32,0.06 -0.49,0.08l-0.51 0.08c-0.65,0.1 -1.3,0.17 -1.94,0.23 0.15,-0.03 0.28,-0.06 0.43,-0.09 7.92,-1.83 15.02,-6.67 19.58,-13.44 4.16,-6.14 6.29,-13.96 5.46,-21.39l-0.02 -0.12c-0.04,-0.53 -0.11,-1.08 -0.19,-1.61 0,-0.03 -16.44,-110.52 -16.44,-110.52 -1.33,-8.92 1.06,-17.52 6,-24.22 3.36,-4.57 7.89,-8.25 13.24,-10.55l12.15 -1.81z"/>
    <path class="fil1" d="M313.94 27.1c1.47,8.99 -0.93,17.75 -5.95,24.52 -4.94,6.67 -12.43,11.45 -21.28,12.77l-16.58 2.46c4.59,-0.68 8.45,-3.16 11,-6.6 2.4,-3.23 3.64,-7.31 3.22,-11.58 0.03,0.08 0.04,0.14 0.05,0.2l-0.16 -1.05c0.03,0.18 0.05,0.35 0.06,0.53 -0.77,-4.33 -3.17,-8 -6.5,-10.47 -3.44,-2.55 -7.86,-3.78 -12.44,-3.1l-188.92 28.11c-4.58,0.68 -8.45,3.14 -11,6.58 -2.54,3.43 -3.41,7.91 -3.21,12.06 -0.03,-0.18 -0.07,-0.35 -0.1,-0.53l0.15 1.02c0.39,1.32 0.72,2.65 1.36,3.88 3.22,6.24 10.31,9.99 17.35,9.25 7.91,-0.6 15.72,1.47 22.12,6.22 6.64,4.91 11.41,12.37 12.76,21.17l4.77 32.13c-1.31,-8.86 -6.1,-16.35 -12.76,-21.29 -6.67,-4.94 -15.22,-7.34 -24.08,-6.02l-14.39 2.14c-0.55,0.09 -1.1,0.15 -1.66,0.2 -15.19,1.72 -29.71,-8.28 -34.13,-22.8 -1.26,-4.03 -1.61,-8.43 -2.23,-12.6l-3.42 -22.93 1.98 2.78c0,0 23.36,-10.07 28.17,-15.14 3.66,-3.85 11.53,-26.63 11.53,-26.63l-1.67 -1.02 208.3 -30.99c17.68,-2.63 34.79,9.08 37.66,26.73zm-272.39 18.2l10.74 -23.57 17.36 10.65c0,0 -7.87,22.78 -11.53,26.63 -4.81,5.07 -28.17,15.14 -28.17,15.14l-12.27 -17.25 23.87 -11.6z"/>
    <path class="fil2" d="M103.11 101.36c6.63,4.92 11.42,12.38 12.75,21.18l4.78 32.12c-0.93,-6.24 -3.57,-11.8 -7.4,-16.26l-2.25 -15.13c-1.34,-8.81 -6.12,-16.27 -12.75,-21.18 -6.4,-4.74 -14.1,-4.26 -22.02,-3.65 -11.22,0.84 -20.59,-10.7 -18.51,-21.48 0.46,-2.43 1.38,-4.77 2.85,-6.77 2.56,-3.43 6.42,-5.9 11,-6.58l4.88 -0.72c-4.58,0.68 -8.45,3.15 -11,6.58 -2.53,3.42 -3.41,7.9 -3.21,12.07 -0.03,-0.18 -0.07,-0.35 -0.1,-0.53l0.16 1.02c0.38,1.31 0.71,2.63 1.36,3.87 3.22,6.25 10.3,9.99 17.34,9.25 7.92,-0.6 15.72,1.47 22.12,6.21z"/>
    <path class="fil3" d="M313.95 27.1c1.46,8.99 -0.94,17.75 -5.96,24.52 -4.95,6.67 -12.43,11.46 -21.29,12.77l-4.87 0.73c8.86,-1.32 16.34,-6.1 21.29,-12.77 5.02,-6.77 7.41,-15.54 5.95,-24.52 -2.87,-17.66 -19.48,-25.96 -37.16,-23.33l-198.62 29.55 -5.31 -2.69 208.3 -30.99c17.68,-2.63 34.79,9.08 37.67,26.73z"/>
    <path class="fil4" d="M202.35 294.87c6.67,4.95 15.22,7.34 24.09,6.02l-15.04 2.23c-3.06,-1.06 -5.91,-2.6 -8.49,-4.51 -6.66,-4.95 -11.45,-12.43 -12.77,-21.29l-0.55 -3.73c1.32,8.86 6.1,16.34 12.76,21.28z"/>
    <path class="fil4" d="M314 27.55l0.56 3.73c1.31,8.85 -1.07,17.41 -6.02,24.07 -4.94,6.68 -12.42,11.46 -21.28,12.77l-107.22 15.96c-11.81,1.75 -25.04,2.58 -34.69,10.45 -8.07,6.59 -12.34,19.12 -10.85,29.11l-0.56 -3.73c-1.49,-10 2.78,-22.51 10.85,-29.11 9.66,-7.87 22.88,-8.7 34.69,-10.45l107.22 -15.96c8.86,-1.31 16.35,-6.09 21.28,-12.76 4.95,-6.67 7.34,-15.24 6.02,-24.08z"/>
    <polygon class="fil1" points="56.68,3.76 38.91,42.75 8.59,57.48 7.36,58.08 4.73,59.35 3.5,59.95 0,61.65 19.69,24.48 "/>
    <path class="fil1" d="M7.57 58.27l3.93 12.54c0.84,0.02 1.6,0.55 1.87,1.39l0.63 2.04 0.33 1.05 0.99 3.16 -0.45 0.14 -0.99 -3.15 -0.67 0.21 0.99 3.15 -0.46 0.15 -0.99 -3.16 -0.66 0.21 0.99 3.15 -0.46 0.15 -0.99 -3.16 -0.67 0.21 0.99 3.16 -0.45 0.14 -0.99 -3.16 -0.33 -1.05 -0.64 -2.04c-0.26,-0.84 0.06,-1.72 0.74,-2.21l-4.08 -13 1.37 0.08z"/>
    <path class="fil1" d="M325.23 154.26c1.24,3.14 -0.33,6.73 -3.47,7.96l-29.56 11.58c-3.14,1.24 -6.72,-0.33 -7.96,-3.48l-19.34 -49.33c-1.23,-3.15 -1.07,-8.22 0.35,-11.29l7.66 -16.44c1.42,-3.06 5.14,-4.52 8.27,-3.24l16.79 6.86c3.12,1.28 6.7,4.9 7.93,8.04l19.33 49.34z"/>
    <g style="clip-path:url(#id0)">
     <g>
      <rect class="fil5" transform="matrix(0.426818 -0.377942 0.377942 0.426818 271.271 161.738)" width="118.04" height="21.01"/>
     </g>
    </g>
    <path class="fil6 str0" d="M325.23 154.26c1.24,3.14 -0.33,6.73 -3.47,7.96l-29.56 11.58c-3.14,1.24 -6.72,-0.33 -7.96,-3.48l-19.34 -49.33c-1.23,-3.15 -1.07,-8.22 0.35,-11.29l7.66 -16.44c1.42,-3.06 5.14,-4.52 8.27,-3.24l16.79 6.86c3.12,1.28 6.7,4.9 7.93,8.04l19.33 49.34z"/>
    <circle class="fil7" transform="matrix(0.216878 -0.0322666 0.0322666 0.216878 282.84 103.857)" r="13"/>
    <path class="fil6 str1" d="M282.84 103.86c-16.73,-9.89 -20.66,-24.23 -9.12,-37.95"/>
    <path class="fil8" d="M73.29 34.05l198.62 -29.55c17.68,-2.63 34.29,5.67 37.16,23.33 1.46,8.98 -0.93,17.75 -5.95,24.52 -4.84,6.52 -12.1,11.24 -20.7,12.68l4.28 -0.64c7.39,-1.1 13.82,-4.61 18.63,-9.61 0.95,-1 1.84,-2.05 2.65,-3.15 4.95,-6.67 7.34,-15.24 6.02,-24.08l0.14 0.91c-0.06,-0.45 -0.12,-0.9 -0.19,-1.36 -2.88,-17.65 -19.99,-29.36 -37.67,-26.73l-208.3 30.99 5.31 2.69z"/>
    <path class="fil8" d="M214.29 75.17c-11.6,1.73 -23.21,3.45 -34.81,5.18 -11.81,1.75 -25.03,2.58 -34.69,10.45 -0.99,0.82 -1.93,1.72 -2.8,2.69 -6.23,6.95 -9.35,17.65 -8.05,26.42l0.56 3.73c-1.49,-9.99 2.78,-22.52 10.85,-29.11 9.65,-7.87 22.88,-8.7 34.69,-10.45l90.33 -13.44c0.82,-1.42 1.81,-2.84 2.96,-4.25 -1.07,0.16 -2.13,0.31 -3.2,0.47 -18.61,2.77 -37.23,5.54 -55.84,8.31z"/>
    <path class="fil8" d="M225.88 300.97c-8.66,1.14 -17,-1.26 -23.53,-6.1 -6.66,-4.94 -11.44,-12.42 -12.76,-21.28l0.55 3.73c1.32,8.86 6.11,16.34 12.77,21.29 2.58,1.91 5.44,3.45 8.49,4.52l14.48 -2.16z"/>
    <path class="fil8" d="M225.88 300.97c0.18,-0.03 0.37,-0.05 0.55,-0.08 -0.19,0.03 -0.37,0.05 -0.55,0.08zm7.43 -147.02c0,0 16.44,110.49 16.44,110.52 0.08,0.53 0.15,1.08 0.19,1.61l0.02 0.12c0.83,7.43 -1.3,15.25 -5.46,21.39 -4.56,6.77 -11.66,11.61 -19.58,13.44 -0.15,0.03 -0.28,0.06 -0.43,0.08 0.46,-0.04 0.93,-0.08 1.39,-0.14l0.55 -0.08c0,0 0.01,0 0.01,0l0.5 -0.08c0.17,-0.02 0.31,-0.06 0.49,-0.08l0.35 -0.05c0.36,-0.08 0.74,-0.16 1.1,-0.24 7.92,-1.83 15.02,-6.65 19.59,-13.37 4.16,-6.11 6.3,-13.9 5.48,-21.27l-0.02 -0.13c-0.04,-0.52 -0.11,-1.06 -0.19,-1.6 0,-0.02 -16.34,-109.84 -16.34,-109.84 -1.32,-8.86 1.07,-17.41 6.02,-24.09 4.83,-6.51 12.09,-11.23 20.69,-12.67l-11.56 1.72 -0.02 0c-5.34,2.3 -9.87,5.98 -13.22,10.54 -4.94,6.7 -7.33,15.3 -6,24.22z"/>
   </g>
  </g>
 </g>
</svg>
