<?xml version="1.0" encoding="UTF-8"?>
<!DOCTYPE svg PUBLIC "-//W3C//DTD SVG 1.1//EN" "http://www.w3.org/Graphics/SVG/1.1/DTD/svg11.dtd">
<!-- Creator: CorelDRAW 2021 (64-Bit) -->
<svg xmlns="http://www.w3.org/2000/svg" xml:space="preserve" width="990px" height="912px" version="1.1" style="shape-rendering:geometricPrecision; text-rendering:geometricPrecision; image-rendering:optimizeQuality; fill-rule:evenodd; clip-rule:evenodd"
viewBox="0 0 990 912.08"
 xmlns:xlink="http://www.w3.org/1999/xlink"
 xmlns:xodm="http://www.corel.com/coreldraw/odm/2003">
 <defs>
  <style type="text/css">
   <![CDATA[
    .fil10 {fill:none}
    .fil0 {fill:#28166F}
    .fil3 {fill:#667483}
    .fil11 {fill:#28166F;fill-rule:nonzero}
    .fil12 {fill:#A83128;fill-rule:nonzero}
    .fil7 {fill:url(#id1)}
    .fil5 {fill:url(#id2)}
    .fil2 {fill:url(#id3)}
    .fil9 {fill:url(#id4)}
    .fil8 {fill:url(#id5)}
    .fil1 {fill:url(#id6)}
    .fil6 {fill:url(#id7)}
    .fil4 {fill:url(#id8)}
   ]]>
  </style>
   <clipPath id="id0">
    <rect x="285.29" y="148.29" width="419.42" height="419.42"/>
   </clipPath>
  <linearGradient id="id1" gradientUnits="userSpaceOnUse" x1="738.06" y1="559.25" x2="687.2" y2="603.09">
   <stop offset="0" style="stop-opacity:1; stop-color:#EBCFCD"/>
   <stop offset="0.509804" style="stop-opacity:1; stop-color:#C77873"/>
   <stop offset="1" style="stop-opacity:1; stop-color:#EBCFCD"/>
  </linearGradient>
  <linearGradient id="id2" gradientUnits="userSpaceOnUse" xlink:href="#id1" x1="738.06" y1="121.31" x2="687.2" y2="165.15">
  </linearGradient>
  <linearGradient id="id3" gradientUnits="userSpaceOnUse" xlink:href="#id1" x1="300.12" y1="559.25" x2="249.26" y2="603.09">
  </linearGradient>
  <linearGradient id="id4" gradientUnits="userSpaceOnUse" xlink:href="#id1" x1="300.12" y1="121.31" x2="249.26" y2="165.15">
  </linearGradient>
  <linearGradient id="id5" gradientUnits="userSpaceOnUse" xlink:href="#id1" x1="387.78" y1="61.97" x2="158.09" y2="259.94">
  </linearGradient>
  <linearGradient id="id6" gradientUnits="userSpaceOnUse" xlink:href="#id1" x1="387.76" y1="494.01" x2="158.1" y2="691.95">
  </linearGradient>
  <linearGradient id="id7" gradientUnits="userSpaceOnUse" xlink:href="#id1" x1="819.79" y1="493.98" x2="590.1" y2="691.95">
  </linearGradient>
  <linearGradient id="id8" gradientUnits="userSpaceOnUse" xlink:href="#id1" x1="819.79" y1="61.97" x2="590.1" y2="259.94">
  </linearGradient>
 </defs>
 <g id="Layer_x0020_1">
  <metadata id="CorelCorpID_0Corel-Layer"/>
  <path class="fil0" d="M588.98 716c-23.93,-18.05 -62.83,-103 -62.09,-132.45 0.24,-9.73 1.41,-20.74 3,-31.65 -11.33,2.02 -22.98,3.07 -34.89,3.07 -11.9,0 -23.56,-1.05 -34.89,-3.07 1.59,10.91 2.76,21.92 3,31.65 0.74,29.45 -38.16,114.4 -62.09,132.45 28.21,-7.86 61.14,-71.67 93.98,-79.99 32.84,8.32 65.77,72.13 93.98,79.99z"/>
  <path class="fil0" d="M401.02 0c23.93,18.05 62.83,103 62.09,132.45 -0.24,9.73 -1.41,20.74 -2.99,31.66 11.32,-2.02 22.98,-3.08 34.88,-3.08 11.91,0 23.56,1.06 34.89,3.08 -1.59,-10.92 -2.76,-21.93 -3,-31.66 -0.74,-29.45 38.16,-114.4 62.09,-132.45 -28.21,7.86 -61.14,71.67 -93.98,80 -32.84,-8.33 -65.77,-72.14 -93.98,-80z"/>
  <path class="fil0" d="M495 25.39c12.67,0 22.94,10.27 22.94,22.94 0,12.67 -10.27,22.94 -22.94,22.94 -12.67,0 -22.94,-10.27 -22.94,-22.94 0,-12.67 10.27,-22.94 22.94,-22.94z"/>
  <path class="fil1" d="M308.31 677.6c-4.16,-29.68 28.41,-117.26 49.75,-137.56 7.06,-6.71 15.66,-13.67 24.5,-20.27 -9.44,-6.57 -18.43,-14.07 -26.84,-22.49 -8.42,-8.41 -15.92,-17.4 -22.49,-26.84 -6.6,8.84 -13.56,17.45 -20.27,24.5 -20.3,21.34 -107.87,53.91 -137.56,49.75 25.51,14.39 93.92,-7.45 123.02,9.89 17.34,29.1 -4.5,97.51 9.89,123.02z"/>
  <path class="fil2" d="M259.81 593.19c-8.96,-8.96 -8.96,-23.48 0,-32.44 8.96,-8.96 23.48,-8.96 32.44,0 8.96,8.96 8.96,23.48 0,32.44 -8.96,8.96 -23.48,8.96 -32.44,0z"/>
  <path class="fil3" d="M564.03 49.21c8.77,15.1 10.45,69.49 3.4,85.13 -4.49,9.97 -11.9,21.69 -18.07,30.77l21.46 9.04 21.45 9.03c2.19,-10.76 5.4,-24.25 9.39,-34.42 6.26,-15.98 46.34,-52.78 63.26,-57.07 -16.92,-2.15 -49.02,24.66 -68.52,21.71 -15.75,-11.89 -19,-53.59 -32.37,-64.19z"/>
  <path class="fil3" d="M608.74 84.09c6.8,2.85 9.99,10.69 7.13,17.49 -2.86,6.8 -10.7,10 -17.5,7.13 -6.8,-2.86 -9.99,-10.7 -7.13,-17.5 2.87,-6.8 10.7,-9.99 17.5,-7.12z"/>
  <path class="fil3" d="M762.16 188.47c-4.48,16.88 -41.75,56.52 -57.79,62.59 -10.23,3.88 -23.76,6.93 -34.54,8.99l8.79 21.56 8.79 21.55c9.14,-6.06 20.95,-13.32 30.97,-17.7 15.72,-6.87 70.09,-4.55 85.08,4.39 -10.44,-13.49 -52.09,-17.23 -63.8,-33.11 -2.73,-19.54 24.45,-51.33 22.5,-68.27z"/>
  <path class="fil3" d="M769.11 244.74c2.78,6.83 -0.5,14.63 -7.32,17.41 -6.84,2.79 -14.64,-0.5 -17.42,-7.33 -2.78,-6.84 0.5,-14.63 7.33,-17.42 6.84,-2.78 14.63,0.5 17.41,7.34z"/>
  <path class="fil3" d="M803.79 427.04c-15.1,8.76 -69.49,10.44 -85.13,3.39 -9.97,-4.5 -21.69,-11.9 -30.77,-18.07l-9.03 21.46 -9.04 21.45c10.76,2.19 24.25,5.4 34.43,9.39 15.97,6.26 52.77,46.34 57.05,63.26 2.16,-16.92 -24.65,-49.02 -21.7,-68.52 11.89,-15.75 53.59,-19 64.19,-32.36z"/>
  <path class="fil3" d="M768.92 471.74c-2.86,6.8 -10.7,9.99 -17.5,7.13 -6.8,-2.87 -10,-10.7 -7.13,-17.5 2.86,-6.8 10.7,-9.99 17.5,-7.13 6.8,2.86 9.99,10.7 7.13,17.5z"/>
  <path class="fil3" d="M664.53 625.16c-16.87,-4.48 -56.52,-41.75 -62.59,-57.79 -3.88,-10.23 -6.93,-23.76 -8.99,-34.53l-21.56 8.78 -21.55 8.78c6.06,9.15 13.32,20.96 17.7,30.98 6.87,15.72 4.55,70.08 -4.39,85.08 13.49,-10.44 17.23,-52.09 33.11,-63.8 19.54,-2.72 51.32,24.46 68.27,22.5z"/>
  <path class="fil3" d="M608.26 632.11c-6.83,2.79 -14.63,-0.49 -17.41,-7.33 -2.78,-6.83 0.5,-14.63 7.33,-17.41 6.84,-2.78 14.63,0.5 17.42,7.33 2.78,6.84 -0.5,14.63 -7.34,17.41z"/>
  <path class="fil3" d="M425.97 666.79c-8.77,-15.1 -10.45,-69.49 -3.4,-85.13 4.5,-9.97 11.9,-21.69 18.07,-30.77l-21.46 -9.03 -21.45 -9.04c-2.19,10.76 -5.4,24.25 -9.39,34.43 -6.26,15.97 -46.34,52.77 -63.26,57.06 16.92,2.15 49.02,-24.66 68.52,-21.7 15.75,11.89 19,53.58 32.37,64.18z"/>
  <path class="fil3" d="M381.26 631.92c-6.8,-2.87 -9.99,-10.7 -7.13,-17.5 2.87,-6.8 10.7,-9.99 17.5,-7.13 6.8,2.87 9.99,10.7 7.13,17.5 -2.86,6.8 -10.7,9.99 -17.5,7.13z"/>
  <path class="fil3" d="M227.84 527.53c4.48,-16.87 41.75,-56.52 57.79,-62.59 10.23,-3.87 23.76,-6.93 34.54,-8.99l-8.79 -21.55 -8.78 -21.56c-9.15,6.06 -20.96,13.33 -30.98,17.7 -15.72,6.87 -70.08,4.55 -85.08,-4.39 10.44,13.49 52.1,17.23 63.8,33.11 2.72,19.54 -24.46,51.33 -22.5,68.27z"/>
  <path class="fil3" d="M220.89 471.26c-2.79,-6.83 0.49,-14.63 7.33,-17.41 6.83,-2.78 14.63,0.5 17.41,7.33 2.79,6.83 -0.5,14.63 -7.33,17.42 -6.83,2.78 -14.63,-0.5 -17.41,-7.34z"/>
  <path class="fil3" d="M186.21 288.97c15.1,-8.77 69.49,-10.45 85.13,-3.4 9.97,4.5 21.69,11.9 30.77,18.07l9.03 -21.46 9.04 -21.45c-10.76,-2.19 -24.25,-5.4 -34.43,-9.39 -15.97,-6.26 -52.77,-46.34 -57.05,-63.26 -2.16,16.92 24.65,49.02 21.69,68.52 -11.89,15.75 -53.58,19 -64.18,32.37z"/>
  <path class="fil3" d="M221.08 244.26c2.87,-6.8 10.7,-9.99 17.5,-7.13 6.8,2.87 9.99,10.7 7.13,17.5 -2.87,6.8 -10.7,9.99 -17.5,7.13 -6.8,-2.86 -9.99,-10.7 -7.13,-17.5z"/>
  <path class="fil3" d="M325.47 90.84c16.87,4.48 56.52,41.75 62.59,57.8 3.87,10.22 6.93,23.75 8.99,34.52l21.55 -8.78 21.57 -8.78c-6.07,-9.15 -13.34,-20.96 -17.71,-30.98 -6.87,-15.72 -4.55,-70.09 4.39,-85.08 -13.49,10.45 -17.23,52.1 -33.11,63.8 -19.54,2.73 -51.32,-24.45 -68.27,-22.5z"/>
  <path class="fil3" d="M381.74 83.89c6.83,-2.79 14.63,0.49 17.41,7.33 2.78,6.83 -0.5,14.63 -7.33,17.41 -6.83,2.78 -14.63,-0.5 -17.41,-7.33 -2.79,-6.83 0.49,-14.63 7.33,-17.41z"/>
  <path class="fil4" d="M681.69 38.4c4.16,29.69 -28.41,117.27 -49.75,137.56 -7.06,6.73 -15.68,13.68 -24.53,20.29 19.23,13.38 35.95,30.11 49.35,49.34 6.6,-8.85 13.56,-17.47 20.28,-24.54 20.29,-21.33 107.87,-53.89 137.56,-49.74 -25.51,-14.39 -93.92,7.45 -123.02,-9.89 -17.34,-29.1 4.5,-97.51 -9.89,-123.02z"/>
  <path class="fil5" d="M730.19 122.81c8.96,8.96 8.96,23.48 0,32.44 -8.96,8.96 -23.48,8.96 -32.44,0 -8.96,-8.96 -8.96,-23.48 0,-32.44 8.96,-8.96 23.48,-8.96 32.44,0z"/>
  <path class="fil0" d="M853 264.02c-18.05,23.93 -103,62.83 -132.45,62.09 -9.74,-0.24 -20.74,-1.41 -31.66,-3 2.03,11.33 3.09,22.98 3.09,34.89 0,11.91 -1.06,23.56 -3.09,34.89 10.92,-1.59 21.92,-2.76 31.66,-3 29.45,-0.74 114.4,38.16 132.45,62.09 -7.86,-28.21 -71.67,-61.14 -79.99,-93.98 8.32,-32.84 72.13,-65.77 79.99,-93.98z"/>
  <path class="fil0" d="M827.61 358c0,12.67 -10.27,22.94 -22.94,22.94 -12.67,0 -22.94,-10.27 -22.94,-22.94 0,-12.67 10.27,-22.94 22.94,-22.94 12.67,0 22.94,10.27 22.94,22.94z"/>
  <path class="fil6" d="M814.6 544.69c-29.69,4.16 -117.27,-28.41 -137.56,-49.75 -6.72,-7.06 -13.68,-15.68 -20.28,-24.53 -13.39,19.23 -30.12,35.95 -49.35,49.34 8.85,6.61 17.47,13.57 24.53,20.29 21.34,20.3 53.91,107.88 49.75,137.56 14.39,-25.51 -7.45,-93.92 9.89,-123.02 29.1,-17.34 97.51,4.5 123.02,-9.89z"/>
  <path class="fil7" d="M730.19 593.19c-8.96,8.96 -23.48,8.96 -32.44,0 -8.96,-8.96 -8.96,-23.48 0,-32.44 8.96,-8.96 23.48,-8.96 32.44,0 8.96,8.96 8.96,23.48 0,32.44z"/>
  <path class="fil0" d="M495 690.61c-12.67,0 -22.94,-10.27 -22.94,-22.94 0,-12.67 10.27,-22.94 22.94,-22.94 12.67,0 22.94,10.27 22.94,22.94 0,12.67 -10.27,22.94 -22.94,22.94z"/>
  <path class="fil0" d="M137 451.98c18.05,-23.93 103.01,-62.83 132.45,-62.09 9.73,0.24 20.74,1.41 31.65,3 -2.02,-11.33 -3.07,-22.98 -3.07,-34.89 0,-11.91 1.05,-23.56 3.07,-34.89 -10.91,1.59 -21.92,2.76 -31.65,3 -29.44,0.74 -114.4,-38.16 -132.45,-62.09 7.86,28.21 71.68,61.14 79.99,93.98 -8.31,32.84 -72.13,65.77 -79.99,93.98z"/>
  <path class="fil0" d="M162.39 358c0,-12.67 10.27,-22.94 22.94,-22.94 12.67,0 22.94,10.27 22.94,22.94 0,12.67 -10.27,22.94 -22.94,22.94 -12.67,0 -22.94,-10.27 -22.94,-22.94z"/>
  <path class="fil8" d="M175.4 171.31c29.69,-4.15 117.26,28.41 137.56,49.74 6.72,7.07 13.68,15.69 20.29,24.54 13.39,-19.23 30.11,-35.95 49.34,-49.34 -8.85,-6.61 -17.47,-13.56 -24.53,-20.29 -21.34,-20.29 -53.91,-107.87 -49.75,-137.56 -14.39,25.51 7.45,93.92 -9.89,123.02 -29.1,17.34 -97.51,-4.5 -123.02,9.89z"/>
  <path class="fil9" d="M259.81 122.81c8.96,-8.96 23.48,-8.96 32.44,0 8.96,8.96 8.96,23.48 0,32.44 -8.96,8.96 -23.48,8.96 -32.44,0 -8.96,-8.96 -8.96,-23.48 0,-32.44z"/>
  <path class="fil10" d="M495.08 594.74c-0.17,0 -0.35,0 -0.52,0l0 -31.17 4.48 -172.4 -4.48 -187.91 0 360.31m0 0l0 -360.31 0 -14.3c0,-13.75 -11.24,-24.99 -24.99,-24.99l-14.52 0c1.45,-3.27 3.59,-6.17 6.23,-8.53 3.97,-3.56 9.09,-5.87 14.71,-6.3 0.07,0 0.15,-0.01 0.23,-0.02 0,0 0,0 0.01,0 0.05,0 0.1,-0.01 0.15,-0.01 0,0 0,0 0.01,0 0.02,0 0.04,0 0.07,0 0,0 0,0 0.01,0 0.05,0 0.1,-0.01 0.14,-0.01 0.01,0 0.01,0 0.02,0 0.02,0 0.04,-0.01 0.06,-0.01 0,0 0.01,0 0.01,0 0.05,0 0.11,0 0.15,0 0.01,0 0.01,0 0.02,0 0.02,0 0.04,0 0.06,0 0.01,0 0.01,0 0.01,0 0.03,0 0.05,0 0.08,-0.01 0,0 0,0 0,0 0.03,0 0.05,0 0.07,0 0.01,0 0.01,0 0.02,0 0.02,0 0.04,0 0.06,0 0,0 0.01,0 0.01,0 0.03,0 0.05,-0.01 0.08,-0.01 0,0 0,0 0.01,0 0.02,0 0.04,0 0.06,0 0.01,0 0.01,0 0.02,0 0.02,0 0.04,0 0.06,0 0,0 0.01,0 0.01,0 0.03,0 0.05,0 0.07,0 0.01,0 0.02,0 0.02,0 0.02,0 0.04,0 0.06,0 0,0 0.01,-0.01 0.02,-0.01 0.02,0 0.04,0 0.06,0 0.01,0 0.01,0 0.01,0 0.02,0 0.05,0 0.07,0 0.01,0 0.02,0 0.02,0 0.02,0 0.04,0 0.06,0 0,0 0.01,0 0.02,0 0.02,0 0.05,0 0.07,0l34.2 0c0.1,0 0.21,0 0.32,0 6.24,0.09 11.95,2.49 16.3,6.38 0.35,0.31 0.69,0.64 1.03,0.97 4.52,4.52 7.34,10.77 7.34,17.64l0 417.6c-2.34,0.34 -4.68,0.66 -7.01,0.95 -0.82,0.1 -1.63,0.19 -2.45,0.28 -10.81,1.24 -21.68,1.86 -32.55,1.86"/>
  <g style="clip-path:url(#id0)">
   <image id="Rccg_logo.png" x="285.29" y="148.29" width="419.42" height="419.42" xlink:href="The Elect cubs_Images\The Elect cubs_ImgID1.png"/>
  </g>
  <path class="fil11" d="M42.73 698.88c1.29,0 2.31,0.47 3.03,1.42 0.73,0.95 1.08,2.01 1.05,3.19 -0.02,1.17 -0.51,2.25 -1.46,3.22 -0.95,0.98 -2.45,1.49 -4.5,1.54l-11.25 0 -17.62 50.1c-0.56,1.65 -1.57,2.8 -3.04,3.45 -1.48,0.65 -2.94,0.84 -4.39,0.56 -1.45,-0.27 -2.62,-0.98 -3.52,-2.13 -0.9,-1.15 -1.03,-2.7 -0.38,-4.65l16.58 -47.33 -12.6 0c-1.41,0 -2.49,-0.49 -3.27,-1.46 -0.77,-0.98 -1.14,-2.04 -1.08,-3.19 0.04,-1.15 0.56,-2.21 1.53,-3.19 0.98,-0.97 2.49,-1.49 4.54,-1.53l36.38 0z"/>
  <path id="_1" class="fil11" d="M78.8 741.1c0.45,-1.5 1.28,-2.5 2.48,-3 1.2,-0.5 2.36,-0.63 3.48,-0.37 1.13,0.25 2.04,0.83 2.74,1.76 0.7,0.92 0.83,2.03 0.38,3.34 -1.35,3.9 -2.85,7.13 -4.5,9.71 -1.65,2.57 -3.38,4.62 -5.18,6.15 -1.8,1.52 -3.64,2.6 -5.51,3.22 -1.88,0.63 -3.71,0.94 -5.51,0.94 -1.61,0 -3.14,-0.22 -4.62,-0.67 -1.47,-0.45 -2.79,-1.13 -3.93,-2.03 -1.16,-0.9 -2.08,-2.02 -2.78,-3.37 -0.7,-1.35 -1.05,-2.9 -1.05,-4.65 0,-1.5 0.3,-3.15 0.9,-4.95l0 0.07 5.4 -15.37c0.2,-0.41 0.3,-0.86 0.3,-1.35 0,-0.71 -0.24,-1.29 -0.71,-1.77 -0.48,-0.47 -1.09,-0.71 -1.84,-0.71 -1.15,0 -2.31,0.48 -3.49,1.43 -1.17,0.94 -2.16,2.14 -2.96,3.6l-9 25.27c-0.75,2 -1.83,3.31 -3.22,3.94 -1.41,0.62 -2.73,0.71 -3.98,0.26 -1.25,-0.45 -2.23,-1.39 -2.93,-2.81 -0.7,-1.43 -0.67,-3.19 0.08,-5.29l17.55 -49.12c0.5,-1.61 1.17,-2.85 2.03,-3.75 0.84,-0.9 1.74,-1.49 2.7,-1.77 0.94,-0.27 1.87,-0.27 2.77,0 0.9,0.28 1.64,0.78 2.21,1.5 0.58,0.73 0.94,1.66 1.09,2.82 0.15,1.15 -0.07,2.44 -0.67,3.9l-4.05 11.85c1.5,-0.65 3.09,-0.98 4.8,-0.98 1.5,0 2.91,0.27 4.23,0.83 1.33,0.55 2.48,1.3 3.45,2.25 0.98,0.94 1.74,2.07 2.29,3.37 0.55,1.3 0.83,2.7 0.83,4.2 0,1.3 -0.23,2.65 -0.68,4.05l-6.15 17.4c-0.15,0.3 -0.22,0.63 -0.22,0.98 0,0.55 0.21,1.01 0.63,1.38 0.43,0.38 0.99,0.57 1.69,0.57 1.7,0 3.54,-1.02 5.51,-3.04 1.98,-2.03 3.79,-5.29 5.44,-9.79z"/>
  <path id="_2" class="fil11" d="M114.2 741.7c0.4,-1.3 1.19,-2.22 2.36,-2.77 1.18,-0.56 2.35,-0.74 3.53,-0.57 1.17,0.18 2.12,0.69 2.85,1.54 0.72,0.85 0.84,2.03 0.34,3.53 -1.26,3.6 -2.88,6.63 -4.88,9.11 -2,2.47 -4.22,4.49 -6.67,6.04 -2.46,1.55 -5.03,2.67 -7.73,3.37 -2.7,0.7 -5.35,1.05 -7.95,1.05 -2.75,0 -5.3,-0.34 -7.65,-1.01 -2.35,-0.68 -4.39,-1.65 -6.11,-2.93 -1.73,-1.27 -3.09,-2.81 -4.09,-4.61 -1,-1.8 -1.5,-3.82 -1.5,-6.07 0,-0.85 0.09,-1.73 0.26,-2.63 0.18,-0.9 0.42,-1.8 0.72,-2.7l4.42 -12.82c0.65,-1.85 1.52,-3.49 2.63,-4.92 1.1,-1.42 2.34,-2.62 3.75,-3.6 1.4,-0.97 2.91,-1.7 4.53,-2.17 1.63,-0.48 3.27,-0.71 4.92,-0.71 2.1,0 4.02,0.32 5.77,0.97 1.75,0.65 3.24,1.54 4.46,2.66 1.23,1.13 2.18,2.45 2.85,3.98 0.68,1.52 1.02,3.19 1.02,4.99 0,1.24 -0.21,2.62 -0.6,4.12 -0.51,1.7 -1.24,3.23 -2.22,4.58 -0.97,1.35 -2.11,2.5 -3.41,3.45 -1.3,0.95 -2.74,1.68 -4.31,2.21 -1.58,0.52 -3.21,0.79 -4.91,0.79 -1.5,0 -2.92,-0.2 -4.24,-0.6 -1.33,-0.4 -2.54,-0.95 -3.64,-1.65l-0.6 1.42c-0.25,0.65 -0.37,1.35 -0.37,2.1 0,1.75 0.8,3.23 2.4,4.43 1.59,1.2 3.77,1.8 6.52,1.8 1.6,0 3.26,-0.24 4.99,-0.72 1.72,-0.47 3.37,-1.21 4.95,-2.21 1.57,-1 3.02,-2.27 4.35,-3.82 1.32,-1.55 2.41,-3.43 3.26,-5.63zm-16.5 -13.95c-0.85,0 -1.69,0.31 -2.51,0.94 -0.83,0.62 -1.46,1.51 -1.91,2.66l-1.58 4.5c0.7,0.4 1.51,0.68 2.44,0.83 0.92,0.15 1.84,0.15 2.74,0 0.9,-0.15 1.71,-0.49 2.43,-1.02 0.73,-0.52 1.24,-1.28 1.54,-2.28 0.2,-0.56 0.3,-1.16 0.3,-1.8 0,-1.05 -0.31,-1.95 -0.94,-2.7 -0.62,-0.75 -1.46,-1.13 -2.51,-1.13z"/>
  <path class="fil11" d="M20.64 805.49l29.83 0 0 16.25 -29.83 0 0 -16.25zm1.53 25.05l33.46 0 0 17.01 -55.63 0 0 -66.91 54.38 0 0 17.02 -32.21 0 0 32.88z"/>
  <polygon id="_1_0" class="fil11" points="64.32,847.55 64.32,780.64 86.88,780.64 86.88,830.06 117.08,830.06 117.08,847.55 "/>
  <path id="_2_1" class="fil11" d="M143.94 805.49l29.82 0 0 16.25 -29.82 0 0 -16.25zm1.53 25.05l33.45 0 0 17.01 -55.62 0 0 -66.91 54.38 0 0 17.02 -32.21 0 0 32.88z"/>
  <path id="_3" class="fil11" d="M222.22 849.08c-5.35,0 -10.31,-0.85 -14.86,-2.53 -4.56,-1.69 -8.51,-4.1 -11.86,-7.22 -3.34,-3.12 -5.94,-6.82 -7.78,-11.09 -1.85,-4.27 -2.78,-8.98 -2.78,-14.14 0,-5.16 0.93,-9.88 2.78,-14.15 1.84,-4.27 4.44,-7.96 7.78,-11.09 3.35,-3.12 7.3,-5.52 11.86,-7.21 4.55,-1.69 9.51,-2.54 14.86,-2.54 6.56,0 12.38,1.15 17.44,3.45 5.07,2.29 9.26,5.6 12.57,9.94l-14.24 12.71c-1.98,-2.49 -4.16,-4.41 -6.55,-5.78 -2.39,-1.37 -5.08,-2.06 -8.07,-2.06 -2.36,0 -4.5,0.38 -6.41,1.15 -1.91,0.76 -3.55,1.88 -4.92,3.34 -1.37,1.47 -2.44,3.24 -3.2,5.31 -0.77,2.07 -1.15,4.38 -1.15,6.93 0,2.55 0.38,4.86 1.15,6.93 0.76,2.07 1.83,3.83 3.2,5.3 1.37,1.47 3.01,2.58 4.92,3.35 1.91,0.76 4.05,1.14 6.41,1.14 2.99,0 5.68,-0.68 8.07,-2.05 2.39,-1.37 4.57,-3.3 6.55,-5.78l14.24 12.71c-3.31,4.27 -7.5,7.56 -12.57,9.89 -5.06,2.33 -10.88,3.49 -17.44,3.49z"/>
  <polygon id="_4" class="fil11" points="272.78,847.55 272.78,798.14 253.19,798.14 253.19,780.64 314.93,780.64 314.93,798.14 295.34,798.14 295.34,847.55 "/>
  <path id="_5" class="fil11" d="M384.03 849.08c-5.35,0 -10.3,-0.85 -14.86,-2.53 -4.55,-1.69 -8.51,-4.1 -11.85,-7.22 -3.35,-3.12 -5.94,-6.82 -7.79,-11.09 -1.85,-4.27 -2.77,-8.98 -2.77,-14.14 0,-5.16 0.92,-9.88 2.77,-14.15 1.85,-4.27 4.44,-7.96 7.79,-11.09 3.34,-3.12 7.3,-5.52 11.85,-7.21 4.56,-1.69 9.51,-2.54 14.86,-2.54 6.57,0 12.38,1.15 17.45,3.45 5.06,2.29 9.25,5.6 12.57,9.94l-14.25 12.71c-1.97,-2.49 -4.15,-4.41 -6.54,-5.78 -2.39,-1.37 -5.09,-2.06 -8.08,-2.06 -2.36,0 -4.49,0.38 -6.4,1.15 -1.91,0.76 -3.56,1.88 -4.93,3.34 -1.36,1.47 -2.43,3.24 -3.2,5.31 -0.76,2.07 -1.14,4.38 -1.14,6.93 0,2.55 0.38,4.86 1.14,6.93 0.77,2.07 1.84,3.83 3.2,5.3 1.37,1.47 3.02,2.58 4.93,3.35 1.91,0.76 4.04,1.14 6.4,1.14 2.99,0 5.69,-0.68 8.08,-2.05 2.39,-1.37 4.57,-3.3 6.54,-5.78l14.25 12.71c-3.32,4.27 -7.51,7.56 -12.57,9.89 -5.07,2.33 -10.88,3.49 -17.45,3.49z"/>
  <path id="_6" class="fil11" d="M451.61 849.08c-10.26,0 -18.26,-2.77 -23.99,-8.32 -5.74,-5.54 -8.61,-13.31 -8.61,-23.32l0 -36.8 22.56 0 0 36.13c0,5.1 0.93,8.72 2.77,10.85 1.85,2.14 4.34,3.2 7.46,3.2 3.18,0 5.69,-1.06 7.5,-3.2 1.82,-2.13 2.72,-5.75 2.72,-10.85l0 -36.13 22.18 0 0 36.8c0,10.01 -2.87,17.78 -8.6,23.32 -5.74,5.55 -13.73,8.32 -23.99,8.32z"/>
  <path id="_7" class="fil11" d="M494.52 847.55l0 -66.91 35.75 0c9.24,0 16.06,1.64 20.45,4.93 4.4,3.28 6.6,7.47 6.6,12.57 0,3.37 -0.94,6.38 -2.82,9.03 -1.88,2.64 -4.61,4.73 -8.17,6.26 -3.57,1.53 -7.97,2.29 -13.19,2.29l1.91 -5.16c5.22,0 9.73,0.73 13.52,2.2 3.79,1.46 6.72,3.58 8.79,6.35 2.08,2.78 3.11,6.11 3.11,9.99 0,5.8 -2.4,10.33 -7.21,13.57 -4.81,3.25 -11.84,4.88 -21.08,4.88l-37.66 0zm22.18 -15.77l13.57 0c2.48,0 4.35,-0.45 5.59,-1.34 1.24,-0.89 1.86,-2.2 1.86,-3.92 0,-1.72 -0.62,-3.03 -1.86,-3.92 -1.24,-0.89 -3.11,-1.34 -5.59,-1.34l-15.1 0 0 -14.91 12.04 0c2.55,0 4.41,-0.43 5.59,-1.29 1.18,-0.86 1.77,-2.08 1.77,-3.68 0,-1.65 -0.59,-2.89 -1.77,-3.72 -1.18,-0.83 -3.04,-1.25 -5.59,-1.25l-10.51 0 0 35.37z"/>
  <path id="_8" class="fil11" d="M593.35 849.08c-5.61,0 -11.02,-0.64 -16.25,-1.91 -5.22,-1.28 -9.52,-2.93 -12.9,-4.97l7.26 -16.44c3.19,1.85 6.74,3.33 10.66,4.44 3.92,1.12 7.73,1.67 11.42,1.67 2.17,0 3.87,-0.14 5.11,-0.43 1.25,-0.28 2.16,-0.7 2.73,-1.24 0.57,-0.54 0.86,-1.19 0.86,-1.96 0,-1.21 -0.67,-2.16 -2.01,-2.86 -1.34,-0.71 -3.1,-1.3 -5.3,-1.77 -2.2,-0.48 -4.61,-0.99 -7.22,-1.53 -2.61,-0.54 -5.24,-1.26 -7.88,-2.15 -2.65,-0.89 -5.07,-2.07 -7.27,-3.54 -2.2,-1.47 -3.97,-3.39 -5.3,-5.78 -1.34,-2.39 -2.01,-5.37 -2.01,-8.94 0,-4.14 1.16,-7.92 3.49,-11.32 2.32,-3.41 5.8,-6.14 10.42,-8.18 4.62,-2.04 10.37,-3.06 17.25,-3.06 4.52,0 8.98,0.48 13.38,1.44 4.4,0.95 8.35,2.42 11.85,4.39l-6.78 16.35c-3.32,-1.66 -6.52,-2.9 -9.61,-3.73 -3.09,-0.83 -6.1,-1.24 -9.03,-1.24 -2.17,0 -3.89,0.19 -5.16,0.57 -1.28,0.39 -2.19,0.89 -2.73,1.53 -0.54,0.64 -0.81,1.34 -0.81,2.1 0,1.15 0.67,2.06 2.01,2.73 1.34,0.67 3.1,1.23 5.3,1.67 2.2,0.45 4.62,0.93 7.27,1.43 2.64,0.51 5.27,1.22 7.88,2.11 2.61,0.89 5.02,2.07 7.22,3.53 2.2,1.47 3.96,3.38 5.3,5.74 1.34,2.36 2.01,5.29 2.01,8.79 0,4.08 -1.16,7.82 -3.49,11.23 -2.33,3.41 -5.78,6.15 -10.37,8.22 -4.59,2.07 -10.35,3.11 -17.3,3.11z"/>
  <path id="_9" class="fil11" d="M826.37 780.64l22.56 0 0 66.91 -22.56 0 0 -66.91zm-20.84 66.91l-22.55 0 0 -66.91 22.55 0 0 66.91zm22.37 -24.66l-23.89 0 0 -18.54 23.89 0 0 18.54z"/>
  <path id="_10" class="fil11" d="M894.52 849.08c-5.42,0 -10.4,-0.85 -14.96,-2.53 -4.56,-1.69 -8.51,-4.1 -11.85,-7.22 -3.35,-3.12 -5.94,-6.82 -7.79,-11.09 -1.85,-4.27 -2.77,-8.98 -2.77,-14.14 0,-5.16 0.92,-9.88 2.77,-14.15 1.85,-4.27 4.46,-7.96 7.84,-11.09 3.37,-3.12 7.37,-5.52 11.99,-7.21 4.62,-1.69 9.7,-2.54 15.25,-2.54 6.62,0 12.53,1.12 17.73,3.35 5.19,2.23 9.47,5.42 12.85,9.56l-14.43 12.71c-2.1,-2.42 -4.38,-4.25 -6.84,-5.5 -2.45,-1.24 -5.17,-1.86 -8.17,-1.86 -2.48,0 -4.73,0.38 -6.74,1.15 -2,0.76 -3.71,1.88 -5.11,3.34 -1.4,1.47 -2.48,3.22 -3.25,5.26 -0.76,2.04 -1.15,4.36 -1.15,6.98 0,2.48 0.39,4.76 1.15,6.83 0.77,2.07 1.85,3.84 3.25,5.31 1.4,1.46 3.08,2.59 5.02,3.39 1.94,0.79 4.13,1.19 6.55,1.19 2.55,0 5.03,-0.43 7.45,-1.29 2.42,-0.86 5,-2.34 7.74,-4.44l12.62 15.48c-4.08,2.74 -8.73,4.85 -13.96,6.31 -5.22,1.47 -10.29,2.2 -15.19,2.2zm9.56 -11.38l0 -25.42 19.59 0 0 28.29 -19.59 -2.87z"/>
  <polygon id="_11" class="fil11" points="947.85,847.55 947.85,798.14 928.26,798.14 928.26,780.64 990,780.64 990,798.14 970.41,798.14 970.41,847.55 "/>
  <path id="_12" class="fil11" d="M681.86 848.12c-4.85,0 -9.04,-0.9 -12.57,-2.72 -3.54,-1.82 -6.3,-4.37 -8.27,-7.65 -1.98,-3.28 -2.96,-7.12 -2.96,-11.51 0,-5.74 1.27,-10.85 3.82,-15.35 2.55,-4.49 6.07,-8.02 10.56,-10.6 4.49,-2.58 9.61,-3.88 15.34,-3.88 4.78,0 8.95,0.9 12.52,2.68 3.57,1.79 6.33,4.3 8.27,7.55 1.94,3.25 2.91,7.11 2.91,11.57 0,5.73 -1.27,10.84 -3.82,15.34 -2.55,4.49 -6.04,8.04 -10.46,10.65 -4.43,2.62 -9.55,3.92 -15.34,3.92zm0.57 -8.03c3.82,0 7.23,-0.92 10.23,-2.77 2.99,-1.85 5.33,-4.38 7.02,-7.6 1.69,-3.21 2.53,-6.89 2.53,-11.04 0,-4.46 -1.3,-7.94 -3.91,-10.46 -2.62,-2.52 -6.34,-3.78 -11.19,-3.78 -3.76,0 -7.13,0.91 -10.13,2.73 -2.99,1.81 -5.35,4.33 -7.07,7.55 -1.72,3.22 -2.58,6.93 -2.58,11.13 0,4.4 1.3,7.87 3.92,10.42 2.61,2.55 6.34,3.82 11.18,3.82z"/>
  <path id="_13" class="fil11" d="M720.09 847.55l11.18 -55.44c1.02,-5.09 3.11,-9.04 6.26,-11.85 3.15,-2.8 7.31,-4.2 12.47,-4.2 2.11,0 4.1,0.27 5.98,0.81 1.88,0.54 3.42,1.32 4.63,2.34l-3.82 6.79c-1.79,-1.6 -4.05,-2.39 -6.79,-2.39 -2.74,0 -4.92,0.76 -6.54,2.29 -1.63,1.53 -2.76,3.86 -3.4,6.98l-1.43 6.59 -0.48 3.83 -8.89 44.25 -9.17 0zm0 -43.11l1.43 -7.55 32.4 0 -1.53 7.55 -32.3 0z"/>
  <path class="fil12" d="M765.37 863.87c0.49,0.49 0.73,1.11 0.73,1.88 0,0.39 -0.07,0.81 -0.23,1.23 -0.15,0.43 -0.38,0.81 -0.68,1.15 -0.31,0.34 -0.67,0.62 -1.08,0.85 -0.41,0.23 -0.86,0.36 -1.35,0.39l0.04 0c-0.94,0.06 -1.84,0.43 -2.68,1.1 -0.84,0.67 -1.52,1.69 -2.04,3.07l0 -0.05 -9.07 25.44c-0.31,0.8 -0.46,1.56 -0.46,2.29 0,1.22 0.41,2.2 1.24,2.91 0.82,0.72 1.83,1.08 3.02,1.08 0.09,0 0.23,0.04 0.41,0.11 0.19,0.08 0.31,0.15 0.37,0.21 0.49,0.56 0.73,1.19 0.73,1.9 0,0.71 -0.27,1.38 -0.82,2.01 -0.55,0.63 -1.45,1.04 -2.71,1.22 -1.37,0 -2.65,-0.24 -3.82,-0.74 -1.18,-0.49 -2.19,-1.17 -3.03,-2.03 -0.84,-0.86 -1.5,-1.88 -1.99,-3.04 -0.49,-1.17 -0.73,-2.42 -0.73,-3.76 0,-1.26 0.22,-2.57 0.68,-3.95l8.76 -24.75c0.55,-1.59 1.3,-2.95 2.24,-4.08 0.95,-1.13 1.99,-2.04 3.12,-2.75 1.13,-0.7 2.33,-1.22 3.6,-1.55 1.27,-0.34 2.5,-0.51 3.69,-0.51 0.27,0 0.53,0.01 0.78,0.02 0.24,0.02 0.49,0.04 0.73,0.07l0.55 0.28z"/>
  <path id="_1_2" class="fil12" d="M778.75 868.04c1.5,0 2.88,0.24 4.13,0.73 1.25,0.49 2.31,1.16 3.18,2.02 0.87,0.85 1.54,1.86 2,3.02 0.46,1.16 0.65,2.42 0.59,3.76 -0.15,1.41 -0.64,2.9 -1.46,4.49 -0.83,1.59 -1.97,3.18 -3.44,4.77l0.05 0 -12.75 14.07 8.71 0c0.92,0 1.59,0.33 2.02,0.99 0.43,0.65 0.58,1.39 0.46,2.2 -0.13,0.81 -0.55,1.54 -1.26,2.2 -0.72,0.65 -1.78,0.98 -3.19,0.98l-17.28 0c-1.07,0 -1.77,-0.16 -2.11,-0.48 -0.33,-0.32 -0.48,-0.71 -0.43,-1.17 0.04,-0.46 0.21,-0.91 0.5,-1.37 0.29,-0.46 0.56,-0.83 0.8,-1.1l18.52 -20.26c0.77,-0.86 1.38,-1.74 1.86,-2.66 0.47,-0.92 0.75,-1.76 0.85,-2.54 0.09,-0.78 -0.04,-1.42 -0.37,-1.93 -0.34,-0.5 -0.96,-0.75 -1.88,-0.75 -1.34,0 -2.28,0.67 -2.8,2.01 -0.36,0.86 -0.83,1.51 -1.4,1.95 -0.56,0.44 -1.16,0.73 -1.8,0.85 -0.65,0.12 -1.28,0.09 -1.91,-0.09 -0.62,-0.19 -1.15,-0.49 -1.58,-0.92 -0.43,-0.43 -0.72,-0.97 -0.89,-1.63 -0.17,-0.65 -0.12,-1.38 0.16,-2.17l0 0.04c0.3,-0.95 0.79,-1.85 1.46,-2.7 0.68,-0.86 1.48,-1.61 2.41,-2.25 0.93,-0.64 1.98,-1.14 3.14,-1.51 1.16,-0.37 2.4,-0.55 3.71,-0.55z"/>
  <path id="_2_3" class="fil12" d="M817.35 868.59c0.79,0 1.41,0.29 1.85,0.87 0.44,0.58 0.66,1.23 0.64,1.95 -0.01,0.72 -0.31,1.37 -0.89,1.97 -0.58,0.59 -1.5,0.91 -2.75,0.94l-6.87 0 -10.78 30.62c-0.33,1 -0.95,1.71 -1.85,2.1 -0.9,0.4 -1.8,0.52 -2.68,0.35 -0.89,-0.17 -1.61,-0.61 -2.16,-1.31 -0.55,-0.7 -0.62,-1.65 -0.23,-2.84l10.13 -28.92 -7.7 0c-0.85,0 -1.52,-0.3 -1.99,-0.9 -0.48,-0.59 -0.7,-1.24 -0.67,-1.94 0.03,-0.71 0.35,-1.36 0.94,-1.95 0.6,-0.6 1.52,-0.91 2.78,-0.94l22.23 0z"/>
  <path id="_3_4" class="fil12" d="M824.08 876.56c-1.04,0 -1.92,-0.36 -2.66,-1.1 -0.73,-0.73 -1.1,-1.63 -1.1,-2.7 0,-1.04 0.37,-1.92 1.1,-2.64 0.74,-0.71 1.62,-1.07 2.66,-1.07 1.04,0 1.93,0.36 2.66,1.07 0.73,0.72 1.1,1.6 1.1,2.64 0,1.07 -0.37,1.97 -1.1,2.7 -0.73,0.74 -1.62,1.1 -2.66,1.1zm-6.18 23.38c-0.1,0.27 -0.14,0.52 -0.14,0.73 0,0.43 0.16,0.8 0.48,1.1 0.32,0.31 0.74,0.46 1.26,0.46 0.46,0 0.95,-0.13 1.47,-0.39 0.52,-0.26 1.05,-0.69 1.6,-1.31 0.55,-0.61 1.11,-1.41 1.67,-2.4 0.57,-0.99 1.13,-2.24 1.68,-3.74 0.3,-0.85 0.82,-1.43 1.55,-1.74 0.74,-0.3 1.46,-0.39 2.16,-0.25 0.7,0.14 1.27,0.47 1.69,1.01 0.43,0.53 0.51,1.21 0.23,2.04 -0.79,2.38 -1.69,4.35 -2.7,5.91 -1.01,1.56 -2.06,2.81 -3.16,3.76 -1.1,0.95 -2.23,1.61 -3.37,1.99 -1.15,0.38 -2.29,0.58 -3.42,0.58 -1.07,0 -2.07,-0.16 -3,-0.46 -0.93,-0.31 -1.76,-0.75 -2.47,-1.33 -0.72,-0.58 -1.29,-1.29 -1.7,-2.13 -0.41,-0.84 -0.62,-1.8 -0.62,-2.87 0,-0.4 0.06,-0.87 0.16,-1.42 0.11,-0.55 0.24,-1.05 0.39,-1.51 0.37,-1.07 0.76,-2.2 1.17,-3.39 0.41,-1.19 0.83,-2.39 1.26,-3.6 0.43,-1.21 0.85,-2.42 1.26,-3.62 0.41,-1.21 0.8,-2.35 1.17,-3.42 0.43,-1.25 1.08,-2.12 1.95,-2.61 0.87,-0.49 1.7,-0.64 2.5,-0.46 0.79,0.19 1.42,0.68 1.88,1.49 0.45,0.81 0.48,1.87 0.09,3.19l-5.04 14.39z"/>
  <path id="_4_5" class="fil12" d="M862.03 894.53c0.28,-0.86 0.77,-1.45 1.49,-1.79 0.72,-0.33 1.43,-0.44 2.13,-0.32 0.71,0.12 1.28,0.46 1.72,1.01 0.45,0.55 0.51,1.28 0.21,2.2 -0.8,2.29 -1.69,4.22 -2.68,5.77 -1,1.56 -2.05,2.8 -3.17,3.74 -1.11,0.94 -2.26,1.61 -3.43,2.03 -1.18,0.4 -2.33,0.61 -3.46,0.61 -1.01,0 -1.97,-0.15 -2.88,-0.44 -0.91,-0.29 -1.71,-0.71 -2.4,-1.26 -0.7,-0.55 -1.24,-1.23 -1.64,-2.04 -0.4,-0.81 -0.6,-1.73 -0.6,-2.77 0,-0.98 0.18,-2 0.56,-3.07l3.29 -9.22c0.15,-0.3 0.23,-0.62 0.23,-0.96 0,-0.43 -0.14,-0.77 -0.41,-1.03 -0.28,-0.26 -0.63,-0.39 -1.06,-0.39 -0.76,0 -1.5,0.35 -2.22,1.03 -0.72,0.69 -1.34,1.61 -1.86,2.78l0 -0.1c-0.39,1.1 -0.81,2.28 -1.23,3.53 -0.43,1.26 -0.88,2.51 -1.33,3.76 -0.46,1.25 -0.9,2.51 -1.33,3.76 -0.43,1.25 -0.84,2.43 -1.24,3.53 -0.28,0.76 -0.67,1.37 -1.19,1.83 -0.52,0.46 -1.07,0.77 -1.65,0.92 -0.58,0.15 -1.16,0.18 -1.72,0.07 -0.57,-0.11 -1.04,-0.35 -1.42,-0.74 -0.38,-0.38 -0.64,-0.87 -0.76,-1.46 -0.12,-0.6 -0.01,-1.31 0.32,-2.13l5.23 -14.62c0.12,-0.28 0.18,-0.55 0.18,-0.83 0,-0.43 -0.14,-0.76 -0.43,-0.98 -0.29,-0.23 -0.67,-0.35 -1.13,-0.35 -0.7,0 -1.39,0.27 -2.06,0.8 -0.67,0.54 -1.25,1.29 -1.74,2.27l-5.27 14.85c-0.22,0.7 -0.56,1.27 -1.03,1.7 -0.48,0.43 -1,0.72 -1.58,0.89 -0.58,0.17 -1.17,0.21 -1.75,0.12 -0.58,-0.1 -1.07,-0.29 -1.49,-0.6 -0.41,-0.3 -0.71,-0.72 -0.89,-1.26 -0.18,-0.53 -0.15,-1.15 0.09,-1.86l7.34 -20.71c0.21,-0.58 0.58,-1.03 1.12,-1.35 0.53,-0.33 1.11,-0.52 1.72,-0.6 0.61,-0.08 1.2,-0.03 1.79,0.14 0.58,0.17 1.02,0.45 1.32,0.84 0.49,-0.18 1.05,-0.38 1.68,-0.61 0.62,-0.23 1.49,-0.32 2.59,-0.26 1.19,0.07 2.15,0.29 2.88,0.69 0.74,0.4 1.33,0.86 1.79,1.38 0.61,-0.52 1.25,-0.93 1.93,-1.22 0.67,-0.29 1.31,-0.5 1.92,-0.64 0.61,-0.14 1.19,-0.21 1.74,-0.23 0.55,-0.01 1.03,-0.01 1.42,0.02 0.95,0.1 1.83,0.29 2.64,0.6 0.81,0.31 1.52,0.72 2.13,1.25 0.61,0.51 1.09,1.13 1.45,1.85 0.35,0.72 0.52,1.54 0.52,2.46 0,0.4 -0.04,0.82 -0.11,1.26 -0.08,0.44 -0.19,0.88 -0.35,1.31 -0.61,1.75 -1.26,3.54 -1.94,5.4 -0.69,1.85 -1.34,3.65 -1.95,5.39 -0.06,0.12 -0.09,0.35 -0.09,0.65 0,0.34 0.11,0.62 0.34,0.85 0.23,0.23 0.57,0.34 1.03,0.34 1.07,0 2.2,-0.61 3.39,-1.83 1.19,-1.22 2.29,-3.21 3.3,-5.96z"/>
  <path id="_5_6" class="fil12" d="M896.36 868.04c1.5,0 2.88,0.24 4.13,0.73 1.25,0.49 2.31,1.16 3.18,2.02 0.87,0.85 1.54,1.86 2,3.02 0.46,1.16 0.65,2.42 0.59,3.76 -0.15,1.41 -0.64,2.9 -1.46,4.49 -0.83,1.59 -1.97,3.18 -3.44,4.77l0.05 0 -12.75 14.07 8.71 0c0.92,0 1.59,0.33 2.02,0.99 0.43,0.65 0.58,1.39 0.46,2.2 -0.13,0.81 -0.55,1.54 -1.26,2.2 -0.72,0.65 -1.78,0.98 -3.19,0.98l-17.28 0c-1.07,0 -1.77,-0.16 -2.11,-0.48 -0.33,-0.32 -0.48,-0.71 -0.43,-1.17 0.04,-0.46 0.21,-0.91 0.5,-1.37 0.29,-0.46 0.56,-0.83 0.8,-1.1l18.52 -20.26c0.76,-0.86 1.38,-1.74 1.86,-2.66 0.47,-0.92 0.75,-1.76 0.85,-2.54 0.09,-0.78 -0.04,-1.42 -0.37,-1.93 -0.34,-0.5 -0.96,-0.75 -1.88,-0.75 -1.35,0 -2.28,0.67 -2.8,2.01 -0.36,0.86 -0.83,1.51 -1.4,1.95 -0.56,0.44 -1.16,0.73 -1.8,0.85 -0.65,0.12 -1.28,0.09 -1.91,-0.09 -0.62,-0.19 -1.15,-0.49 -1.58,-0.92 -0.43,-0.43 -0.72,-0.97 -0.89,-1.63 -0.17,-0.65 -0.12,-1.38 0.16,-2.17l0 0.04c0.3,-0.95 0.79,-1.85 1.46,-2.7 0.68,-0.86 1.48,-1.61 2.41,-2.25 0.93,-0.64 1.98,-1.14 3.14,-1.51 1.16,-0.37 2.4,-0.55 3.71,-0.55z"/>
  <path id="_6_7" class="fil12" d="M915.5 881.01c1.06,0 1.95,0.37 2.69,1.1 0.72,0.73 1.09,1.62 1.09,2.66 0,1.07 -0.37,1.96 -1.09,2.68 -0.74,0.72 -1.63,1.08 -2.69,1.08 -1.03,0 -1.91,-0.36 -2.64,-1.08 -0.73,-0.72 -1.1,-1.61 -1.1,-2.68 0,-1.04 0.37,-1.93 1.1,-2.66 0.73,-0.73 1.61,-1.1 2.64,-1.1zm-6.35 19.16c1.04,0 1.93,0.36 2.66,1.08 0.73,0.71 1.1,1.61 1.1,2.68 0,1.04 -0.37,1.92 -1.1,2.66 -0.73,0.73 -1.62,1.1 -2.66,1.1 -1.07,0 -1.96,-0.37 -2.68,-1.1 -0.72,-0.74 -1.08,-1.62 -1.08,-2.66 0,-1.07 0.36,-1.97 1.08,-2.68 0.72,-0.72 1.61,-1.08 2.68,-1.08z"/>
  <path id="_7_8" class="fil12" d="M930.05 900.58l3.07 0c0.58,0 1.06,0.16 1.44,0.48 0.39,0.32 0.65,0.73 0.78,1.22 0.14,0.49 0.16,1.01 0.07,1.58 -0.09,0.56 -0.31,1.1 -0.66,1.6 -0.35,0.51 -0.83,0.93 -1.45,1.29 -0.61,0.35 -1.35,0.54 -2.24,0.57l-13.11 0c-0.73,0 -1.28,-0.35 -1.65,-1.06 -0.37,-0.7 -0.5,-1.47 -0.39,-2.31 0.11,-0.84 0.47,-1.61 1.1,-2.31 0.63,-0.71 1.55,-1.06 2.77,-1.06l2.75 0c0.86,-2.29 1.65,-4.43 2.39,-6.42 0.73,-1.98 1.46,-3.95 2.17,-5.89 0.72,-1.94 1.45,-3.91 2.18,-5.93 0.73,-2.02 1.53,-4.17 2.38,-6.46l-1.78 0.5c-0.74,0.22 -1.38,0.08 -1.93,-0.41 -0.55,-0.49 -0.87,-1.1 -0.96,-1.84 -0.09,-0.73 0.12,-1.47 0.64,-2.22 0.52,-0.75 1.47,-1.3 2.84,-1.67l10.04 -2.66c0.43,-0.12 0.78,-0.04 1.05,0.25 0.28,0.29 0.34,0.65 0.19,1.08l-1.61 4.22 -10.08 27.45z"/>
  <path id="_8_9" class="fil12" d="M946.41 876.61c0.58,-1.68 1.35,-3.09 2.3,-4.24 0.94,-1.15 1.97,-2.06 3.09,-2.75 1.11,-0.69 2.28,-1.18 3.48,-1.47 1.21,-0.29 2.36,-0.43 3.46,-0.43 1.5,0 2.92,0.23 4.26,0.69 1.35,0.45 2.53,1.1 3.53,1.92 1.01,0.83 1.81,1.81 2.41,2.96 0.6,1.14 0.89,2.4 0.89,3.78 0,1.01 -0.18,2.06 -0.55,3.16l-6.09 17.37c-0.67,1.9 -1.51,3.49 -2.52,4.79 -1.01,1.3 -2.11,2.35 -3.3,3.14 -1.19,0.8 -2.43,1.36 -3.71,1.7 -1.29,0.33 -2.54,0.5 -3.76,0.5 -1.38,0 -2.7,-0.2 -3.97,-0.6 -1.27,-0.39 -2.38,-0.98 -3.34,-1.76 -0.97,-0.78 -1.74,-1.74 -2.32,-2.89 -0.58,-1.14 -0.87,-2.45 -0.87,-3.92 0,-0.64 0.07,-1.31 0.21,-2.01 0.13,-0.71 0.33,-1.41 0.57,-2.11l6.23 -17.83zm15.91 1.74c0.18,-0.55 0.27,-1.04 0.27,-1.47 0,-0.97 -0.36,-1.78 -1.07,-2.42 -0.72,-0.65 -1.6,-0.97 -2.64,-0.97 -0.98,0 -1.97,0.35 -2.98,1.03 -1.01,0.69 -1.8,1.8 -2.38,3.33l-6.69 19.06c-0.13,0.31 -0.21,0.6 -0.26,0.88 -0.04,0.27 -0.07,0.53 -0.07,0.77 0,1.01 0.36,1.83 1.06,2.46 0.7,0.62 1.56,0.94 2.57,0.94 1.19,0 2.3,-0.45 3.32,-1.33 1.02,-0.89 1.81,-2.13 2.36,-3.72l6.51 -18.56z"/>
  <path id="_9_10" class="fil12" d="M965.85 911.72c-0.49,-0.46 -0.74,-1.09 -0.74,-1.88 0,-0.4 0.08,-0.8 0.23,-1.21 0.16,-0.42 0.38,-0.8 0.67,-1.15 0.29,-0.35 0.63,-0.64 1.03,-0.87 0.4,-0.23 0.85,-0.35 1.37,-0.35 0.95,-0.06 1.84,-0.42 2.69,-1.1 0.83,-0.67 1.52,-1.69 2.03,-3.07l9.08 -25.39c0.15,-0.43 0.27,-0.84 0.34,-1.24 0.08,-0.39 0.12,-0.76 0.12,-1.1 0,-1.22 -0.41,-2.18 -1.24,-2.88 -0.82,-0.71 -1.85,-1.06 -3.07,-1.06 -0.09,0 -0.22,-0.04 -0.39,-0.11 -0.17,-0.08 -0.28,-0.15 -0.34,-0.21 -0.49,-0.58 -0.74,-1.19 -0.74,-1.83 0,-0.7 0.27,-1.38 0.81,-2.04 0.53,-0.66 1.44,-1.08 2.72,-1.26 1.38,0 2.65,0.24 3.83,0.73 1.18,0.49 2.18,1.16 3.02,2.02 0.84,0.85 1.51,1.86 2,3.02 0.49,1.16 0.73,2.43 0.73,3.81 0,1.25 -0.23,2.56 -0.69,3.94l-8.75 24.75c-0.55,1.59 -1.3,2.94 -2.25,4.06 -0.94,1.11 -1.98,2.03 -3.11,2.75 -1.13,0.71 -2.33,1.23 -3.6,1.55 -1.27,0.33 -2.5,0.48 -3.69,0.48 -0.28,0 -0.54,0 -0.78,0 -0.24,0 -0.49,-0.01 -0.73,-0.04l-0.55 -0.32z"/>
 </g>
</svg>
